%TF.GenerationSoftware,KiCad,Pcbnew,(6.0.11)*%
%TF.CreationDate,2024-01-05T14:55:07+00:00*%
%TF.ProjectId,EcoIDTesterCaseFront,45636f49-4454-4657-9374-657243617365,rev?*%
%TF.SameCoordinates,Original*%
%TF.FileFunction,Drillmap*%
%TF.FilePolarity,Positive*%
%FSLAX45Y45*%
G04 Gerber Fmt 4.5, Leading zero omitted, Abs format (unit mm)*
G04 Created by KiCad (PCBNEW (6.0.11)) date 2024-01-05 14:55:07*
%MOMM*%
%LPD*%
G01*
G04 APERTURE LIST*
%ADD10C,0.100000*%
%ADD11C,0.200000*%
%ADD12C,0.320000*%
G04 APERTURE END LIST*
D10*
X23582000Y-8692000D02*
X23582000Y-10118000D01*
X23482000Y-10218000D02*
X20482000Y-10218000D01*
X20482000Y-8592000D02*
X23482000Y-8592000D01*
X23482000Y-10218000D02*
G75*
G03*
X23582000Y-10118000I0J100000D01*
G01*
X20382000Y-10118000D02*
X20382000Y-8692000D01*
X20482000Y-8592000D02*
G75*
G03*
X20382000Y-8692000I0J-100000D01*
G01*
X23582000Y-8692000D02*
G75*
G03*
X23482000Y-8592000I-100000J0D01*
G01*
X20382000Y-10118000D02*
G75*
G03*
X20482000Y-10218000I100000J0D01*
G01*
X22818145Y-12098000D02*
X20680855Y-12098000D01*
X22918145Y-11388000D02*
G75*
G03*
X22818145Y-11288000I-99999J1D01*
G01*
X22918145Y-11388000D02*
X22918145Y-11998000D01*
X22818145Y-12098000D02*
G75*
G03*
X22918145Y-11998000I-1J100001D01*
G01*
X20680855Y-11288000D02*
X22818145Y-11288000D01*
X20680855Y-11288000D02*
G75*
G03*
X20580855Y-11388000I0J-100000D01*
G01*
X20580855Y-11998000D02*
G75*
G03*
X20680855Y-12098000I100000J0D01*
G01*
X20580855Y-11998000D02*
X20580855Y-11388000D01*
X19083000Y-13086000D02*
X19209000Y-13086000D01*
X19209000Y-13086000D02*
X19463000Y-13340000D01*
X22892000Y-13341000D02*
X23147000Y-13087000D01*
X24417000Y-12935000D02*
X24416000Y-6485000D01*
X19463000Y-13340000D02*
X22892000Y-13341000D01*
X19083000Y-6483000D02*
X19083000Y-13086000D01*
X23147000Y-13087000D02*
X24264000Y-13087000D01*
X24264000Y-13087000D02*
X24417000Y-12935000D01*
X24416000Y-6485000D02*
X19083000Y-6483000D01*
D11*
D12*
X19177000Y-7720000D02*
X19497000Y-8040000D01*
X19497000Y-7720000D02*
X19177000Y-8040000D01*
X19685000Y-12927000D02*
X20005000Y-13247000D01*
X20005000Y-12927000D02*
X19685000Y-13247000D01*
X22479000Y-12927000D02*
X22799000Y-13247000D01*
X22799000Y-12927000D02*
X22479000Y-13247000D01*
X24003000Y-7847000D02*
X24323000Y-8167000D01*
X24323000Y-7847000D02*
X24003000Y-8167000D01*
D11*
X19335619Y-13656476D02*
X19335619Y-13456476D01*
X19383238Y-13456476D01*
X19411810Y-13466000D01*
X19430857Y-13485048D01*
X19440381Y-13504095D01*
X19449905Y-13542190D01*
X19449905Y-13570762D01*
X19440381Y-13608857D01*
X19430857Y-13627905D01*
X19411810Y-13646952D01*
X19383238Y-13656476D01*
X19335619Y-13656476D01*
X19535619Y-13656476D02*
X19535619Y-13523143D01*
X19535619Y-13561238D02*
X19545143Y-13542190D01*
X19554667Y-13532667D01*
X19573714Y-13523143D01*
X19592762Y-13523143D01*
X19659429Y-13656476D02*
X19659429Y-13523143D01*
X19659429Y-13456476D02*
X19649905Y-13466000D01*
X19659429Y-13475524D01*
X19668952Y-13466000D01*
X19659429Y-13456476D01*
X19659429Y-13475524D01*
X19783238Y-13656476D02*
X19764190Y-13646952D01*
X19754667Y-13627905D01*
X19754667Y-13456476D01*
X19888000Y-13656476D02*
X19868952Y-13646952D01*
X19859429Y-13627905D01*
X19859429Y-13456476D01*
X20116571Y-13656476D02*
X20116571Y-13456476D01*
X20183238Y-13599333D01*
X20249905Y-13456476D01*
X20249905Y-13656476D01*
X20430857Y-13656476D02*
X20430857Y-13551714D01*
X20421333Y-13532667D01*
X20402286Y-13523143D01*
X20364190Y-13523143D01*
X20345143Y-13532667D01*
X20430857Y-13646952D02*
X20411810Y-13656476D01*
X20364190Y-13656476D01*
X20345143Y-13646952D01*
X20335619Y-13627905D01*
X20335619Y-13608857D01*
X20345143Y-13589809D01*
X20364190Y-13580286D01*
X20411810Y-13580286D01*
X20430857Y-13570762D01*
X20526095Y-13523143D02*
X20526095Y-13723143D01*
X20526095Y-13532667D02*
X20545143Y-13523143D01*
X20583238Y-13523143D01*
X20602286Y-13532667D01*
X20611810Y-13542190D01*
X20621333Y-13561238D01*
X20621333Y-13618381D01*
X20611810Y-13637428D01*
X20602286Y-13646952D01*
X20583238Y-13656476D01*
X20545143Y-13656476D01*
X20526095Y-13646952D01*
X20707048Y-13637428D02*
X20716571Y-13646952D01*
X20707048Y-13656476D01*
X20697524Y-13646952D01*
X20707048Y-13637428D01*
X20707048Y-13656476D01*
X20707048Y-13532667D02*
X20716571Y-13542190D01*
X20707048Y-13551714D01*
X20697524Y-13542190D01*
X20707048Y-13532667D01*
X20707048Y-13551714D01*
X18878000Y-13886000D02*
X19078000Y-14086000D01*
X19078000Y-13886000D02*
X18878000Y-14086000D01*
X19316571Y-13876476D02*
X19440381Y-13876476D01*
X19373714Y-13952667D01*
X19402286Y-13952667D01*
X19421333Y-13962190D01*
X19430857Y-13971714D01*
X19440381Y-13990762D01*
X19440381Y-14038381D01*
X19430857Y-14057428D01*
X19421333Y-14066952D01*
X19402286Y-14076476D01*
X19345143Y-14076476D01*
X19326095Y-14066952D01*
X19316571Y-14057428D01*
X19526095Y-14057428D02*
X19535619Y-14066952D01*
X19526095Y-14076476D01*
X19516571Y-14066952D01*
X19526095Y-14057428D01*
X19526095Y-14076476D01*
X19611810Y-13895524D02*
X19621333Y-13886000D01*
X19640381Y-13876476D01*
X19688000Y-13876476D01*
X19707048Y-13886000D01*
X19716571Y-13895524D01*
X19726095Y-13914571D01*
X19726095Y-13933619D01*
X19716571Y-13962190D01*
X19602286Y-14076476D01*
X19726095Y-14076476D01*
X19849905Y-13876476D02*
X19868952Y-13876476D01*
X19888000Y-13886000D01*
X19897524Y-13895524D01*
X19907048Y-13914571D01*
X19916571Y-13952667D01*
X19916571Y-14000286D01*
X19907048Y-14038381D01*
X19897524Y-14057428D01*
X19888000Y-14066952D01*
X19868952Y-14076476D01*
X19849905Y-14076476D01*
X19830857Y-14066952D01*
X19821333Y-14057428D01*
X19811810Y-14038381D01*
X19802286Y-14000286D01*
X19802286Y-13952667D01*
X19811810Y-13914571D01*
X19821333Y-13895524D01*
X19830857Y-13886000D01*
X19849905Y-13876476D01*
X20040381Y-13876476D02*
X20059429Y-13876476D01*
X20078476Y-13886000D01*
X20088000Y-13895524D01*
X20097524Y-13914571D01*
X20107048Y-13952667D01*
X20107048Y-14000286D01*
X20097524Y-14038381D01*
X20088000Y-14057428D01*
X20078476Y-14066952D01*
X20059429Y-14076476D01*
X20040381Y-14076476D01*
X20021333Y-14066952D01*
X20011810Y-14057428D01*
X20002286Y-14038381D01*
X19992762Y-14000286D01*
X19992762Y-13952667D01*
X20002286Y-13914571D01*
X20011810Y-13895524D01*
X20021333Y-13886000D01*
X20040381Y-13876476D01*
X20192762Y-14076476D02*
X20192762Y-13943143D01*
X20192762Y-13962190D02*
X20202286Y-13952667D01*
X20221333Y-13943143D01*
X20249905Y-13943143D01*
X20268952Y-13952667D01*
X20278476Y-13971714D01*
X20278476Y-14076476D01*
X20278476Y-13971714D02*
X20288000Y-13952667D01*
X20307048Y-13943143D01*
X20335619Y-13943143D01*
X20354667Y-13952667D01*
X20364190Y-13971714D01*
X20364190Y-14076476D01*
X20459429Y-14076476D02*
X20459429Y-13943143D01*
X20459429Y-13962190D02*
X20468952Y-13952667D01*
X20488000Y-13943143D01*
X20516571Y-13943143D01*
X20535619Y-13952667D01*
X20545143Y-13971714D01*
X20545143Y-14076476D01*
X20545143Y-13971714D02*
X20554667Y-13952667D01*
X20573714Y-13943143D01*
X20602286Y-13943143D01*
X20621333Y-13952667D01*
X20630857Y-13971714D01*
X20630857Y-14076476D01*
X21021333Y-13866952D02*
X20849905Y-14124095D01*
X21278476Y-13876476D02*
X21297524Y-13876476D01*
X21316571Y-13886000D01*
X21326095Y-13895524D01*
X21335619Y-13914571D01*
X21345143Y-13952667D01*
X21345143Y-14000286D01*
X21335619Y-14038381D01*
X21326095Y-14057428D01*
X21316571Y-14066952D01*
X21297524Y-14076476D01*
X21278476Y-14076476D01*
X21259429Y-14066952D01*
X21249905Y-14057428D01*
X21240381Y-14038381D01*
X21230857Y-14000286D01*
X21230857Y-13952667D01*
X21240381Y-13914571D01*
X21249905Y-13895524D01*
X21259429Y-13886000D01*
X21278476Y-13876476D01*
X21430857Y-14057428D02*
X21440381Y-14066952D01*
X21430857Y-14076476D01*
X21421333Y-14066952D01*
X21430857Y-14057428D01*
X21430857Y-14076476D01*
X21630857Y-14076476D02*
X21516571Y-14076476D01*
X21573714Y-14076476D02*
X21573714Y-13876476D01*
X21554667Y-13905048D01*
X21535619Y-13924095D01*
X21516571Y-13933619D01*
X21707048Y-13895524D02*
X21716571Y-13886000D01*
X21735619Y-13876476D01*
X21783238Y-13876476D01*
X21802286Y-13886000D01*
X21811810Y-13895524D01*
X21821333Y-13914571D01*
X21821333Y-13933619D01*
X21811810Y-13962190D01*
X21697524Y-14076476D01*
X21821333Y-14076476D01*
X21992762Y-13876476D02*
X21954667Y-13876476D01*
X21935619Y-13886000D01*
X21926095Y-13895524D01*
X21907048Y-13924095D01*
X21897524Y-13962190D01*
X21897524Y-14038381D01*
X21907048Y-14057428D01*
X21916571Y-14066952D01*
X21935619Y-14076476D01*
X21973714Y-14076476D01*
X21992762Y-14066952D01*
X22002286Y-14057428D01*
X22011810Y-14038381D01*
X22011810Y-13990762D01*
X22002286Y-13971714D01*
X21992762Y-13962190D01*
X21973714Y-13952667D01*
X21935619Y-13952667D01*
X21916571Y-13962190D01*
X21907048Y-13971714D01*
X21897524Y-13990762D01*
X22135619Y-13876476D02*
X22154667Y-13876476D01*
X22173714Y-13886000D01*
X22183238Y-13895524D01*
X22192762Y-13914571D01*
X22202286Y-13952667D01*
X22202286Y-14000286D01*
X22192762Y-14038381D01*
X22183238Y-14057428D01*
X22173714Y-14066952D01*
X22154667Y-14076476D01*
X22135619Y-14076476D01*
X22116571Y-14066952D01*
X22107048Y-14057428D01*
X22097524Y-14038381D01*
X22088000Y-14000286D01*
X22088000Y-13952667D01*
X22097524Y-13914571D01*
X22107048Y-13895524D01*
X22116571Y-13886000D01*
X22135619Y-13876476D01*
X22278476Y-13876476D02*
X22278476Y-13914571D01*
X22354667Y-13876476D02*
X22354667Y-13914571D01*
X22649905Y-14152667D02*
X22640381Y-14143143D01*
X22621333Y-14114571D01*
X22611809Y-14095524D01*
X22602286Y-14066952D01*
X22592762Y-14019333D01*
X22592762Y-13981238D01*
X22602286Y-13933619D01*
X22611809Y-13905048D01*
X22621333Y-13886000D01*
X22640381Y-13857428D01*
X22649905Y-13847905D01*
X22811809Y-13943143D02*
X22811809Y-14076476D01*
X22764190Y-13866952D02*
X22716571Y-14009809D01*
X22840381Y-14009809D01*
X23068952Y-14076476D02*
X23068952Y-13876476D01*
X23154667Y-14076476D02*
X23154667Y-13971714D01*
X23145143Y-13952667D01*
X23126095Y-13943143D01*
X23097524Y-13943143D01*
X23078476Y-13952667D01*
X23068952Y-13962190D01*
X23278476Y-14076476D02*
X23259428Y-14066952D01*
X23249905Y-14057428D01*
X23240381Y-14038381D01*
X23240381Y-13981238D01*
X23249905Y-13962190D01*
X23259428Y-13952667D01*
X23278476Y-13943143D01*
X23307048Y-13943143D01*
X23326095Y-13952667D01*
X23335619Y-13962190D01*
X23345143Y-13981238D01*
X23345143Y-14038381D01*
X23335619Y-14057428D01*
X23326095Y-14066952D01*
X23307048Y-14076476D01*
X23278476Y-14076476D01*
X23459428Y-14076476D02*
X23440381Y-14066952D01*
X23430857Y-14047905D01*
X23430857Y-13876476D01*
X23611809Y-14066952D02*
X23592762Y-14076476D01*
X23554667Y-14076476D01*
X23535619Y-14066952D01*
X23526095Y-14047905D01*
X23526095Y-13971714D01*
X23535619Y-13952667D01*
X23554667Y-13943143D01*
X23592762Y-13943143D01*
X23611809Y-13952667D01*
X23621333Y-13971714D01*
X23621333Y-13990762D01*
X23526095Y-14009809D01*
X23697524Y-14066952D02*
X23716571Y-14076476D01*
X23754667Y-14076476D01*
X23773714Y-14066952D01*
X23783238Y-14047905D01*
X23783238Y-14038381D01*
X23773714Y-14019333D01*
X23754667Y-14009809D01*
X23726095Y-14009809D01*
X23707048Y-14000286D01*
X23697524Y-13981238D01*
X23697524Y-13971714D01*
X23707048Y-13952667D01*
X23726095Y-13943143D01*
X23754667Y-13943143D01*
X23773714Y-13952667D01*
X23849905Y-14152667D02*
X23859428Y-14143143D01*
X23878476Y-14114571D01*
X23888000Y-14095524D01*
X23897524Y-14066952D01*
X23907048Y-14019333D01*
X23907048Y-13981238D01*
X23897524Y-13933619D01*
X23888000Y-13905048D01*
X23878476Y-13886000D01*
X23859428Y-13857428D01*
X23849905Y-13847905D01*
X24211809Y-14152667D02*
X24202286Y-14143143D01*
X24183238Y-14114571D01*
X24173714Y-14095524D01*
X24164190Y-14066952D01*
X24154667Y-14019333D01*
X24154667Y-13981238D01*
X24164190Y-13933619D01*
X24173714Y-13905048D01*
X24183238Y-13886000D01*
X24202286Y-13857428D01*
X24211809Y-13847905D01*
X24288000Y-13943143D02*
X24288000Y-14076476D01*
X24288000Y-13962190D02*
X24297524Y-13952667D01*
X24316571Y-13943143D01*
X24345143Y-13943143D01*
X24364190Y-13952667D01*
X24373714Y-13971714D01*
X24373714Y-14076476D01*
X24497524Y-14076476D02*
X24478476Y-14066952D01*
X24468952Y-14057428D01*
X24459428Y-14038381D01*
X24459428Y-13981238D01*
X24468952Y-13962190D01*
X24478476Y-13952667D01*
X24497524Y-13943143D01*
X24526095Y-13943143D01*
X24545143Y-13952667D01*
X24554667Y-13962190D01*
X24564190Y-13981238D01*
X24564190Y-14038381D01*
X24554667Y-14057428D01*
X24545143Y-14066952D01*
X24526095Y-14076476D01*
X24497524Y-14076476D01*
X24621333Y-13943143D02*
X24697524Y-13943143D01*
X24649905Y-13876476D02*
X24649905Y-14047905D01*
X24659428Y-14066952D01*
X24678476Y-14076476D01*
X24697524Y-14076476D01*
X24916571Y-13943143D02*
X24916571Y-14143143D01*
X24916571Y-13952667D02*
X24935619Y-13943143D01*
X24973714Y-13943143D01*
X24992762Y-13952667D01*
X25002286Y-13962190D01*
X25011809Y-13981238D01*
X25011809Y-14038381D01*
X25002286Y-14057428D01*
X24992762Y-14066952D01*
X24973714Y-14076476D01*
X24935619Y-14076476D01*
X24916571Y-14066952D01*
X25126095Y-14076476D02*
X25107048Y-14066952D01*
X25097524Y-14047905D01*
X25097524Y-13876476D01*
X25288000Y-14076476D02*
X25288000Y-13971714D01*
X25278476Y-13952667D01*
X25259428Y-13943143D01*
X25221333Y-13943143D01*
X25202286Y-13952667D01*
X25288000Y-14066952D02*
X25268952Y-14076476D01*
X25221333Y-14076476D01*
X25202286Y-14066952D01*
X25192762Y-14047905D01*
X25192762Y-14028857D01*
X25202286Y-14009809D01*
X25221333Y-14000286D01*
X25268952Y-14000286D01*
X25288000Y-13990762D01*
X25354667Y-13943143D02*
X25430857Y-13943143D01*
X25383238Y-13876476D02*
X25383238Y-14047905D01*
X25392762Y-14066952D01*
X25411809Y-14076476D01*
X25430857Y-14076476D01*
X25573714Y-14066952D02*
X25554667Y-14076476D01*
X25516571Y-14076476D01*
X25497524Y-14066952D01*
X25488000Y-14047905D01*
X25488000Y-13971714D01*
X25497524Y-13952667D01*
X25516571Y-13943143D01*
X25554667Y-13943143D01*
X25573714Y-13952667D01*
X25583238Y-13971714D01*
X25583238Y-13990762D01*
X25488000Y-14009809D01*
X25754667Y-14076476D02*
X25754667Y-13876476D01*
X25754667Y-14066952D02*
X25735619Y-14076476D01*
X25697524Y-14076476D01*
X25678476Y-14066952D01*
X25668952Y-14057428D01*
X25659428Y-14038381D01*
X25659428Y-13981238D01*
X25668952Y-13962190D01*
X25678476Y-13952667D01*
X25697524Y-13943143D01*
X25735619Y-13943143D01*
X25754667Y-13952667D01*
X25830857Y-14152667D02*
X25840381Y-14143143D01*
X25859428Y-14114571D01*
X25868952Y-14095524D01*
X25878476Y-14066952D01*
X25888000Y-14019333D01*
X25888000Y-13981238D01*
X25878476Y-13933619D01*
X25868952Y-13905048D01*
X25859428Y-13886000D01*
X25840381Y-13857428D01*
X25830857Y-13847905D01*
M02*
