%TF.GenerationSoftware,KiCad,Pcbnew,(6.0.11)*%
%TF.CreationDate,2024-01-05T14:55:08+00:00*%
%TF.ProjectId,EcoIDTesterCaseFront,45636f49-4454-4657-9374-657243617365,rev?*%
%TF.SameCoordinates,Original*%
%TF.FileFunction,Profile,NP*%
%FSLAX46Y46*%
G04 Gerber Fmt 4.6, Leading zero omitted, Abs format (unit mm)*
G04 Created by KiCad (PCBNEW (6.0.11)) date 2024-01-05 14:55:08*
%MOMM*%
%LPD*%
G01*
G04 APERTURE LIST*
%TA.AperFunction,Profile*%
%ADD10C,0.100000*%
%TD*%
G04 APERTURE END LIST*
D10*
X235820000Y-86920000D02*
X235820000Y-101180000D01*
X234820000Y-102180000D02*
X204820000Y-102180000D01*
X204820000Y-85920000D02*
X234820000Y-85920000D01*
X234820000Y-102180000D02*
G75*
G03*
X235820000Y-101180000I1J999999D01*
G01*
X203820000Y-101180000D02*
X203820000Y-86920000D01*
X204820000Y-85920000D02*
G75*
G03*
X203820000Y-86920000I-1J-999999D01*
G01*
X235820000Y-86920000D02*
G75*
G03*
X234820000Y-85920000I-999999J1D01*
G01*
X203820000Y-101180000D02*
G75*
G03*
X204820000Y-102180000I999999J-1D01*
G01*
X228181447Y-120980000D02*
X206808554Y-120980000D01*
X229181447Y-113880000D02*
G75*
G03*
X228181447Y-112880000I-999989J11D01*
G01*
X229181447Y-113880000D02*
X229181447Y-119980000D01*
X228181447Y-120980000D02*
G75*
G03*
X229181447Y-119980000I-6J1000006D01*
G01*
X206808554Y-112880000D02*
X228181447Y-112880000D01*
X206808554Y-112880000D02*
G75*
G03*
X205808554Y-113880000I-1J-999999D01*
G01*
X205808554Y-119980000D02*
G75*
G03*
X206808554Y-120980000I999999J-1D01*
G01*
X205808554Y-119980000D02*
X205808554Y-113880000D01*
X190830000Y-130860000D02*
X192090000Y-130860000D01*
X192090000Y-130860000D02*
X194630000Y-133400000D01*
X228920000Y-133410000D02*
X231470000Y-130870000D01*
X244170000Y-129350000D02*
X244160000Y-64850000D01*
X194630000Y-133400000D02*
X228920000Y-133410000D01*
X190830000Y-64830000D02*
X190830000Y-130860000D01*
X231470000Y-130870000D02*
X242640000Y-130870000D01*
X242640000Y-130870000D02*
X244170000Y-129350000D01*
X244160000Y-64850000D02*
X190830000Y-64830000D01*
M02*
