%TF.GenerationSoftware,KiCad,Pcbnew,(6.0.11)*%
%TF.CreationDate,2024-01-05T14:55:07+00:00*%
%TF.ProjectId,EcoIDTesterCaseFront,45636f49-4454-4657-9374-657243617365,rev?*%
%TF.SameCoordinates,Original*%
%TF.FileFunction,Drillmap*%
%TF.FilePolarity,Positive*%
%FSLAX45Y45*%
G04 Gerber Fmt 4.5, Leading zero omitted, Abs format (unit mm)*
G04 Created by KiCad (PCBNEW (6.0.11)) date 2024-01-05 14:55:07*
%MOMM*%
%LPD*%
G01*
G04 APERTURE LIST*
%ADD10C,0.100000*%
%ADD11C,0.200000*%
G04 APERTURE END LIST*
D10*
X23582000Y-8692000D02*
X23582000Y-10118000D01*
X23482000Y-10218000D02*
X20482000Y-10218000D01*
X20482000Y-8592000D02*
X23482000Y-8592000D01*
X23482000Y-10218000D02*
G75*
G03*
X23582000Y-10118000I0J100000D01*
G01*
X20382000Y-10118000D02*
X20382000Y-8692000D01*
X20482000Y-8592000D02*
G75*
G03*
X20382000Y-8692000I0J-100000D01*
G01*
X23582000Y-8692000D02*
G75*
G03*
X23482000Y-8592000I-100000J0D01*
G01*
X20382000Y-10118000D02*
G75*
G03*
X20482000Y-10218000I100000J0D01*
G01*
X22818145Y-12098000D02*
X20680855Y-12098000D01*
X22918145Y-11388000D02*
G75*
G03*
X22818145Y-11288000I-99999J1D01*
G01*
X22918145Y-11388000D02*
X22918145Y-11998000D01*
X22818145Y-12098000D02*
G75*
G03*
X22918145Y-11998000I-1J100001D01*
G01*
X20680855Y-11288000D02*
X22818145Y-11288000D01*
X20680855Y-11288000D02*
G75*
G03*
X20580855Y-11388000I0J-100000D01*
G01*
X20580855Y-11998000D02*
G75*
G03*
X20680855Y-12098000I100000J0D01*
G01*
X20580855Y-11998000D02*
X20580855Y-11388000D01*
X19083000Y-13086000D02*
X19209000Y-13086000D01*
X19209000Y-13086000D02*
X19463000Y-13340000D01*
X22892000Y-13341000D02*
X23147000Y-13087000D01*
X24417000Y-12935000D02*
X24416000Y-6485000D01*
X19463000Y-13340000D02*
X22892000Y-13341000D01*
X19083000Y-6483000D02*
X19083000Y-13086000D01*
X23147000Y-13087000D02*
X24264000Y-13087000D01*
X24264000Y-13087000D02*
X24417000Y-12935000D01*
X24416000Y-6485000D02*
X19083000Y-6483000D01*
D11*
X19335619Y-13656476D02*
X19335619Y-13456476D01*
X19383238Y-13456476D01*
X19411810Y-13466000D01*
X19430857Y-13485048D01*
X19440381Y-13504095D01*
X19449905Y-13542190D01*
X19449905Y-13570762D01*
X19440381Y-13608857D01*
X19430857Y-13627905D01*
X19411810Y-13646952D01*
X19383238Y-13656476D01*
X19335619Y-13656476D01*
X19535619Y-13656476D02*
X19535619Y-13523143D01*
X19535619Y-13561238D02*
X19545143Y-13542190D01*
X19554667Y-13532667D01*
X19573714Y-13523143D01*
X19592762Y-13523143D01*
X19659429Y-13656476D02*
X19659429Y-13523143D01*
X19659429Y-13456476D02*
X19649905Y-13466000D01*
X19659429Y-13475524D01*
X19668952Y-13466000D01*
X19659429Y-13456476D01*
X19659429Y-13475524D01*
X19783238Y-13656476D02*
X19764190Y-13646952D01*
X19754667Y-13627905D01*
X19754667Y-13456476D01*
X19888000Y-13656476D02*
X19868952Y-13646952D01*
X19859429Y-13627905D01*
X19859429Y-13456476D01*
X20116571Y-13656476D02*
X20116571Y-13456476D01*
X20183238Y-13599333D01*
X20249905Y-13456476D01*
X20249905Y-13656476D01*
X20430857Y-13656476D02*
X20430857Y-13551714D01*
X20421333Y-13532667D01*
X20402286Y-13523143D01*
X20364190Y-13523143D01*
X20345143Y-13532667D01*
X20430857Y-13646952D02*
X20411810Y-13656476D01*
X20364190Y-13656476D01*
X20345143Y-13646952D01*
X20335619Y-13627905D01*
X20335619Y-13608857D01*
X20345143Y-13589809D01*
X20364190Y-13580286D01*
X20411810Y-13580286D01*
X20430857Y-13570762D01*
X20526095Y-13523143D02*
X20526095Y-13723143D01*
X20526095Y-13532667D02*
X20545143Y-13523143D01*
X20583238Y-13523143D01*
X20602286Y-13532667D01*
X20611810Y-13542190D01*
X20621333Y-13561238D01*
X20621333Y-13618381D01*
X20611810Y-13637428D01*
X20602286Y-13646952D01*
X20583238Y-13656476D01*
X20545143Y-13656476D01*
X20526095Y-13646952D01*
X20707048Y-13637428D02*
X20716571Y-13646952D01*
X20707048Y-13656476D01*
X20697524Y-13646952D01*
X20707048Y-13637428D01*
X20707048Y-13656476D01*
X20707048Y-13532667D02*
X20716571Y-13542190D01*
X20707048Y-13551714D01*
X20697524Y-13542190D01*
X20707048Y-13532667D01*
X20707048Y-13551714D01*
M02*
