%TF.GenerationSoftware,KiCad,Pcbnew,(6.0.11)*%
%TF.CreationDate,2024-01-05T14:59:19+00:00*%
%TF.ProjectId,EcoIDTesterCaseRear,45636f49-4454-4657-9374-657243617365,rev?*%
%TF.SameCoordinates,Original*%
%TF.FileFunction,Legend,Top*%
%TF.FilePolarity,Positive*%
%FSLAX46Y46*%
G04 Gerber Fmt 4.6, Leading zero omitted, Abs format (unit mm)*
G04 Created by KiCad (PCBNEW (6.0.11)) date 2024-01-05 14:59:19*
%MOMM*%
%LPD*%
G01*
G04 APERTURE LIST*
%ADD10C,0.300000*%
G04 APERTURE END LIST*
D10*
X134971904Y-80794761D02*
X134971904Y-82223333D01*
X134876666Y-82509047D01*
X134686190Y-82699523D01*
X134400476Y-82794761D01*
X134210000Y-82794761D01*
X136876666Y-82794761D02*
X135924285Y-82794761D01*
X135924285Y-80794761D01*
X138686190Y-82604285D02*
X138590952Y-82699523D01*
X138305238Y-82794761D01*
X138114761Y-82794761D01*
X137829047Y-82699523D01*
X137638571Y-82509047D01*
X137543333Y-82318571D01*
X137448095Y-81937619D01*
X137448095Y-81651904D01*
X137543333Y-81270952D01*
X137638571Y-81080476D01*
X137829047Y-80890000D01*
X138114761Y-80794761D01*
X138305238Y-80794761D01*
X138590952Y-80890000D01*
X138686190Y-80985238D01*
X140114761Y-80794761D02*
X140114761Y-82223333D01*
X140019523Y-82509047D01*
X139829047Y-82699523D01*
X139543333Y-82794761D01*
X139352857Y-82794761D01*
X142019523Y-82794761D02*
X141067142Y-82794761D01*
X141067142Y-80794761D01*
X143829047Y-82604285D02*
X143733809Y-82699523D01*
X143448095Y-82794761D01*
X143257619Y-82794761D01*
X142971904Y-82699523D01*
X142781428Y-82509047D01*
X142686190Y-82318571D01*
X142590952Y-81937619D01*
X142590952Y-81651904D01*
X142686190Y-81270952D01*
X142781428Y-81080476D01*
X142971904Y-80890000D01*
X143257619Y-80794761D01*
X143448095Y-80794761D01*
X143733809Y-80890000D01*
X143829047Y-80985238D01*
X145257619Y-80794761D02*
X145257619Y-82223333D01*
X145162380Y-82509047D01*
X144971904Y-82699523D01*
X144686190Y-82794761D01*
X144495714Y-82794761D01*
X147162380Y-82794761D02*
X146210000Y-82794761D01*
X146210000Y-80794761D01*
X148971904Y-82604285D02*
X148876666Y-82699523D01*
X148590952Y-82794761D01*
X148400476Y-82794761D01*
X148114761Y-82699523D01*
X147924285Y-82509047D01*
X147829047Y-82318571D01*
X147733809Y-81937619D01*
X147733809Y-81651904D01*
X147829047Y-81270952D01*
X147924285Y-81080476D01*
X148114761Y-80890000D01*
X148400476Y-80794761D01*
X148590952Y-80794761D01*
X148876666Y-80890000D01*
X148971904Y-80985238D01*
X150400476Y-80794761D02*
X150400476Y-82223333D01*
X150305238Y-82509047D01*
X150114761Y-82699523D01*
X149829047Y-82794761D01*
X149638571Y-82794761D01*
X152305238Y-82794761D02*
X151352857Y-82794761D01*
X151352857Y-80794761D01*
X154114761Y-82604285D02*
X154019523Y-82699523D01*
X153733809Y-82794761D01*
X153543333Y-82794761D01*
X153257619Y-82699523D01*
X153067142Y-82509047D01*
X152971904Y-82318571D01*
X152876666Y-81937619D01*
X152876666Y-81651904D01*
X152971904Y-81270952D01*
X153067142Y-81080476D01*
X153257619Y-80890000D01*
X153543333Y-80794761D01*
X153733809Y-80794761D01*
X154019523Y-80890000D01*
X154114761Y-80985238D01*
M02*
