%TF.GenerationSoftware,KiCad,Pcbnew,(6.0.11)*%
%TF.CreationDate,2024-01-05T14:59:17+00:00*%
%TF.ProjectId,EcoIDTesterCaseRear,45636f49-4454-4657-9374-657243617365,rev?*%
%TF.SameCoordinates,Original*%
%TF.FileFunction,Drillmap*%
%TF.FilePolarity,Positive*%
%FSLAX45Y45*%
G04 Gerber Fmt 4.5, Leading zero omitted, Abs format (unit mm)*
G04 Created by KiCad (PCBNEW (6.0.11)) date 2024-01-05 14:59:17*
%MOMM*%
%LPD*%
G01*
G04 APERTURE LIST*
%ADD10C,0.100000*%
%ADD11C,0.200000*%
%ADD12C,0.320000*%
G04 APERTURE END LIST*
D10*
X15563000Y-13436000D02*
X15818000Y-13182000D01*
X17087000Y-6580000D02*
X11754000Y-6578000D01*
X11754000Y-6578000D02*
X11754000Y-13181000D01*
X15818000Y-13182000D02*
X16935000Y-13182000D01*
X11880000Y-13181000D02*
X12134000Y-13435000D01*
X16935000Y-13182000D02*
X17088000Y-13030000D01*
X17088000Y-13030000D02*
X17087000Y-6580000D01*
X11754000Y-13181000D02*
X11880000Y-13181000D01*
X12134000Y-13435000D02*
X15563000Y-13436000D01*
D11*
D12*
X11847500Y-7815000D02*
X12167500Y-8135000D01*
X12167500Y-7815000D02*
X11847500Y-8135000D01*
X12355500Y-13022000D02*
X12675500Y-13342000D01*
X12675500Y-13022000D02*
X12355500Y-13342000D01*
X15149500Y-13022000D02*
X15469500Y-13342000D01*
X15469500Y-13022000D02*
X15149500Y-13342000D01*
X16673500Y-7942000D02*
X16993500Y-8262000D01*
X16993500Y-7942000D02*
X16673500Y-8262000D01*
D11*
X12006619Y-13751476D02*
X12006619Y-13551476D01*
X12054238Y-13551476D01*
X12082809Y-13561000D01*
X12101857Y-13580048D01*
X12111381Y-13599095D01*
X12120905Y-13637190D01*
X12120905Y-13665762D01*
X12111381Y-13703857D01*
X12101857Y-13722905D01*
X12082809Y-13741952D01*
X12054238Y-13751476D01*
X12006619Y-13751476D01*
X12206619Y-13751476D02*
X12206619Y-13618143D01*
X12206619Y-13656238D02*
X12216143Y-13637190D01*
X12225667Y-13627667D01*
X12244714Y-13618143D01*
X12263762Y-13618143D01*
X12330428Y-13751476D02*
X12330428Y-13618143D01*
X12330428Y-13551476D02*
X12320905Y-13561000D01*
X12330428Y-13570524D01*
X12339952Y-13561000D01*
X12330428Y-13551476D01*
X12330428Y-13570524D01*
X12454238Y-13751476D02*
X12435190Y-13741952D01*
X12425667Y-13722905D01*
X12425667Y-13551476D01*
X12559000Y-13751476D02*
X12539952Y-13741952D01*
X12530428Y-13722905D01*
X12530428Y-13551476D01*
X12787571Y-13751476D02*
X12787571Y-13551476D01*
X12854238Y-13694333D01*
X12920905Y-13551476D01*
X12920905Y-13751476D01*
X13101857Y-13751476D02*
X13101857Y-13646714D01*
X13092333Y-13627667D01*
X13073286Y-13618143D01*
X13035190Y-13618143D01*
X13016143Y-13627667D01*
X13101857Y-13741952D02*
X13082809Y-13751476D01*
X13035190Y-13751476D01*
X13016143Y-13741952D01*
X13006619Y-13722905D01*
X13006619Y-13703857D01*
X13016143Y-13684809D01*
X13035190Y-13675286D01*
X13082809Y-13675286D01*
X13101857Y-13665762D01*
X13197095Y-13618143D02*
X13197095Y-13818143D01*
X13197095Y-13627667D02*
X13216143Y-13618143D01*
X13254238Y-13618143D01*
X13273286Y-13627667D01*
X13282809Y-13637190D01*
X13292333Y-13656238D01*
X13292333Y-13713381D01*
X13282809Y-13732428D01*
X13273286Y-13741952D01*
X13254238Y-13751476D01*
X13216143Y-13751476D01*
X13197095Y-13741952D01*
X13378048Y-13732428D02*
X13387571Y-13741952D01*
X13378048Y-13751476D01*
X13368524Y-13741952D01*
X13378048Y-13732428D01*
X13378048Y-13751476D01*
X13378048Y-13627667D02*
X13387571Y-13637190D01*
X13378048Y-13646714D01*
X13368524Y-13637190D01*
X13378048Y-13627667D01*
X13378048Y-13646714D01*
X11549000Y-13981000D02*
X11749000Y-14181000D01*
X11749000Y-13981000D02*
X11549000Y-14181000D01*
X11987571Y-13971476D02*
X12111381Y-13971476D01*
X12044714Y-14047667D01*
X12073286Y-14047667D01*
X12092333Y-14057190D01*
X12101857Y-14066714D01*
X12111381Y-14085762D01*
X12111381Y-14133381D01*
X12101857Y-14152428D01*
X12092333Y-14161952D01*
X12073286Y-14171476D01*
X12016143Y-14171476D01*
X11997095Y-14161952D01*
X11987571Y-14152428D01*
X12197095Y-14152428D02*
X12206619Y-14161952D01*
X12197095Y-14171476D01*
X12187571Y-14161952D01*
X12197095Y-14152428D01*
X12197095Y-14171476D01*
X12282809Y-13990524D02*
X12292333Y-13981000D01*
X12311381Y-13971476D01*
X12359000Y-13971476D01*
X12378048Y-13981000D01*
X12387571Y-13990524D01*
X12397095Y-14009571D01*
X12397095Y-14028619D01*
X12387571Y-14057190D01*
X12273286Y-14171476D01*
X12397095Y-14171476D01*
X12520905Y-13971476D02*
X12539952Y-13971476D01*
X12559000Y-13981000D01*
X12568524Y-13990524D01*
X12578048Y-14009571D01*
X12587571Y-14047667D01*
X12587571Y-14095286D01*
X12578048Y-14133381D01*
X12568524Y-14152428D01*
X12559000Y-14161952D01*
X12539952Y-14171476D01*
X12520905Y-14171476D01*
X12501857Y-14161952D01*
X12492333Y-14152428D01*
X12482809Y-14133381D01*
X12473286Y-14095286D01*
X12473286Y-14047667D01*
X12482809Y-14009571D01*
X12492333Y-13990524D01*
X12501857Y-13981000D01*
X12520905Y-13971476D01*
X12711381Y-13971476D02*
X12730428Y-13971476D01*
X12749476Y-13981000D01*
X12759000Y-13990524D01*
X12768524Y-14009571D01*
X12778048Y-14047667D01*
X12778048Y-14095286D01*
X12768524Y-14133381D01*
X12759000Y-14152428D01*
X12749476Y-14161952D01*
X12730428Y-14171476D01*
X12711381Y-14171476D01*
X12692333Y-14161952D01*
X12682809Y-14152428D01*
X12673286Y-14133381D01*
X12663762Y-14095286D01*
X12663762Y-14047667D01*
X12673286Y-14009571D01*
X12682809Y-13990524D01*
X12692333Y-13981000D01*
X12711381Y-13971476D01*
X12863762Y-14171476D02*
X12863762Y-14038143D01*
X12863762Y-14057190D02*
X12873286Y-14047667D01*
X12892333Y-14038143D01*
X12920905Y-14038143D01*
X12939952Y-14047667D01*
X12949476Y-14066714D01*
X12949476Y-14171476D01*
X12949476Y-14066714D02*
X12959000Y-14047667D01*
X12978048Y-14038143D01*
X13006619Y-14038143D01*
X13025667Y-14047667D01*
X13035190Y-14066714D01*
X13035190Y-14171476D01*
X13130428Y-14171476D02*
X13130428Y-14038143D01*
X13130428Y-14057190D02*
X13139952Y-14047667D01*
X13159000Y-14038143D01*
X13187571Y-14038143D01*
X13206619Y-14047667D01*
X13216143Y-14066714D01*
X13216143Y-14171476D01*
X13216143Y-14066714D02*
X13225667Y-14047667D01*
X13244714Y-14038143D01*
X13273286Y-14038143D01*
X13292333Y-14047667D01*
X13301857Y-14066714D01*
X13301857Y-14171476D01*
X13692333Y-13961952D02*
X13520905Y-14219095D01*
X13949476Y-13971476D02*
X13968524Y-13971476D01*
X13987571Y-13981000D01*
X13997095Y-13990524D01*
X14006619Y-14009571D01*
X14016143Y-14047667D01*
X14016143Y-14095286D01*
X14006619Y-14133381D01*
X13997095Y-14152428D01*
X13987571Y-14161952D01*
X13968524Y-14171476D01*
X13949476Y-14171476D01*
X13930428Y-14161952D01*
X13920905Y-14152428D01*
X13911381Y-14133381D01*
X13901857Y-14095286D01*
X13901857Y-14047667D01*
X13911381Y-14009571D01*
X13920905Y-13990524D01*
X13930428Y-13981000D01*
X13949476Y-13971476D01*
X14101857Y-14152428D02*
X14111381Y-14161952D01*
X14101857Y-14171476D01*
X14092333Y-14161952D01*
X14101857Y-14152428D01*
X14101857Y-14171476D01*
X14301857Y-14171476D02*
X14187571Y-14171476D01*
X14244714Y-14171476D02*
X14244714Y-13971476D01*
X14225667Y-14000048D01*
X14206619Y-14019095D01*
X14187571Y-14028619D01*
X14378048Y-13990524D02*
X14387571Y-13981000D01*
X14406619Y-13971476D01*
X14454238Y-13971476D01*
X14473286Y-13981000D01*
X14482809Y-13990524D01*
X14492333Y-14009571D01*
X14492333Y-14028619D01*
X14482809Y-14057190D01*
X14368524Y-14171476D01*
X14492333Y-14171476D01*
X14663762Y-13971476D02*
X14625667Y-13971476D01*
X14606619Y-13981000D01*
X14597095Y-13990524D01*
X14578048Y-14019095D01*
X14568524Y-14057190D01*
X14568524Y-14133381D01*
X14578048Y-14152428D01*
X14587571Y-14161952D01*
X14606619Y-14171476D01*
X14644714Y-14171476D01*
X14663762Y-14161952D01*
X14673286Y-14152428D01*
X14682809Y-14133381D01*
X14682809Y-14085762D01*
X14673286Y-14066714D01*
X14663762Y-14057190D01*
X14644714Y-14047667D01*
X14606619Y-14047667D01*
X14587571Y-14057190D01*
X14578048Y-14066714D01*
X14568524Y-14085762D01*
X14806619Y-13971476D02*
X14825667Y-13971476D01*
X14844714Y-13981000D01*
X14854238Y-13990524D01*
X14863762Y-14009571D01*
X14873286Y-14047667D01*
X14873286Y-14095286D01*
X14863762Y-14133381D01*
X14854238Y-14152428D01*
X14844714Y-14161952D01*
X14825667Y-14171476D01*
X14806619Y-14171476D01*
X14787571Y-14161952D01*
X14778048Y-14152428D01*
X14768524Y-14133381D01*
X14759000Y-14095286D01*
X14759000Y-14047667D01*
X14768524Y-14009571D01*
X14778048Y-13990524D01*
X14787571Y-13981000D01*
X14806619Y-13971476D01*
X14949476Y-13971476D02*
X14949476Y-14009571D01*
X15025667Y-13971476D02*
X15025667Y-14009571D01*
X15320905Y-14247667D02*
X15311381Y-14238143D01*
X15292333Y-14209571D01*
X15282809Y-14190524D01*
X15273286Y-14161952D01*
X15263762Y-14114333D01*
X15263762Y-14076238D01*
X15273286Y-14028619D01*
X15282809Y-14000048D01*
X15292333Y-13981000D01*
X15311381Y-13952428D01*
X15320905Y-13942905D01*
X15482809Y-14038143D02*
X15482809Y-14171476D01*
X15435190Y-13961952D02*
X15387571Y-14104809D01*
X15511381Y-14104809D01*
X15739952Y-14171476D02*
X15739952Y-13971476D01*
X15825667Y-14171476D02*
X15825667Y-14066714D01*
X15816143Y-14047667D01*
X15797095Y-14038143D01*
X15768524Y-14038143D01*
X15749476Y-14047667D01*
X15739952Y-14057190D01*
X15949476Y-14171476D02*
X15930428Y-14161952D01*
X15920905Y-14152428D01*
X15911381Y-14133381D01*
X15911381Y-14076238D01*
X15920905Y-14057190D01*
X15930428Y-14047667D01*
X15949476Y-14038143D01*
X15978048Y-14038143D01*
X15997095Y-14047667D01*
X16006619Y-14057190D01*
X16016143Y-14076238D01*
X16016143Y-14133381D01*
X16006619Y-14152428D01*
X15997095Y-14161952D01*
X15978048Y-14171476D01*
X15949476Y-14171476D01*
X16130428Y-14171476D02*
X16111381Y-14161952D01*
X16101857Y-14142905D01*
X16101857Y-13971476D01*
X16282809Y-14161952D02*
X16263762Y-14171476D01*
X16225667Y-14171476D01*
X16206619Y-14161952D01*
X16197095Y-14142905D01*
X16197095Y-14066714D01*
X16206619Y-14047667D01*
X16225667Y-14038143D01*
X16263762Y-14038143D01*
X16282809Y-14047667D01*
X16292333Y-14066714D01*
X16292333Y-14085762D01*
X16197095Y-14104809D01*
X16368524Y-14161952D02*
X16387571Y-14171476D01*
X16425667Y-14171476D01*
X16444714Y-14161952D01*
X16454238Y-14142905D01*
X16454238Y-14133381D01*
X16444714Y-14114333D01*
X16425667Y-14104809D01*
X16397095Y-14104809D01*
X16378048Y-14095286D01*
X16368524Y-14076238D01*
X16368524Y-14066714D01*
X16378048Y-14047667D01*
X16397095Y-14038143D01*
X16425667Y-14038143D01*
X16444714Y-14047667D01*
X16520905Y-14247667D02*
X16530428Y-14238143D01*
X16549476Y-14209571D01*
X16559000Y-14190524D01*
X16568524Y-14161952D01*
X16578048Y-14114333D01*
X16578048Y-14076238D01*
X16568524Y-14028619D01*
X16559000Y-14000048D01*
X16549476Y-13981000D01*
X16530428Y-13952428D01*
X16520905Y-13942905D01*
X16882810Y-14247667D02*
X16873286Y-14238143D01*
X16854238Y-14209571D01*
X16844714Y-14190524D01*
X16835190Y-14161952D01*
X16825667Y-14114333D01*
X16825667Y-14076238D01*
X16835190Y-14028619D01*
X16844714Y-14000048D01*
X16854238Y-13981000D01*
X16873286Y-13952428D01*
X16882810Y-13942905D01*
X16959000Y-14038143D02*
X16959000Y-14171476D01*
X16959000Y-14057190D02*
X16968524Y-14047667D01*
X16987571Y-14038143D01*
X17016143Y-14038143D01*
X17035190Y-14047667D01*
X17044714Y-14066714D01*
X17044714Y-14171476D01*
X17168524Y-14171476D02*
X17149476Y-14161952D01*
X17139952Y-14152428D01*
X17130429Y-14133381D01*
X17130429Y-14076238D01*
X17139952Y-14057190D01*
X17149476Y-14047667D01*
X17168524Y-14038143D01*
X17197095Y-14038143D01*
X17216143Y-14047667D01*
X17225667Y-14057190D01*
X17235190Y-14076238D01*
X17235190Y-14133381D01*
X17225667Y-14152428D01*
X17216143Y-14161952D01*
X17197095Y-14171476D01*
X17168524Y-14171476D01*
X17292333Y-14038143D02*
X17368524Y-14038143D01*
X17320905Y-13971476D02*
X17320905Y-14142905D01*
X17330429Y-14161952D01*
X17349476Y-14171476D01*
X17368524Y-14171476D01*
X17587571Y-14038143D02*
X17587571Y-14238143D01*
X17587571Y-14047667D02*
X17606619Y-14038143D01*
X17644714Y-14038143D01*
X17663762Y-14047667D01*
X17673286Y-14057190D01*
X17682810Y-14076238D01*
X17682810Y-14133381D01*
X17673286Y-14152428D01*
X17663762Y-14161952D01*
X17644714Y-14171476D01*
X17606619Y-14171476D01*
X17587571Y-14161952D01*
X17797095Y-14171476D02*
X17778048Y-14161952D01*
X17768524Y-14142905D01*
X17768524Y-13971476D01*
X17959000Y-14171476D02*
X17959000Y-14066714D01*
X17949476Y-14047667D01*
X17930429Y-14038143D01*
X17892333Y-14038143D01*
X17873286Y-14047667D01*
X17959000Y-14161952D02*
X17939952Y-14171476D01*
X17892333Y-14171476D01*
X17873286Y-14161952D01*
X17863762Y-14142905D01*
X17863762Y-14123857D01*
X17873286Y-14104809D01*
X17892333Y-14095286D01*
X17939952Y-14095286D01*
X17959000Y-14085762D01*
X18025667Y-14038143D02*
X18101857Y-14038143D01*
X18054238Y-13971476D02*
X18054238Y-14142905D01*
X18063762Y-14161952D01*
X18082810Y-14171476D01*
X18101857Y-14171476D01*
X18244714Y-14161952D02*
X18225667Y-14171476D01*
X18187571Y-14171476D01*
X18168524Y-14161952D01*
X18159000Y-14142905D01*
X18159000Y-14066714D01*
X18168524Y-14047667D01*
X18187571Y-14038143D01*
X18225667Y-14038143D01*
X18244714Y-14047667D01*
X18254238Y-14066714D01*
X18254238Y-14085762D01*
X18159000Y-14104809D01*
X18425667Y-14171476D02*
X18425667Y-13971476D01*
X18425667Y-14161952D02*
X18406619Y-14171476D01*
X18368524Y-14171476D01*
X18349476Y-14161952D01*
X18339952Y-14152428D01*
X18330429Y-14133381D01*
X18330429Y-14076238D01*
X18339952Y-14057190D01*
X18349476Y-14047667D01*
X18368524Y-14038143D01*
X18406619Y-14038143D01*
X18425667Y-14047667D01*
X18501857Y-14247667D02*
X18511381Y-14238143D01*
X18530429Y-14209571D01*
X18539952Y-14190524D01*
X18549476Y-14161952D01*
X18559000Y-14114333D01*
X18559000Y-14076238D01*
X18549476Y-14028619D01*
X18539952Y-14000048D01*
X18530429Y-13981000D01*
X18511381Y-13952428D01*
X18501857Y-13942905D01*
M02*
