%TF.GenerationSoftware,KiCad,Pcbnew,(6.0.11)*%
%TF.CreationDate,2024-01-05T14:59:19+00:00*%
%TF.ProjectId,EcoIDTesterCaseRear,45636f49-4454-4657-9374-657243617365,rev?*%
%TF.SameCoordinates,Original*%
%TF.FileFunction,Legend,Bot*%
%TF.FilePolarity,Positive*%
%FSLAX46Y46*%
G04 Gerber Fmt 4.6, Leading zero omitted, Abs format (unit mm)*
G04 Created by KiCad (PCBNEW (6.0.11)) date 2024-01-05 14:59:19*
%MOMM*%
%LPD*%
G01*
G04 APERTURE LIST*
%ADD10C,0.300000*%
%ADD11C,0.000000*%
%ADD12C,0.600000*%
G04 APERTURE END LIST*
D10*
X166205000Y-111724761D02*
X166205000Y-109724761D01*
X165347857Y-111724761D02*
X165347857Y-110677142D01*
X165443095Y-110486666D01*
X165633571Y-110391428D01*
X165919285Y-110391428D01*
X166109761Y-110486666D01*
X166205000Y-110581904D01*
X164681190Y-110391428D02*
X163919285Y-110391428D01*
X164395476Y-109724761D02*
X164395476Y-111439047D01*
X164300238Y-111629523D01*
X164109761Y-111724761D01*
X163919285Y-111724761D01*
X163538333Y-110391428D02*
X162776428Y-110391428D01*
X163252619Y-109724761D02*
X163252619Y-111439047D01*
X163157380Y-111629523D01*
X162966904Y-111724761D01*
X162776428Y-111724761D01*
X162109761Y-110391428D02*
X162109761Y-112391428D01*
X162109761Y-110486666D02*
X161919285Y-110391428D01*
X161538333Y-110391428D01*
X161347857Y-110486666D01*
X161252619Y-110581904D01*
X161157380Y-110772380D01*
X161157380Y-111343809D01*
X161252619Y-111534285D01*
X161347857Y-111629523D01*
X161538333Y-111724761D01*
X161919285Y-111724761D01*
X162109761Y-111629523D01*
X160395476Y-111629523D02*
X160205000Y-111724761D01*
X159824047Y-111724761D01*
X159633571Y-111629523D01*
X159538333Y-111439047D01*
X159538333Y-111343809D01*
X159633571Y-111153333D01*
X159824047Y-111058095D01*
X160109761Y-111058095D01*
X160300238Y-110962857D01*
X160395476Y-110772380D01*
X160395476Y-110677142D01*
X160300238Y-110486666D01*
X160109761Y-110391428D01*
X159824047Y-110391428D01*
X159633571Y-110486666D01*
X158681190Y-111534285D02*
X158585952Y-111629523D01*
X158681190Y-111724761D01*
X158776428Y-111629523D01*
X158681190Y-111534285D01*
X158681190Y-111724761D01*
X158681190Y-110486666D02*
X158585952Y-110581904D01*
X158681190Y-110677142D01*
X158776428Y-110581904D01*
X158681190Y-110486666D01*
X158681190Y-110677142D01*
X156300238Y-109629523D02*
X158014523Y-112200952D01*
X154205000Y-109629523D02*
X155919285Y-112200952D01*
X152681190Y-110391428D02*
X152681190Y-112010476D01*
X152776428Y-112200952D01*
X152871666Y-112296190D01*
X153062142Y-112391428D01*
X153347857Y-112391428D01*
X153538333Y-112296190D01*
X152681190Y-111629523D02*
X152871666Y-111724761D01*
X153252619Y-111724761D01*
X153443095Y-111629523D01*
X153538333Y-111534285D01*
X153633571Y-111343809D01*
X153633571Y-110772380D01*
X153538333Y-110581904D01*
X153443095Y-110486666D01*
X153252619Y-110391428D01*
X152871666Y-110391428D01*
X152681190Y-110486666D01*
X151728809Y-111724761D02*
X151728809Y-110391428D01*
X151728809Y-109724761D02*
X151824047Y-109820000D01*
X151728809Y-109915238D01*
X151633571Y-109820000D01*
X151728809Y-109724761D01*
X151728809Y-109915238D01*
X151062142Y-110391428D02*
X150300238Y-110391428D01*
X150776428Y-109724761D02*
X150776428Y-111439047D01*
X150681190Y-111629523D01*
X150490714Y-111724761D01*
X150300238Y-111724761D01*
X149633571Y-111724761D02*
X149633571Y-109724761D01*
X148776428Y-111724761D02*
X148776428Y-110677142D01*
X148871666Y-110486666D01*
X149062142Y-110391428D01*
X149347857Y-110391428D01*
X149538333Y-110486666D01*
X149633571Y-110581904D01*
X146966904Y-110391428D02*
X146966904Y-111724761D01*
X147824047Y-110391428D02*
X147824047Y-111439047D01*
X147728809Y-111629523D01*
X147538333Y-111724761D01*
X147252619Y-111724761D01*
X147062142Y-111629523D01*
X146966904Y-111534285D01*
X146014523Y-111724761D02*
X146014523Y-109724761D01*
X146014523Y-110486666D02*
X145824047Y-110391428D01*
X145443095Y-110391428D01*
X145252619Y-110486666D01*
X145157380Y-110581904D01*
X145062142Y-110772380D01*
X145062142Y-111343809D01*
X145157380Y-111534285D01*
X145252619Y-111629523D01*
X145443095Y-111724761D01*
X145824047Y-111724761D01*
X146014523Y-111629523D01*
X144205000Y-111534285D02*
X144109761Y-111629523D01*
X144205000Y-111724761D01*
X144300238Y-111629523D01*
X144205000Y-111534285D01*
X144205000Y-111724761D01*
X142395476Y-111629523D02*
X142585952Y-111724761D01*
X142966904Y-111724761D01*
X143157380Y-111629523D01*
X143252619Y-111534285D01*
X143347857Y-111343809D01*
X143347857Y-110772380D01*
X143252619Y-110581904D01*
X143157380Y-110486666D01*
X142966904Y-110391428D01*
X142585952Y-110391428D01*
X142395476Y-110486666D01*
X141252619Y-111724761D02*
X141443095Y-111629523D01*
X141538333Y-111534285D01*
X141633571Y-111343809D01*
X141633571Y-110772380D01*
X141538333Y-110581904D01*
X141443095Y-110486666D01*
X141252619Y-110391428D01*
X140966904Y-110391428D01*
X140776428Y-110486666D01*
X140681190Y-110581904D01*
X140585952Y-110772380D01*
X140585952Y-111343809D01*
X140681190Y-111534285D01*
X140776428Y-111629523D01*
X140966904Y-111724761D01*
X141252619Y-111724761D01*
X139728809Y-111724761D02*
X139728809Y-110391428D01*
X139728809Y-110581904D02*
X139633571Y-110486666D01*
X139443095Y-110391428D01*
X139157380Y-110391428D01*
X138966904Y-110486666D01*
X138871666Y-110677142D01*
X138871666Y-111724761D01*
X138871666Y-110677142D02*
X138776428Y-110486666D01*
X138585952Y-110391428D01*
X138300238Y-110391428D01*
X138109761Y-110486666D01*
X138014523Y-110677142D01*
X138014523Y-111724761D01*
X135633571Y-109629523D02*
X137347857Y-112200952D01*
X134966904Y-111724761D02*
X134966904Y-110391428D01*
X134966904Y-110581904D02*
X134871666Y-110486666D01*
X134681190Y-110391428D01*
X134395476Y-110391428D01*
X134205000Y-110486666D01*
X134109761Y-110677142D01*
X134109761Y-111724761D01*
X134109761Y-110677142D02*
X134014523Y-110486666D01*
X133824047Y-110391428D01*
X133538333Y-110391428D01*
X133347857Y-110486666D01*
X133252619Y-110677142D01*
X133252619Y-111724761D01*
X131443095Y-111724761D02*
X131443095Y-110677142D01*
X131538333Y-110486666D01*
X131728809Y-110391428D01*
X132109761Y-110391428D01*
X132300238Y-110486666D01*
X131443095Y-111629523D02*
X131633571Y-111724761D01*
X132109761Y-111724761D01*
X132300238Y-111629523D01*
X132395476Y-111439047D01*
X132395476Y-111248571D01*
X132300238Y-111058095D01*
X132109761Y-110962857D01*
X131633571Y-110962857D01*
X131443095Y-110867619D01*
X130490714Y-111724761D02*
X130490714Y-110391428D01*
X130490714Y-110772380D02*
X130395476Y-110581904D01*
X130300238Y-110486666D01*
X130109761Y-110391428D01*
X129919285Y-110391428D01*
X129252619Y-111724761D02*
X129252619Y-110391428D01*
X129252619Y-110772380D02*
X129157380Y-110581904D01*
X129062142Y-110486666D01*
X128871666Y-110391428D01*
X128681190Y-110391428D01*
X127728809Y-111724761D02*
X127919285Y-111629523D01*
X128014523Y-111534285D01*
X128109761Y-111343809D01*
X128109761Y-110772380D01*
X128014523Y-110581904D01*
X127919285Y-110486666D01*
X127728809Y-110391428D01*
X127443095Y-110391428D01*
X127252619Y-110486666D01*
X127157380Y-110581904D01*
X127062142Y-110772380D01*
X127062142Y-111343809D01*
X127157380Y-111534285D01*
X127252619Y-111629523D01*
X127443095Y-111724761D01*
X127728809Y-111724761D01*
X125919285Y-111724761D02*
X126109761Y-111629523D01*
X126205000Y-111439047D01*
X126205000Y-109724761D01*
X124300238Y-111724761D02*
X124300238Y-109724761D01*
X124300238Y-111629523D02*
X124490714Y-111724761D01*
X124871666Y-111724761D01*
X125062142Y-111629523D01*
X125157380Y-111534285D01*
X125252619Y-111343809D01*
X125252619Y-110772380D01*
X125157380Y-110581904D01*
X125062142Y-110486666D01*
X124871666Y-110391428D01*
X124490714Y-110391428D01*
X124300238Y-110486666D01*
X121919285Y-109629523D02*
X123633571Y-112200952D01*
X159300238Y-113897142D02*
X159014523Y-113992380D01*
X158919285Y-114087619D01*
X158824047Y-114278095D01*
X158824047Y-114563809D01*
X158919285Y-114754285D01*
X159014523Y-114849523D01*
X159205000Y-114944761D01*
X159966904Y-114944761D01*
X159966904Y-112944761D01*
X159300238Y-112944761D01*
X159109761Y-113040000D01*
X159014523Y-113135238D01*
X158919285Y-113325714D01*
X158919285Y-113516190D01*
X159014523Y-113706666D01*
X159109761Y-113801904D01*
X159300238Y-113897142D01*
X159966904Y-113897142D01*
X157300238Y-113897142D02*
X157014523Y-113992380D01*
X156919285Y-114087619D01*
X156824047Y-114278095D01*
X156824047Y-114563809D01*
X156919285Y-114754285D01*
X157014523Y-114849523D01*
X157205000Y-114944761D01*
X157966904Y-114944761D01*
X157966904Y-112944761D01*
X157300238Y-112944761D01*
X157109761Y-113040000D01*
X157014523Y-113135238D01*
X156919285Y-113325714D01*
X156919285Y-113516190D01*
X157014523Y-113706666D01*
X157109761Y-113801904D01*
X157300238Y-113897142D01*
X157966904Y-113897142D01*
X154824047Y-114754285D02*
X154919285Y-114849523D01*
X155205000Y-114944761D01*
X155395476Y-114944761D01*
X155681190Y-114849523D01*
X155871666Y-114659047D01*
X155966904Y-114468571D01*
X156062142Y-114087619D01*
X156062142Y-113801904D01*
X155966904Y-113420952D01*
X155871666Y-113230476D01*
X155681190Y-113040000D01*
X155395476Y-112944761D01*
X155205000Y-112944761D01*
X154919285Y-113040000D01*
X154824047Y-113135238D01*
X154443095Y-115135238D02*
X152919285Y-115135238D01*
X152443095Y-113897142D02*
X151776428Y-113897142D01*
X151490714Y-114944761D02*
X152443095Y-114944761D01*
X152443095Y-112944761D01*
X151490714Y-112944761D01*
X149776428Y-114849523D02*
X149966904Y-114944761D01*
X150347857Y-114944761D01*
X150538333Y-114849523D01*
X150633571Y-114754285D01*
X150728809Y-114563809D01*
X150728809Y-113992380D01*
X150633571Y-113801904D01*
X150538333Y-113706666D01*
X150347857Y-113611428D01*
X149966904Y-113611428D01*
X149776428Y-113706666D01*
X148633571Y-114944761D02*
X148824047Y-114849523D01*
X148919285Y-114754285D01*
X149014523Y-114563809D01*
X149014523Y-113992380D01*
X148919285Y-113801904D01*
X148824047Y-113706666D01*
X148633571Y-113611428D01*
X148347857Y-113611428D01*
X148157380Y-113706666D01*
X148062142Y-113801904D01*
X147966904Y-113992380D01*
X147966904Y-114563809D01*
X148062142Y-114754285D01*
X148157380Y-114849523D01*
X148347857Y-114944761D01*
X148633571Y-114944761D01*
X147109761Y-113611428D02*
X147109761Y-114944761D01*
X147109761Y-113801904D02*
X147014523Y-113706666D01*
X146824047Y-113611428D01*
X146538333Y-113611428D01*
X146347857Y-113706666D01*
X146252619Y-113897142D01*
X146252619Y-114944761D01*
X144538333Y-114849523D02*
X144728809Y-114944761D01*
X145109761Y-114944761D01*
X145300238Y-114849523D01*
X145395476Y-114659047D01*
X145395476Y-113897142D01*
X145300238Y-113706666D01*
X145109761Y-113611428D01*
X144728809Y-113611428D01*
X144538333Y-113706666D01*
X144443095Y-113897142D01*
X144443095Y-114087619D01*
X145395476Y-114278095D01*
X143871666Y-113611428D02*
X143109761Y-113611428D01*
X143585952Y-112944761D02*
X143585952Y-114659047D01*
X143490714Y-114849523D01*
X143300238Y-114944761D01*
X143109761Y-114944761D01*
X142919285Y-115135238D02*
X141395476Y-115135238D01*
X140919285Y-114944761D02*
X140919285Y-112944761D01*
X139966904Y-114944761D02*
X139966904Y-112944761D01*
X139490714Y-112944761D01*
X139205000Y-113040000D01*
X139014523Y-113230476D01*
X138919285Y-113420952D01*
X138824047Y-113801904D01*
X138824047Y-114087619D01*
X138919285Y-114468571D01*
X139014523Y-114659047D01*
X139205000Y-114849523D01*
X139490714Y-114944761D01*
X139966904Y-114944761D01*
X138443095Y-115135238D02*
X136919285Y-115135238D01*
X136728809Y-112944761D02*
X135585952Y-112944761D01*
X136157380Y-114944761D02*
X136157380Y-112944761D01*
X134157380Y-114849523D02*
X134347857Y-114944761D01*
X134728809Y-114944761D01*
X134919285Y-114849523D01*
X135014523Y-114659047D01*
X135014523Y-113897142D01*
X134919285Y-113706666D01*
X134728809Y-113611428D01*
X134347857Y-113611428D01*
X134157380Y-113706666D01*
X134062142Y-113897142D01*
X134062142Y-114087619D01*
X135014523Y-114278095D01*
X133300238Y-114849523D02*
X133109761Y-114944761D01*
X132728809Y-114944761D01*
X132538333Y-114849523D01*
X132443095Y-114659047D01*
X132443095Y-114563809D01*
X132538333Y-114373333D01*
X132728809Y-114278095D01*
X133014523Y-114278095D01*
X133205000Y-114182857D01*
X133300238Y-113992380D01*
X133300238Y-113897142D01*
X133205000Y-113706666D01*
X133014523Y-113611428D01*
X132728809Y-113611428D01*
X132538333Y-113706666D01*
X131871666Y-113611428D02*
X131109761Y-113611428D01*
X131585952Y-112944761D02*
X131585952Y-114659047D01*
X131490714Y-114849523D01*
X131300238Y-114944761D01*
X131109761Y-114944761D01*
X129681190Y-114849523D02*
X129871666Y-114944761D01*
X130252619Y-114944761D01*
X130443095Y-114849523D01*
X130538333Y-114659047D01*
X130538333Y-113897142D01*
X130443095Y-113706666D01*
X130252619Y-113611428D01*
X129871666Y-113611428D01*
X129681190Y-113706666D01*
X129585952Y-113897142D01*
X129585952Y-114087619D01*
X130538333Y-114278095D01*
X128728809Y-114944761D02*
X128728809Y-113611428D01*
X128728809Y-113992380D02*
X128633571Y-113801904D01*
X128538333Y-113706666D01*
X128347857Y-113611428D01*
X128157380Y-113611428D01*
D11*
G36*
X153298736Y-95908407D02*
G01*
X153376965Y-95911010D01*
X153454686Y-95915718D01*
X153531755Y-95922477D01*
X153608022Y-95931232D01*
X153683344Y-95941931D01*
X153757572Y-95954518D01*
X153830561Y-95968941D01*
X153902163Y-95985145D01*
X153971983Y-96004571D01*
X154041430Y-96026205D01*
X154110307Y-96050096D01*
X154178417Y-96076289D01*
X154245563Y-96104832D01*
X154311546Y-96135772D01*
X154376170Y-96169155D01*
X154407911Y-96186778D01*
X154439237Y-96205029D01*
X154476508Y-96224182D01*
X154512894Y-96244562D01*
X154548466Y-96266070D01*
X154583295Y-96288608D01*
X154617453Y-96312077D01*
X154651010Y-96336379D01*
X154684037Y-96361415D01*
X154716604Y-96387088D01*
X154780646Y-96439947D01*
X154843702Y-96494170D01*
X154969127Y-96603558D01*
X155011359Y-96650268D01*
X155052349Y-96698438D01*
X155092171Y-96747851D01*
X155130899Y-96798287D01*
X155168607Y-96849530D01*
X155205368Y-96901360D01*
X155241255Y-96953559D01*
X155276343Y-97005911D01*
X155304746Y-97057677D01*
X155331749Y-97110090D01*
X155357380Y-97163119D01*
X155381666Y-97216730D01*
X155404634Y-97270889D01*
X155426310Y-97325564D01*
X155446721Y-97380721D01*
X155465894Y-97436328D01*
X155483856Y-97492352D01*
X155500634Y-97548759D01*
X155516253Y-97605516D01*
X155530742Y-97662591D01*
X155556435Y-97777560D01*
X155577926Y-97893402D01*
X155588185Y-99200562D01*
X155594050Y-100508178D01*
X155596375Y-101005044D01*
X155597098Y-101157907D01*
X155595307Y-101190207D01*
X155594765Y-101222733D01*
X155596262Y-101288252D01*
X155599251Y-101354041D01*
X155601393Y-101419678D01*
X155601416Y-101452307D01*
X155600350Y-101484739D01*
X155597903Y-101516921D01*
X155593783Y-101548801D01*
X155587698Y-101580326D01*
X155579354Y-101611443D01*
X155568460Y-101642099D01*
X155561966Y-101657237D01*
X155554724Y-101672241D01*
X150332718Y-101683868D01*
X150332718Y-102765765D01*
X163648287Y-102765765D01*
X163648287Y-101484552D01*
X161438034Y-101499383D01*
X161412558Y-101473959D01*
X161387081Y-101448483D01*
X161386719Y-100941329D01*
X161386410Y-100458361D01*
X161385893Y-99666162D01*
X161384652Y-97883844D01*
X161380789Y-97842320D01*
X161379743Y-97833244D01*
X161378482Y-97824506D01*
X161376914Y-97816012D01*
X161374949Y-97807672D01*
X161372495Y-97799392D01*
X161369461Y-97791080D01*
X161365756Y-97782645D01*
X161361287Y-97773993D01*
X161355965Y-97765032D01*
X161349696Y-97755670D01*
X161342391Y-97745816D01*
X161333958Y-97735375D01*
X158188362Y-97735375D01*
X158182936Y-99621511D01*
X158180455Y-100485955D01*
X158179060Y-100976623D01*
X158177510Y-101507650D01*
X158151051Y-101524392D01*
X158124592Y-101541137D01*
X157868484Y-101541448D01*
X157612376Y-101541809D01*
X157586848Y-101516384D01*
X157561371Y-101490908D01*
X157561371Y-97176907D01*
X157574239Y-97143368D01*
X157587158Y-97109832D01*
X159524301Y-97110763D01*
X161461444Y-97111691D01*
X161540973Y-97140011D01*
X161620452Y-97168276D01*
X161671612Y-97201715D01*
X161676730Y-97204369D01*
X161681715Y-97207150D01*
X161691309Y-97213074D01*
X161700437Y-97219448D01*
X161709144Y-97226236D01*
X161717473Y-97233398D01*
X161725467Y-97240899D01*
X161733171Y-97248699D01*
X161740628Y-97256762D01*
X161747883Y-97265050D01*
X161754979Y-97273525D01*
X161768869Y-97290887D01*
X161782649Y-97308546D01*
X161796669Y-97326202D01*
X161870617Y-97417254D01*
X161903226Y-97481491D01*
X161935885Y-97545724D01*
X161972575Y-97672381D01*
X162009317Y-97798989D01*
X162018981Y-99341735D01*
X162025957Y-100452883D01*
X162028644Y-100884432D01*
X164190476Y-100910479D01*
X164190476Y-103342785D01*
X149790477Y-103342785D01*
X149790477Y-101068917D01*
X154947939Y-101046853D01*
X154948094Y-101012179D01*
X154950265Y-100513708D01*
X154960962Y-98066259D01*
X154951378Y-97980416D01*
X154938605Y-97894720D01*
X154922406Y-97809489D01*
X154912949Y-97767147D01*
X154902545Y-97725040D01*
X154891168Y-97683209D01*
X154878786Y-97641693D01*
X154865370Y-97600532D01*
X154850890Y-97559766D01*
X154835318Y-97519434D01*
X154818623Y-97479576D01*
X154800777Y-97440233D01*
X154781748Y-97401443D01*
X154765801Y-97371160D01*
X154749013Y-97341510D01*
X154731430Y-97312460D01*
X154713095Y-97283974D01*
X154694054Y-97256021D01*
X154674352Y-97228566D01*
X154654033Y-97201574D01*
X154633142Y-97175014D01*
X154611725Y-97148850D01*
X154589825Y-97123049D01*
X154544758Y-97072400D01*
X154498301Y-97022799D01*
X154450812Y-96973974D01*
X154412874Y-96941588D01*
X154374136Y-96909939D01*
X154334609Y-96879112D01*
X154294301Y-96849195D01*
X154253225Y-96820274D01*
X154211390Y-96792436D01*
X154168807Y-96765768D01*
X154125486Y-96740356D01*
X154081437Y-96716288D01*
X154036671Y-96693649D01*
X153991199Y-96672528D01*
X153945029Y-96653009D01*
X153898174Y-96635181D01*
X153850642Y-96619130D01*
X153802445Y-96604943D01*
X153753593Y-96592706D01*
X153683042Y-96573089D01*
X153612335Y-96557254D01*
X153541550Y-96545019D01*
X153470763Y-96536204D01*
X153400051Y-96530628D01*
X153329491Y-96528110D01*
X153259160Y-96528471D01*
X153189133Y-96531529D01*
X153119489Y-96537103D01*
X153050303Y-96545013D01*
X152981652Y-96555079D01*
X152913613Y-96567119D01*
X152846263Y-96580953D01*
X152779679Y-96596400D01*
X152649113Y-96631411D01*
X152598153Y-96651426D01*
X152547404Y-96672981D01*
X152497101Y-96696126D01*
X152447482Y-96720906D01*
X152398781Y-96747371D01*
X152351236Y-96775567D01*
X152327971Y-96790329D01*
X152305084Y-96805542D01*
X152282603Y-96821212D01*
X152260559Y-96837344D01*
X152222895Y-96866047D01*
X152186325Y-96895938D01*
X152150848Y-96926972D01*
X152116459Y-96959108D01*
X152083159Y-96992303D01*
X152050943Y-97026514D01*
X152019810Y-97061698D01*
X151989758Y-97097814D01*
X151960784Y-97134818D01*
X151932887Y-97172668D01*
X151906063Y-97211320D01*
X151880312Y-97250733D01*
X151855629Y-97290864D01*
X151832014Y-97331670D01*
X151809464Y-97373108D01*
X151787977Y-97415136D01*
X151744763Y-97530680D01*
X151723414Y-97589008D01*
X151703385Y-97647809D01*
X151694134Y-97677411D01*
X151685535Y-97707159D01*
X151677697Y-97737064D01*
X151670726Y-97767135D01*
X151664730Y-97797381D01*
X151659817Y-97827812D01*
X151656094Y-97858437D01*
X151653670Y-97889266D01*
X151644764Y-97956439D01*
X151637592Y-98023678D01*
X151627829Y-98158332D01*
X151623140Y-98293181D01*
X151622283Y-98428178D01*
X151632329Y-98968685D01*
X153068002Y-98978091D01*
X153087105Y-98980584D01*
X153106716Y-98981684D01*
X153126725Y-98981690D01*
X153147026Y-98980898D01*
X153228975Y-98975678D01*
X153249108Y-98975344D01*
X153268881Y-98975991D01*
X153288188Y-98977917D01*
X153306919Y-98981418D01*
X153316035Y-98983852D01*
X153324967Y-98986790D01*
X153333701Y-98990271D01*
X153342223Y-98994331D01*
X153350521Y-98999007D01*
X153358579Y-99004337D01*
X153366386Y-99010357D01*
X153373927Y-99017105D01*
X153378492Y-99035010D01*
X153381987Y-99053417D01*
X153384533Y-99072270D01*
X153386250Y-99091510D01*
X153387256Y-99111084D01*
X153387673Y-99130934D01*
X153387217Y-99171239D01*
X153384497Y-99252694D01*
X153384151Y-99292946D01*
X153384652Y-99312756D01*
X153385760Y-99332281D01*
X153383704Y-99349409D01*
X153383035Y-99367187D01*
X153383410Y-99385454D01*
X153384490Y-99404050D01*
X153387390Y-99441589D01*
X153388527Y-99460211D01*
X153389000Y-99478523D01*
X153388466Y-99496363D01*
X153386584Y-99513571D01*
X153385031Y-99521888D01*
X153383012Y-99529987D01*
X153380486Y-99537849D01*
X153377408Y-99545452D01*
X153373737Y-99552777D01*
X153369430Y-99559804D01*
X153364444Y-99566514D01*
X153358736Y-99572885D01*
X153352263Y-99578898D01*
X153344984Y-99584533D01*
X153336854Y-99589770D01*
X153327832Y-99594589D01*
X151015930Y-99583636D01*
X151015930Y-97911901D01*
X151026098Y-97835233D01*
X151038760Y-97758729D01*
X151053817Y-97682494D01*
X151071170Y-97606634D01*
X151090720Y-97531253D01*
X151112366Y-97456458D01*
X151136011Y-97382354D01*
X151161555Y-97309045D01*
X151204654Y-97208226D01*
X151251213Y-97108408D01*
X151275941Y-97059105D01*
X151301717Y-97010330D01*
X151328602Y-96962174D01*
X151356655Y-96914731D01*
X151385938Y-96868093D01*
X151416512Y-96822353D01*
X151448438Y-96777602D01*
X151481776Y-96733933D01*
X151516587Y-96691440D01*
X151552933Y-96650213D01*
X151590873Y-96610347D01*
X151630469Y-96571933D01*
X151653660Y-96546312D01*
X151677291Y-96521223D01*
X151701358Y-96496661D01*
X151725860Y-96472623D01*
X151750794Y-96449108D01*
X151776157Y-96426112D01*
X151801949Y-96403633D01*
X151828165Y-96381667D01*
X151854804Y-96360212D01*
X151881864Y-96339265D01*
X151909342Y-96318824D01*
X151937236Y-96298885D01*
X151965543Y-96279446D01*
X151994262Y-96260504D01*
X152023389Y-96242056D01*
X152052923Y-96224099D01*
X152126566Y-96183870D01*
X152201009Y-96144797D01*
X152276390Y-96107508D01*
X152352850Y-96072635D01*
X152391528Y-96056301D01*
X152430528Y-96040808D01*
X152469867Y-96026233D01*
X152509563Y-96012656D01*
X152549634Y-96000156D01*
X152590096Y-95988811D01*
X152630967Y-95978701D01*
X152672265Y-95969903D01*
X152749268Y-95953700D01*
X152826937Y-95940039D01*
X152905126Y-95928867D01*
X152983689Y-95920128D01*
X153062478Y-95913768D01*
X153141346Y-95909731D01*
X153220148Y-95907962D01*
X153298736Y-95908407D01*
G37*
G36*
X164190476Y-100434280D02*
G01*
X163325204Y-100439342D01*
X162459936Y-100440069D01*
X162447843Y-99048837D01*
X162435234Y-97692999D01*
X162389397Y-97502160D01*
X162343509Y-97311267D01*
X162279533Y-97181094D01*
X162215558Y-97050817D01*
X162132669Y-96968081D01*
X162049780Y-96885400D01*
X161943171Y-96827523D01*
X161836563Y-96769645D01*
X161507797Y-96685723D01*
X157200050Y-96685723D01*
X157200050Y-101490908D01*
X157174522Y-101516384D01*
X157149045Y-101541809D01*
X156634658Y-101541809D01*
X156609181Y-101516384D01*
X156583705Y-101490908D01*
X156583705Y-96097180D01*
X156613264Y-96072688D01*
X156642824Y-96048243D01*
X159126547Y-96055064D01*
X161610220Y-96061886D01*
X161774603Y-96107981D01*
X161938986Y-96154075D01*
X162099751Y-96220843D01*
X162141074Y-96236986D01*
X162182080Y-96254952D01*
X162222663Y-96274620D01*
X162262721Y-96295865D01*
X162302149Y-96318565D01*
X162340845Y-96342596D01*
X162378704Y-96367836D01*
X162415623Y-96394162D01*
X162451497Y-96421450D01*
X162486224Y-96449578D01*
X162519700Y-96478423D01*
X162551820Y-96507861D01*
X162582482Y-96537769D01*
X162611581Y-96568025D01*
X162639014Y-96598505D01*
X162664678Y-96629086D01*
X162678363Y-96643154D01*
X162691358Y-96657518D01*
X162703711Y-96672167D01*
X162715473Y-96687090D01*
X162726691Y-96702277D01*
X162737416Y-96717716D01*
X162747697Y-96733395D01*
X162757583Y-96749305D01*
X162767124Y-96765434D01*
X162776369Y-96781771D01*
X162794169Y-96815024D01*
X162811377Y-96848977D01*
X162828389Y-96883541D01*
X162892519Y-97014385D01*
X162937478Y-97152258D01*
X162982540Y-97290078D01*
X163017525Y-97470327D01*
X163052509Y-97650573D01*
X163064653Y-98721466D01*
X163076745Y-99792355D01*
X163648287Y-99793957D01*
X163648287Y-94824234D01*
X150332718Y-94824234D01*
X150332718Y-99923202D01*
X153940713Y-99912606D01*
X153928674Y-98088687D01*
X153930602Y-98076743D01*
X153932005Y-98064914D01*
X153932902Y-98053195D01*
X153933314Y-98041582D01*
X153932770Y-98018654D01*
X153930537Y-97996095D01*
X153926783Y-97973867D01*
X153921674Y-97951935D01*
X153915376Y-97930262D01*
X153908056Y-97908813D01*
X153899880Y-97887551D01*
X153891014Y-97866439D01*
X153871880Y-97824523D01*
X153851984Y-97782775D01*
X153832658Y-97740905D01*
X153794884Y-97701687D01*
X153756129Y-97662575D01*
X153736251Y-97643394D01*
X153715971Y-97624642D01*
X153695235Y-97606453D01*
X153673991Y-97588962D01*
X153652186Y-97572301D01*
X153629768Y-97556606D01*
X153606685Y-97542011D01*
X153582884Y-97528649D01*
X153558313Y-97516655D01*
X153545721Y-97511213D01*
X153532918Y-97506163D01*
X153519895Y-97501522D01*
X153506648Y-97497307D01*
X153493168Y-97493535D01*
X153479449Y-97490222D01*
X153458364Y-97481958D01*
X153436085Y-97474695D01*
X153388360Y-97463113D01*
X153337095Y-97455361D01*
X153283113Y-97451326D01*
X153227234Y-97450891D01*
X153170281Y-97453942D01*
X153113076Y-97460365D01*
X153056440Y-97470044D01*
X153001194Y-97482865D01*
X152948161Y-97498713D01*
X152898163Y-97517472D01*
X152852020Y-97539030D01*
X152810555Y-97563270D01*
X152791833Y-97576360D01*
X152774589Y-97590077D01*
X152758925Y-97604408D01*
X152744944Y-97619338D01*
X152732749Y-97634852D01*
X152722442Y-97650936D01*
X152713708Y-97659854D01*
X152705803Y-97669026D01*
X152698691Y-97678441D01*
X152692331Y-97688087D01*
X152686686Y-97697952D01*
X152681716Y-97708024D01*
X152677384Y-97718291D01*
X152673650Y-97728742D01*
X152670476Y-97739365D01*
X152667823Y-97750147D01*
X152663926Y-97772144D01*
X152661650Y-97794638D01*
X152660687Y-97817535D01*
X152660726Y-97840739D01*
X152661459Y-97864156D01*
X152663770Y-97911252D01*
X152664730Y-97934740D01*
X152665147Y-97958063D01*
X152664712Y-97981125D01*
X152663116Y-98003833D01*
X153338684Y-98003833D01*
X153343133Y-98013609D01*
X153347113Y-98023473D01*
X153353755Y-98043444D01*
X153358801Y-98063710D01*
X153362436Y-98084237D01*
X153364850Y-98104989D01*
X153366230Y-98125932D01*
X153366764Y-98147032D01*
X153366640Y-98168254D01*
X153363325Y-98253660D01*
X153362731Y-98274968D01*
X153362607Y-98296189D01*
X153363142Y-98317289D01*
X153364522Y-98338232D01*
X153362297Y-98356166D01*
X153361497Y-98374690D01*
X153361789Y-98393665D01*
X153362839Y-98412954D01*
X153365885Y-98451925D01*
X153367215Y-98471331D01*
X153367973Y-98490501D01*
X153367826Y-98509297D01*
X153366442Y-98527581D01*
X153365182Y-98536488D01*
X153363487Y-98545216D01*
X153361317Y-98553747D01*
X153358630Y-98562065D01*
X153355384Y-98570151D01*
X153351537Y-98577989D01*
X153347048Y-98585561D01*
X153341875Y-98592851D01*
X153335977Y-98599840D01*
X153329313Y-98606513D01*
X153321839Y-98612851D01*
X153313516Y-98618838D01*
X152253686Y-98618838D01*
X152238218Y-98617321D01*
X152222028Y-98617004D01*
X152205317Y-98617551D01*
X152188289Y-98618627D01*
X152154088Y-98621017D01*
X152137319Y-98621659D01*
X152121041Y-98621484D01*
X152105455Y-98620155D01*
X152097985Y-98618953D01*
X152090763Y-98617337D01*
X152083816Y-98615264D01*
X152077169Y-98612693D01*
X152070846Y-98609581D01*
X152064873Y-98605886D01*
X152059275Y-98601567D01*
X152054077Y-98596581D01*
X152049305Y-98590886D01*
X152044985Y-98584441D01*
X152041140Y-98577203D01*
X152037797Y-98569130D01*
X152034981Y-98560180D01*
X152032716Y-98550311D01*
X152027718Y-98481045D01*
X152025095Y-98411185D01*
X152024245Y-98340880D01*
X152024567Y-98270281D01*
X152026318Y-98128807D01*
X152026544Y-98058233D01*
X152025534Y-97987969D01*
X152023799Y-97959205D01*
X152022772Y-97930530D01*
X152022454Y-97901946D01*
X152022845Y-97873451D01*
X152023944Y-97845048D01*
X152025752Y-97816735D01*
X152028269Y-97788512D01*
X152031495Y-97760380D01*
X152035430Y-97732338D01*
X152040074Y-97704387D01*
X152045428Y-97676528D01*
X152051492Y-97648758D01*
X152058265Y-97621080D01*
X152065747Y-97593493D01*
X152073940Y-97565997D01*
X152082843Y-97538592D01*
X152127874Y-97439635D01*
X152151507Y-97389992D01*
X152163985Y-97365517D01*
X152177051Y-97341420D01*
X152190814Y-97317813D01*
X152205383Y-97294806D01*
X152220867Y-97272509D01*
X152237377Y-97251034D01*
X152255020Y-97230492D01*
X152273908Y-97210992D01*
X152294148Y-97192646D01*
X152315851Y-97175564D01*
X152358261Y-97135592D01*
X152403058Y-97098492D01*
X152450075Y-97064215D01*
X152499142Y-97032713D01*
X152550092Y-97003937D01*
X152602755Y-96977838D01*
X152656962Y-96954368D01*
X152712547Y-96933477D01*
X152769339Y-96915117D01*
X152827170Y-96899239D01*
X152945277Y-96874735D01*
X153065520Y-96859574D01*
X153186549Y-96853367D01*
X153307017Y-96855724D01*
X153425575Y-96866254D01*
X153540876Y-96884567D01*
X153651571Y-96910275D01*
X153756312Y-96942985D01*
X153853751Y-96982309D01*
X153942539Y-97027857D01*
X153983268Y-97052843D01*
X154021329Y-97079238D01*
X154035553Y-97086689D01*
X154049433Y-97094533D01*
X154076209Y-97111340D01*
X154101763Y-97129531D01*
X154126199Y-97148982D01*
X154149619Y-97169567D01*
X154172130Y-97191159D01*
X154193836Y-97213634D01*
X154214840Y-97236864D01*
X154235247Y-97260725D01*
X154255161Y-97285090D01*
X154293930Y-97334831D01*
X154370145Y-97434826D01*
X154388831Y-97463309D01*
X154405954Y-97492408D01*
X154421639Y-97522074D01*
X154436009Y-97552258D01*
X154449190Y-97582911D01*
X154461306Y-97613985D01*
X154472481Y-97645429D01*
X154482839Y-97677194D01*
X154501602Y-97741495D01*
X154518590Y-97806495D01*
X154551220Y-97937017D01*
X154552559Y-98581564D01*
X154550100Y-99226581D01*
X154544088Y-100516757D01*
X153232848Y-100524861D01*
X151709326Y-100541558D01*
X150684566Y-100552312D01*
X149790477Y-100558044D01*
X149790477Y-94247216D01*
X164190476Y-94247216D01*
X164190476Y-100434280D01*
G37*
G36*
X160288698Y-97937429D02*
G01*
X160526307Y-97938052D01*
X160563514Y-97959701D01*
X160563514Y-97959753D01*
X160600669Y-97981304D01*
X160600669Y-101516024D01*
X160567080Y-101528939D01*
X160533438Y-101541757D01*
X160035329Y-101541757D01*
X160009801Y-101516333D01*
X159984324Y-101490908D01*
X159984324Y-98003472D01*
X160017708Y-97970141D01*
X160051091Y-97936810D01*
X160288698Y-97937429D01*
G37*
G36*
X159318731Y-97937429D02*
G01*
X159548588Y-97938052D01*
X159585795Y-97959753D01*
X159623002Y-97981304D01*
X159623002Y-101490908D01*
X159597474Y-101516333D01*
X159571998Y-101541757D01*
X159057663Y-101541757D01*
X159032135Y-101516333D01*
X159006659Y-101490908D01*
X159006659Y-97980734D01*
X159047741Y-97958773D01*
X159088823Y-97936810D01*
X159318731Y-97937429D01*
G37*
D12*
X146669524Y-95990428D02*
X145602857Y-95990428D01*
X145145715Y-97666619D02*
X146669524Y-97666619D01*
X146669524Y-94466619D01*
X145145715Y-94466619D01*
X142402857Y-97514238D02*
X142707619Y-97666619D01*
X143317143Y-97666619D01*
X143621905Y-97514238D01*
X143774286Y-97361857D01*
X143926667Y-97057095D01*
X143926667Y-96142809D01*
X143774286Y-95838047D01*
X143621905Y-95685666D01*
X143317143Y-95533285D01*
X142707619Y-95533285D01*
X142402857Y-95685666D01*
X140574286Y-97666619D02*
X140879048Y-97514238D01*
X141031429Y-97361857D01*
X141183810Y-97057095D01*
X141183810Y-96142809D01*
X141031429Y-95838047D01*
X140879048Y-95685666D01*
X140574286Y-95533285D01*
X140117143Y-95533285D01*
X139812381Y-95685666D01*
X139660000Y-95838047D01*
X139507619Y-96142809D01*
X139507619Y-97057095D01*
X139660000Y-97361857D01*
X139812381Y-97514238D01*
X140117143Y-97666619D01*
X140574286Y-97666619D01*
X138136191Y-95533285D02*
X138136191Y-97666619D01*
X138136191Y-95838047D02*
X137983810Y-95685666D01*
X137679048Y-95533285D01*
X137221905Y-95533285D01*
X136917143Y-95685666D01*
X136764762Y-95990428D01*
X136764762Y-97666619D01*
X134021905Y-97514238D02*
X134326667Y-97666619D01*
X134936191Y-97666619D01*
X135240953Y-97514238D01*
X135393334Y-97209476D01*
X135393334Y-95990428D01*
X135240953Y-95685666D01*
X134936191Y-95533285D01*
X134326667Y-95533285D01*
X134021905Y-95685666D01*
X133869524Y-95990428D01*
X133869524Y-96295190D01*
X135393334Y-96599952D01*
X132955238Y-95533285D02*
X131736191Y-95533285D01*
X132498096Y-94466619D02*
X132498096Y-97209476D01*
X132345715Y-97514238D01*
X132040953Y-97666619D01*
X131736191Y-97666619D01*
X128231429Y-97666619D02*
X128231429Y-94466619D01*
X126707619Y-97666619D02*
X126707619Y-94466619D01*
X125945715Y-94466619D01*
X125488572Y-94619000D01*
X125183810Y-94923761D01*
X125031429Y-95228523D01*
X124879048Y-95838047D01*
X124879048Y-96295190D01*
X125031429Y-96904714D01*
X125183810Y-97209476D01*
X125488572Y-97514238D01*
X125945715Y-97666619D01*
X126707619Y-97666619D01*
X142707619Y-99618619D02*
X140879048Y-99618619D01*
X141793334Y-102818619D02*
X141793334Y-99618619D01*
X138593334Y-102666238D02*
X138898096Y-102818619D01*
X139507619Y-102818619D01*
X139812381Y-102666238D01*
X139964762Y-102361476D01*
X139964762Y-101142428D01*
X139812381Y-100837666D01*
X139507619Y-100685285D01*
X138898096Y-100685285D01*
X138593334Y-100837666D01*
X138440953Y-101142428D01*
X138440953Y-101447190D01*
X139964762Y-101751952D01*
X137221905Y-102666238D02*
X136917143Y-102818619D01*
X136307619Y-102818619D01*
X136002857Y-102666238D01*
X135850477Y-102361476D01*
X135850477Y-102209095D01*
X136002857Y-101904333D01*
X136307619Y-101751952D01*
X136764762Y-101751952D01*
X137069524Y-101599571D01*
X137221905Y-101294809D01*
X137221905Y-101142428D01*
X137069524Y-100837666D01*
X136764762Y-100685285D01*
X136307619Y-100685285D01*
X136002857Y-100837666D01*
X134936191Y-100685285D02*
X133717143Y-100685285D01*
X134479048Y-99618619D02*
X134479048Y-102361476D01*
X134326667Y-102666238D01*
X134021905Y-102818619D01*
X133717143Y-102818619D01*
X131431429Y-102666238D02*
X131736191Y-102818619D01*
X132345715Y-102818619D01*
X132650477Y-102666238D01*
X132802857Y-102361476D01*
X132802857Y-101142428D01*
X132650477Y-100837666D01*
X132345715Y-100685285D01*
X131736191Y-100685285D01*
X131431429Y-100837666D01*
X131279048Y-101142428D01*
X131279048Y-101447190D01*
X132802857Y-101751952D01*
X129907619Y-102818619D02*
X129907619Y-100685285D01*
X129907619Y-101294809D02*
X129755238Y-100990047D01*
X129602857Y-100837666D01*
X129298096Y-100685285D01*
X128993334Y-100685285D01*
M02*
