M48
; DRILL file {KiCad (6.0.11)} date Fri Jan  5 14:55:55 2024
; FORMAT={-:-/ absolute / metric / decimal}
; #@! TF.CreationDate,2024-01-05T14:55:55+00:00
; #@! TF.GenerationSoftware,Kicad,Pcbnew,(6.0.11)
; #@! TF.FileFunction,Plated,1,2,PTH
FMAT,2
METRIC
; #@! TA.AperFunction,Plated,PTH,ViaDrill
T1C0.400
; #@! TA.AperFunction,Plated,PTH,ComponentDrill
T2C1.000
; #@! TA.AperFunction,Plated,PTH,ComponentDrill
T3C1.016
%
G90
G05
T1
X192.06Y-67.76
T2
X190.7Y-85.49
X190.7Y-88.03
X193.24Y-85.49
X193.24Y-88.03
X195.78Y-85.49
X195.78Y-88.03
X198.32Y-85.49
X198.32Y-88.03
X200.86Y-85.49
X200.86Y-88.03
X203.4Y-85.49
X203.4Y-88.03
X205.94Y-85.49
X205.94Y-88.03
X208.48Y-85.49
X208.48Y-88.03
T3
X175.45Y-72.78
X175.45Y-75.32
X175.45Y-77.86
X175.45Y-85.48
X175.45Y-88.02
X223.71Y-73.796
X223.71Y-76.336
X223.71Y-80.4
X223.71Y-82.94
X223.71Y-85.48
X223.71Y-88.02
X223.71Y-90.56
X223.71Y-93.1
T2
X219.85Y-60.09G85X220.85Y-60.09
G05
X219.85Y-62.63G85X220.85Y-62.63
G05
X219.85Y-65.17G85X220.85Y-65.17
G05
X219.85Y-67.71G85X220.85Y-67.71
G05
T0
M30
