%TF.GenerationSoftware,KiCad,Pcbnew,(6.0.11)*%
%TF.CreationDate,2024-01-05T14:55:53+00:00*%
%TF.ProjectId,EcoIDTester,45636f49-4454-4657-9374-65722e6b6963,rev?*%
%TF.SameCoordinates,Original*%
%TF.FileFunction,Copper,L1,Top*%
%TF.FilePolarity,Positive*%
%FSLAX46Y46*%
G04 Gerber Fmt 4.6, Leading zero omitted, Abs format (unit mm)*
G04 Created by KiCad (PCBNEW (6.0.11)) date 2024-01-05 14:55:53*
%MOMM*%
%LPD*%
G01*
G04 APERTURE LIST*
%TA.AperFunction,ComponentPad*%
%ADD10R,1.700000X1.700000*%
%TD*%
%TA.AperFunction,ComponentPad*%
%ADD11O,1.700000X1.700000*%
%TD*%
%TA.AperFunction,ComponentPad*%
%ADD12O,3.000000X2.000000*%
%TD*%
%TA.AperFunction,ComponentPad*%
%ADD13O,1.727200X1.727200*%
%TD*%
%TA.AperFunction,ComponentPad*%
%ADD14R,1.727200X1.727200*%
%TD*%
%TA.AperFunction,ViaPad*%
%ADD15C,0.800000*%
%TD*%
%TA.AperFunction,Conductor*%
%ADD16C,0.400000*%
%TD*%
G04 APERTURE END LIST*
D10*
%TO.P,J1,1,Pin_1*%
%TO.N,/D9*%
X190700000Y-85490000D03*
D11*
%TO.P,J1,2,Pin_2*%
%TO.N,GND*%
X190700000Y-88030000D03*
%TO.P,J1,3,Pin_3*%
%TO.N,/D8*%
X193240000Y-85490000D03*
%TO.P,J1,4,Pin_4*%
%TO.N,GND*%
X193240000Y-88030000D03*
%TO.P,J1,5,Pin_5*%
%TO.N,/D7*%
X195780000Y-85490000D03*
%TO.P,J1,6,Pin_6*%
%TO.N,GND*%
X195780000Y-88030000D03*
%TO.P,J1,7,Pin_7*%
%TO.N,/D6*%
X198320000Y-85490000D03*
%TO.P,J1,8,Pin_8*%
%TO.N,GND*%
X198320000Y-88030000D03*
%TO.P,J1,9,Pin_9*%
%TO.N,/D5*%
X200860000Y-85490000D03*
%TO.P,J1,10,Pin_10*%
%TO.N,GND*%
X200860000Y-88030000D03*
%TO.P,J1,11,Pin_11*%
%TO.N,/D4*%
X203400000Y-85490000D03*
%TO.P,J1,12,Pin_12*%
%TO.N,GND*%
X203400000Y-88030000D03*
%TO.P,J1,13,Pin_13*%
%TO.N,/D3*%
X205940000Y-85490000D03*
%TO.P,J1,14,Pin_14*%
%TO.N,GND*%
X205940000Y-88030000D03*
%TO.P,J1,15,Pin_15*%
%TO.N,/D2*%
X208480000Y-85490000D03*
%TO.P,J1,16,Pin_16*%
%TO.N,GND*%
X208480000Y-88030000D03*
%TD*%
D12*
%TO.P,J2,1,Pin_1*%
%TO.N,/CLK*%
X220350000Y-60090000D03*
%TO.P,J2,2,Pin_2*%
%TO.N,/DIO*%
X220350000Y-62630000D03*
%TO.P,J2,3,Pin_3*%
%TO.N,GND*%
X220350000Y-65170000D03*
%TO.P,J2,4,Pin_4*%
%TO.N,+5V*%
X220350000Y-67710000D03*
%TD*%
D13*
%TO.P,A1,5V1,5V*%
%TO.N,+5V*%
X175450000Y-72780000D03*
%TO.P,A1,A0,A0*%
%TO.N,/CLK*%
X175450000Y-85480000D03*
%TO.P,A1,A1,A1*%
%TO.N,/DIO*%
X175450000Y-88020000D03*
%TO.P,A1,D2,D2_INT0*%
%TO.N,/D2*%
X223710000Y-93100000D03*
%TO.P,A1,D3,D3_INT1*%
%TO.N,/D3*%
X223710000Y-90560000D03*
%TO.P,A1,D4,D4*%
%TO.N,/D4*%
X223710000Y-88020000D03*
%TO.P,A1,D5,D5*%
%TO.N,/D5*%
X223710000Y-85480000D03*
%TO.P,A1,D6,D6*%
%TO.N,/D6*%
X223710000Y-82940000D03*
%TO.P,A1,D7,D7*%
%TO.N,/D7*%
X223710000Y-80400000D03*
%TO.P,A1,D8,D8*%
%TO.N,/D8*%
X223710000Y-76336000D03*
%TO.P,A1,D9,D9*%
%TO.N,/D9*%
X223710000Y-73796000D03*
D14*
%TO.P,A1,GND2,GND*%
%TO.N,GND*%
X175450000Y-75320000D03*
%TO.P,A1,GND3,GND*%
X175450000Y-77860000D03*
%TD*%
D15*
%TO.N,+5V*%
X192060000Y-67760000D03*
%TD*%
D16*
%TO.N,+5V*%
X220350000Y-67710000D02*
X192110000Y-67710000D01*
X192110000Y-67710000D02*
X192060000Y-67760000D01*
%TD*%
M02*
