%TF.GenerationSoftware,KiCad,Pcbnew,(6.0.11)*%
%TF.CreationDate,2024-01-05T14:55:53+00:00*%
%TF.ProjectId,EcoIDTester,45636f49-4454-4657-9374-65722e6b6963,rev?*%
%TF.SameCoordinates,Original*%
%TF.FileFunction,Soldermask,Bot*%
%TF.FilePolarity,Negative*%
%FSLAX46Y46*%
G04 Gerber Fmt 4.6, Leading zero omitted, Abs format (unit mm)*
G04 Created by KiCad (PCBNEW (6.0.11)) date 2024-01-05 14:55:53*
%MOMM*%
%LPD*%
G01*
G04 APERTURE LIST*
%ADD10R,1.700000X1.700000*%
%ADD11O,1.700000X1.700000*%
%ADD12C,5.800000*%
%ADD13O,3.000000X2.000000*%
%ADD14C,3.200000*%
%ADD15O,1.727200X1.727200*%
%ADD16R,1.727200X1.727200*%
G04 APERTURE END LIST*
D10*
%TO.C,J1*%
X190700000Y-85490000D03*
D11*
X190700000Y-88030000D03*
X193240000Y-85490000D03*
X193240000Y-88030000D03*
X195780000Y-85490000D03*
X195780000Y-88030000D03*
X198320000Y-85490000D03*
X198320000Y-88030000D03*
X200860000Y-85490000D03*
X200860000Y-88030000D03*
X203400000Y-85490000D03*
X203400000Y-88030000D03*
X205940000Y-85490000D03*
X205940000Y-88030000D03*
X208480000Y-85490000D03*
X208480000Y-88030000D03*
%TD*%
D12*
%TO.C,J2*%
X219830000Y-55020000D03*
X179480000Y-72780000D03*
X219830000Y-72780000D03*
X179480000Y-55020000D03*
D13*
X220350000Y-60090000D03*
X220350000Y-62630000D03*
X220350000Y-65170000D03*
X220350000Y-67710000D03*
%TD*%
D14*
%TO.C,A1*%
X180530000Y-100720000D03*
X175450000Y-48650000D03*
X223710000Y-49920000D03*
X208470000Y-100720000D03*
D15*
X175450000Y-72780000D03*
X175450000Y-85480000D03*
X175450000Y-88020000D03*
X223710000Y-93100000D03*
X223710000Y-90560000D03*
X223710000Y-88020000D03*
X223710000Y-85480000D03*
X223710000Y-82940000D03*
X223710000Y-80400000D03*
X223710000Y-76336000D03*
X223710000Y-73796000D03*
D16*
X175450000Y-75320000D03*
X175450000Y-77860000D03*
%TD*%
M02*
