%TF.GenerationSoftware,KiCad,Pcbnew,(6.0.11)*%
%TF.CreationDate,2024-01-05T14:55:54+00:00*%
%TF.ProjectId,EcoIDTester,45636f49-4454-4657-9374-65722e6b6963,rev?*%
%TF.SameCoordinates,Original*%
%TF.FileFunction,Drillmap*%
%TF.FilePolarity,Positive*%
%FSLAX45Y45*%
G04 Gerber Fmt 4.5, Leading zero omitted, Abs format (unit mm)*
G04 Created by KiCad (PCBNEW (6.0.11)) date 2024-01-05 14:55:54*
%MOMM*%
%LPD*%
G01*
G04 APERTURE LIST*
%ADD10C,0.100000*%
%ADD11C,0.200000*%
%ADD12C,0.320000*%
G04 APERTURE END LIST*
D10*
X22624000Y-3470000D02*
X17291000Y-3468000D01*
X21355000Y-10072000D02*
X22472000Y-10072000D01*
X22472000Y-10072000D02*
X22625000Y-9920000D01*
X22625000Y-9920000D02*
X22624000Y-3470000D01*
X17291000Y-10071000D02*
X17417000Y-10071000D01*
X17671000Y-10325000D02*
X21100000Y-10326000D01*
X21100000Y-10326000D02*
X21355000Y-10072000D01*
X17417000Y-10071000D02*
X17671000Y-10325000D01*
X17291000Y-3468000D02*
X17291000Y-10071000D01*
D11*
D12*
X17385000Y-4705000D02*
X17705000Y-5025000D01*
X17705000Y-4705000D02*
X17385000Y-5025000D01*
X17788000Y-5342000D02*
X18108000Y-5662000D01*
X18108000Y-5342000D02*
X17788000Y-5662000D01*
X17788000Y-7118000D02*
X18108000Y-7438000D01*
X18108000Y-7118000D02*
X17788000Y-7438000D01*
X17893000Y-9912000D02*
X18213000Y-10232000D01*
X18213000Y-9912000D02*
X17893000Y-10232000D01*
X20687000Y-9912000D02*
X21007000Y-10232000D01*
X21007000Y-9912000D02*
X20687000Y-10232000D01*
X21823000Y-5342000D02*
X22143000Y-5662000D01*
X22143000Y-5342000D02*
X21823000Y-5662000D01*
X21823000Y-7118000D02*
X22143000Y-7438000D01*
X22143000Y-7118000D02*
X21823000Y-7438000D01*
X22211000Y-4832000D02*
X22531000Y-5152000D01*
X22531000Y-4832000D02*
X22211000Y-5152000D01*
D11*
X17543619Y-10641476D02*
X17543619Y-10441476D01*
X17591238Y-10441476D01*
X17619810Y-10451000D01*
X17638857Y-10470048D01*
X17648381Y-10489095D01*
X17657905Y-10527190D01*
X17657905Y-10555762D01*
X17648381Y-10593857D01*
X17638857Y-10612905D01*
X17619810Y-10631952D01*
X17591238Y-10641476D01*
X17543619Y-10641476D01*
X17743619Y-10641476D02*
X17743619Y-10508143D01*
X17743619Y-10546238D02*
X17753143Y-10527190D01*
X17762667Y-10517667D01*
X17781714Y-10508143D01*
X17800762Y-10508143D01*
X17867429Y-10641476D02*
X17867429Y-10508143D01*
X17867429Y-10441476D02*
X17857905Y-10451000D01*
X17867429Y-10460524D01*
X17876952Y-10451000D01*
X17867429Y-10441476D01*
X17867429Y-10460524D01*
X17991238Y-10641476D02*
X17972190Y-10631952D01*
X17962667Y-10612905D01*
X17962667Y-10441476D01*
X18096000Y-10641476D02*
X18076952Y-10631952D01*
X18067429Y-10612905D01*
X18067429Y-10441476D01*
X18324571Y-10641476D02*
X18324571Y-10441476D01*
X18391238Y-10584333D01*
X18457905Y-10441476D01*
X18457905Y-10641476D01*
X18638857Y-10641476D02*
X18638857Y-10536714D01*
X18629333Y-10517667D01*
X18610286Y-10508143D01*
X18572190Y-10508143D01*
X18553143Y-10517667D01*
X18638857Y-10631952D02*
X18619810Y-10641476D01*
X18572190Y-10641476D01*
X18553143Y-10631952D01*
X18543619Y-10612905D01*
X18543619Y-10593857D01*
X18553143Y-10574810D01*
X18572190Y-10565286D01*
X18619810Y-10565286D01*
X18638857Y-10555762D01*
X18734095Y-10508143D02*
X18734095Y-10708143D01*
X18734095Y-10517667D02*
X18753143Y-10508143D01*
X18791238Y-10508143D01*
X18810286Y-10517667D01*
X18819810Y-10527190D01*
X18829333Y-10546238D01*
X18829333Y-10603381D01*
X18819810Y-10622429D01*
X18810286Y-10631952D01*
X18791238Y-10641476D01*
X18753143Y-10641476D01*
X18734095Y-10631952D01*
X18915048Y-10622429D02*
X18924571Y-10631952D01*
X18915048Y-10641476D01*
X18905524Y-10631952D01*
X18915048Y-10622429D01*
X18915048Y-10641476D01*
X18915048Y-10517667D02*
X18924571Y-10527190D01*
X18915048Y-10536714D01*
X18905524Y-10527190D01*
X18915048Y-10517667D01*
X18915048Y-10536714D01*
X17086000Y-10871000D02*
X17286000Y-11071000D01*
X17286000Y-10871000D02*
X17086000Y-11071000D01*
X17524571Y-10861476D02*
X17648381Y-10861476D01*
X17581714Y-10937667D01*
X17610286Y-10937667D01*
X17629333Y-10947190D01*
X17638857Y-10956714D01*
X17648381Y-10975762D01*
X17648381Y-11023381D01*
X17638857Y-11042429D01*
X17629333Y-11051952D01*
X17610286Y-11061476D01*
X17553143Y-11061476D01*
X17534095Y-11051952D01*
X17524571Y-11042429D01*
X17734095Y-11042429D02*
X17743619Y-11051952D01*
X17734095Y-11061476D01*
X17724571Y-11051952D01*
X17734095Y-11042429D01*
X17734095Y-11061476D01*
X17819810Y-10880524D02*
X17829333Y-10871000D01*
X17848381Y-10861476D01*
X17896000Y-10861476D01*
X17915048Y-10871000D01*
X17924571Y-10880524D01*
X17934095Y-10899571D01*
X17934095Y-10918619D01*
X17924571Y-10947190D01*
X17810286Y-11061476D01*
X17934095Y-11061476D01*
X18057905Y-10861476D02*
X18076952Y-10861476D01*
X18096000Y-10871000D01*
X18105524Y-10880524D01*
X18115048Y-10899571D01*
X18124571Y-10937667D01*
X18124571Y-10985286D01*
X18115048Y-11023381D01*
X18105524Y-11042429D01*
X18096000Y-11051952D01*
X18076952Y-11061476D01*
X18057905Y-11061476D01*
X18038857Y-11051952D01*
X18029333Y-11042429D01*
X18019810Y-11023381D01*
X18010286Y-10985286D01*
X18010286Y-10937667D01*
X18019810Y-10899571D01*
X18029333Y-10880524D01*
X18038857Y-10871000D01*
X18057905Y-10861476D01*
X18248381Y-10861476D02*
X18267429Y-10861476D01*
X18286476Y-10871000D01*
X18296000Y-10880524D01*
X18305524Y-10899571D01*
X18315048Y-10937667D01*
X18315048Y-10985286D01*
X18305524Y-11023381D01*
X18296000Y-11042429D01*
X18286476Y-11051952D01*
X18267429Y-11061476D01*
X18248381Y-11061476D01*
X18229333Y-11051952D01*
X18219810Y-11042429D01*
X18210286Y-11023381D01*
X18200762Y-10985286D01*
X18200762Y-10937667D01*
X18210286Y-10899571D01*
X18219810Y-10880524D01*
X18229333Y-10871000D01*
X18248381Y-10861476D01*
X18400762Y-11061476D02*
X18400762Y-10928143D01*
X18400762Y-10947190D02*
X18410286Y-10937667D01*
X18429333Y-10928143D01*
X18457905Y-10928143D01*
X18476952Y-10937667D01*
X18486476Y-10956714D01*
X18486476Y-11061476D01*
X18486476Y-10956714D02*
X18496000Y-10937667D01*
X18515048Y-10928143D01*
X18543619Y-10928143D01*
X18562667Y-10937667D01*
X18572190Y-10956714D01*
X18572190Y-11061476D01*
X18667429Y-11061476D02*
X18667429Y-10928143D01*
X18667429Y-10947190D02*
X18676952Y-10937667D01*
X18696000Y-10928143D01*
X18724571Y-10928143D01*
X18743619Y-10937667D01*
X18753143Y-10956714D01*
X18753143Y-11061476D01*
X18753143Y-10956714D02*
X18762667Y-10937667D01*
X18781714Y-10928143D01*
X18810286Y-10928143D01*
X18829333Y-10937667D01*
X18838857Y-10956714D01*
X18838857Y-11061476D01*
X19229333Y-10851952D02*
X19057905Y-11109095D01*
X19486476Y-10861476D02*
X19505524Y-10861476D01*
X19524571Y-10871000D01*
X19534095Y-10880524D01*
X19543619Y-10899571D01*
X19553143Y-10937667D01*
X19553143Y-10985286D01*
X19543619Y-11023381D01*
X19534095Y-11042429D01*
X19524571Y-11051952D01*
X19505524Y-11061476D01*
X19486476Y-11061476D01*
X19467429Y-11051952D01*
X19457905Y-11042429D01*
X19448381Y-11023381D01*
X19438857Y-10985286D01*
X19438857Y-10937667D01*
X19448381Y-10899571D01*
X19457905Y-10880524D01*
X19467429Y-10871000D01*
X19486476Y-10861476D01*
X19638857Y-11042429D02*
X19648381Y-11051952D01*
X19638857Y-11061476D01*
X19629333Y-11051952D01*
X19638857Y-11042429D01*
X19638857Y-11061476D01*
X19838857Y-11061476D02*
X19724571Y-11061476D01*
X19781714Y-11061476D02*
X19781714Y-10861476D01*
X19762667Y-10890048D01*
X19743619Y-10909095D01*
X19724571Y-10918619D01*
X19915048Y-10880524D02*
X19924571Y-10871000D01*
X19943619Y-10861476D01*
X19991238Y-10861476D01*
X20010286Y-10871000D01*
X20019810Y-10880524D01*
X20029333Y-10899571D01*
X20029333Y-10918619D01*
X20019810Y-10947190D01*
X19905524Y-11061476D01*
X20029333Y-11061476D01*
X20200762Y-10861476D02*
X20162667Y-10861476D01*
X20143619Y-10871000D01*
X20134095Y-10880524D01*
X20115048Y-10909095D01*
X20105524Y-10947190D01*
X20105524Y-11023381D01*
X20115048Y-11042429D01*
X20124571Y-11051952D01*
X20143619Y-11061476D01*
X20181714Y-11061476D01*
X20200762Y-11051952D01*
X20210286Y-11042429D01*
X20219810Y-11023381D01*
X20219810Y-10975762D01*
X20210286Y-10956714D01*
X20200762Y-10947190D01*
X20181714Y-10937667D01*
X20143619Y-10937667D01*
X20124571Y-10947190D01*
X20115048Y-10956714D01*
X20105524Y-10975762D01*
X20343619Y-10861476D02*
X20362667Y-10861476D01*
X20381714Y-10871000D01*
X20391238Y-10880524D01*
X20400762Y-10899571D01*
X20410286Y-10937667D01*
X20410286Y-10985286D01*
X20400762Y-11023381D01*
X20391238Y-11042429D01*
X20381714Y-11051952D01*
X20362667Y-11061476D01*
X20343619Y-11061476D01*
X20324571Y-11051952D01*
X20315048Y-11042429D01*
X20305524Y-11023381D01*
X20296000Y-10985286D01*
X20296000Y-10937667D01*
X20305524Y-10899571D01*
X20315048Y-10880524D01*
X20324571Y-10871000D01*
X20343619Y-10861476D01*
X20486476Y-10861476D02*
X20486476Y-10899571D01*
X20562667Y-10861476D02*
X20562667Y-10899571D01*
X20857905Y-11137667D02*
X20848381Y-11128143D01*
X20829333Y-11099571D01*
X20819810Y-11080524D01*
X20810286Y-11051952D01*
X20800762Y-11004333D01*
X20800762Y-10966238D01*
X20810286Y-10918619D01*
X20819810Y-10890048D01*
X20829333Y-10871000D01*
X20848381Y-10842429D01*
X20857905Y-10832905D01*
X20962667Y-10947190D02*
X20943619Y-10937667D01*
X20934095Y-10928143D01*
X20924571Y-10909095D01*
X20924571Y-10899571D01*
X20934095Y-10880524D01*
X20943619Y-10871000D01*
X20962667Y-10861476D01*
X21000762Y-10861476D01*
X21019810Y-10871000D01*
X21029333Y-10880524D01*
X21038857Y-10899571D01*
X21038857Y-10909095D01*
X21029333Y-10928143D01*
X21019810Y-10937667D01*
X21000762Y-10947190D01*
X20962667Y-10947190D01*
X20943619Y-10956714D01*
X20934095Y-10966238D01*
X20924571Y-10985286D01*
X20924571Y-11023381D01*
X20934095Y-11042429D01*
X20943619Y-11051952D01*
X20962667Y-11061476D01*
X21000762Y-11061476D01*
X21019810Y-11051952D01*
X21029333Y-11042429D01*
X21038857Y-11023381D01*
X21038857Y-10985286D01*
X21029333Y-10966238D01*
X21019810Y-10956714D01*
X21000762Y-10947190D01*
X21276952Y-11061476D02*
X21276952Y-10861476D01*
X21362667Y-11061476D02*
X21362667Y-10956714D01*
X21353143Y-10937667D01*
X21334095Y-10928143D01*
X21305524Y-10928143D01*
X21286476Y-10937667D01*
X21276952Y-10947190D01*
X21486476Y-11061476D02*
X21467429Y-11051952D01*
X21457905Y-11042429D01*
X21448381Y-11023381D01*
X21448381Y-10966238D01*
X21457905Y-10947190D01*
X21467429Y-10937667D01*
X21486476Y-10928143D01*
X21515048Y-10928143D01*
X21534095Y-10937667D01*
X21543619Y-10947190D01*
X21553143Y-10966238D01*
X21553143Y-11023381D01*
X21543619Y-11042429D01*
X21534095Y-11051952D01*
X21515048Y-11061476D01*
X21486476Y-11061476D01*
X21667429Y-11061476D02*
X21648381Y-11051952D01*
X21638857Y-11032905D01*
X21638857Y-10861476D01*
X21819810Y-11051952D02*
X21800762Y-11061476D01*
X21762667Y-11061476D01*
X21743619Y-11051952D01*
X21734095Y-11032905D01*
X21734095Y-10956714D01*
X21743619Y-10937667D01*
X21762667Y-10928143D01*
X21800762Y-10928143D01*
X21819810Y-10937667D01*
X21829333Y-10956714D01*
X21829333Y-10975762D01*
X21734095Y-10994810D01*
X21905524Y-11051952D02*
X21924571Y-11061476D01*
X21962667Y-11061476D01*
X21981714Y-11051952D01*
X21991238Y-11032905D01*
X21991238Y-11023381D01*
X21981714Y-11004333D01*
X21962667Y-10994810D01*
X21934095Y-10994810D01*
X21915048Y-10985286D01*
X21905524Y-10966238D01*
X21905524Y-10956714D01*
X21915048Y-10937667D01*
X21934095Y-10928143D01*
X21962667Y-10928143D01*
X21981714Y-10937667D01*
X22057905Y-11137667D02*
X22067429Y-11128143D01*
X22086476Y-11099571D01*
X22096000Y-11080524D01*
X22105524Y-11051952D01*
X22115048Y-11004333D01*
X22115048Y-10966238D01*
X22105524Y-10918619D01*
X22096000Y-10890048D01*
X22086476Y-10871000D01*
X22067429Y-10842429D01*
X22057905Y-10832905D01*
X22419809Y-11137667D02*
X22410286Y-11128143D01*
X22391238Y-11099571D01*
X22381714Y-11080524D01*
X22372190Y-11051952D01*
X22362667Y-11004333D01*
X22362667Y-10966238D01*
X22372190Y-10918619D01*
X22381714Y-10890048D01*
X22391238Y-10871000D01*
X22410286Y-10842429D01*
X22419809Y-10832905D01*
X22496000Y-10928143D02*
X22496000Y-11061476D01*
X22496000Y-10947190D02*
X22505524Y-10937667D01*
X22524571Y-10928143D01*
X22553143Y-10928143D01*
X22572190Y-10937667D01*
X22581714Y-10956714D01*
X22581714Y-11061476D01*
X22705524Y-11061476D02*
X22686476Y-11051952D01*
X22676952Y-11042429D01*
X22667428Y-11023381D01*
X22667428Y-10966238D01*
X22676952Y-10947190D01*
X22686476Y-10937667D01*
X22705524Y-10928143D01*
X22734095Y-10928143D01*
X22753143Y-10937667D01*
X22762667Y-10947190D01*
X22772190Y-10966238D01*
X22772190Y-11023381D01*
X22762667Y-11042429D01*
X22753143Y-11051952D01*
X22734095Y-11061476D01*
X22705524Y-11061476D01*
X22829333Y-10928143D02*
X22905524Y-10928143D01*
X22857905Y-10861476D02*
X22857905Y-11032905D01*
X22867428Y-11051952D01*
X22886476Y-11061476D01*
X22905524Y-11061476D01*
X23124571Y-10928143D02*
X23124571Y-11128143D01*
X23124571Y-10937667D02*
X23143619Y-10928143D01*
X23181714Y-10928143D01*
X23200762Y-10937667D01*
X23210286Y-10947190D01*
X23219809Y-10966238D01*
X23219809Y-11023381D01*
X23210286Y-11042429D01*
X23200762Y-11051952D01*
X23181714Y-11061476D01*
X23143619Y-11061476D01*
X23124571Y-11051952D01*
X23334095Y-11061476D02*
X23315048Y-11051952D01*
X23305524Y-11032905D01*
X23305524Y-10861476D01*
X23496000Y-11061476D02*
X23496000Y-10956714D01*
X23486476Y-10937667D01*
X23467428Y-10928143D01*
X23429333Y-10928143D01*
X23410286Y-10937667D01*
X23496000Y-11051952D02*
X23476952Y-11061476D01*
X23429333Y-11061476D01*
X23410286Y-11051952D01*
X23400762Y-11032905D01*
X23400762Y-11013857D01*
X23410286Y-10994810D01*
X23429333Y-10985286D01*
X23476952Y-10985286D01*
X23496000Y-10975762D01*
X23562667Y-10928143D02*
X23638857Y-10928143D01*
X23591238Y-10861476D02*
X23591238Y-11032905D01*
X23600762Y-11051952D01*
X23619809Y-11061476D01*
X23638857Y-11061476D01*
X23781714Y-11051952D02*
X23762667Y-11061476D01*
X23724571Y-11061476D01*
X23705524Y-11051952D01*
X23696000Y-11032905D01*
X23696000Y-10956714D01*
X23705524Y-10937667D01*
X23724571Y-10928143D01*
X23762667Y-10928143D01*
X23781714Y-10937667D01*
X23791238Y-10956714D01*
X23791238Y-10975762D01*
X23696000Y-10994810D01*
X23962667Y-11061476D02*
X23962667Y-10861476D01*
X23962667Y-11051952D02*
X23943619Y-11061476D01*
X23905524Y-11061476D01*
X23886476Y-11051952D01*
X23876952Y-11042429D01*
X23867428Y-11023381D01*
X23867428Y-10966238D01*
X23876952Y-10947190D01*
X23886476Y-10937667D01*
X23905524Y-10928143D01*
X23943619Y-10928143D01*
X23962667Y-10937667D01*
X24038857Y-11137667D02*
X24048381Y-11128143D01*
X24067428Y-11099571D01*
X24076952Y-11080524D01*
X24086476Y-11051952D01*
X24096000Y-11004333D01*
X24096000Y-10966238D01*
X24086476Y-10918619D01*
X24076952Y-10890048D01*
X24067428Y-10871000D01*
X24048381Y-10842429D01*
X24038857Y-10832905D01*
M02*
