%TF.GenerationSoftware,KiCad,Pcbnew,(6.0.11)*%
%TF.CreationDate,2024-01-05T14:55:53+00:00*%
%TF.ProjectId,EcoIDTester,45636f49-4454-4657-9374-65722e6b6963,rev?*%
%TF.SameCoordinates,Original*%
%TF.FileFunction,Copper,L2,Bot*%
%TF.FilePolarity,Positive*%
%FSLAX46Y46*%
G04 Gerber Fmt 4.6, Leading zero omitted, Abs format (unit mm)*
G04 Created by KiCad (PCBNEW (6.0.11)) date 2024-01-05 14:55:53*
%MOMM*%
%LPD*%
G01*
G04 APERTURE LIST*
%TA.AperFunction,ComponentPad*%
%ADD10R,1.700000X1.700000*%
%TD*%
%TA.AperFunction,ComponentPad*%
%ADD11O,1.700000X1.700000*%
%TD*%
%TA.AperFunction,ComponentPad*%
%ADD12O,3.000000X2.000000*%
%TD*%
%TA.AperFunction,ComponentPad*%
%ADD13O,1.727200X1.727200*%
%TD*%
%TA.AperFunction,ComponentPad*%
%ADD14R,1.727200X1.727200*%
%TD*%
%TA.AperFunction,ViaPad*%
%ADD15C,0.800000*%
%TD*%
%TA.AperFunction,Conductor*%
%ADD16C,0.400000*%
%TD*%
%TA.AperFunction,Conductor*%
%ADD17C,0.250000*%
%TD*%
G04 APERTURE END LIST*
D10*
%TO.P,J1,1,Pin_1*%
%TO.N,/D9*%
X190700000Y-85490000D03*
D11*
%TO.P,J1,2,Pin_2*%
%TO.N,GND*%
X190700000Y-88030000D03*
%TO.P,J1,3,Pin_3*%
%TO.N,/D8*%
X193240000Y-85490000D03*
%TO.P,J1,4,Pin_4*%
%TO.N,GND*%
X193240000Y-88030000D03*
%TO.P,J1,5,Pin_5*%
%TO.N,/D7*%
X195780000Y-85490000D03*
%TO.P,J1,6,Pin_6*%
%TO.N,GND*%
X195780000Y-88030000D03*
%TO.P,J1,7,Pin_7*%
%TO.N,/D6*%
X198320000Y-85490000D03*
%TO.P,J1,8,Pin_8*%
%TO.N,GND*%
X198320000Y-88030000D03*
%TO.P,J1,9,Pin_9*%
%TO.N,/D5*%
X200860000Y-85490000D03*
%TO.P,J1,10,Pin_10*%
%TO.N,GND*%
X200860000Y-88030000D03*
%TO.P,J1,11,Pin_11*%
%TO.N,/D4*%
X203400000Y-85490000D03*
%TO.P,J1,12,Pin_12*%
%TO.N,GND*%
X203400000Y-88030000D03*
%TO.P,J1,13,Pin_13*%
%TO.N,/D3*%
X205940000Y-85490000D03*
%TO.P,J1,14,Pin_14*%
%TO.N,GND*%
X205940000Y-88030000D03*
%TO.P,J1,15,Pin_15*%
%TO.N,/D2*%
X208480000Y-85490000D03*
%TO.P,J1,16,Pin_16*%
%TO.N,GND*%
X208480000Y-88030000D03*
%TD*%
D12*
%TO.P,J2,1,Pin_1*%
%TO.N,/CLK*%
X220350000Y-60090000D03*
%TO.P,J2,2,Pin_2*%
%TO.N,/DIO*%
X220350000Y-62630000D03*
%TO.P,J2,3,Pin_3*%
%TO.N,GND*%
X220350000Y-65170000D03*
%TO.P,J2,4,Pin_4*%
%TO.N,+5V*%
X220350000Y-67710000D03*
%TD*%
D13*
%TO.P,A1,5V1,5V*%
%TO.N,+5V*%
X175450000Y-72780000D03*
%TO.P,A1,A0,A0*%
%TO.N,/CLK*%
X175450000Y-85480000D03*
%TO.P,A1,A1,A1*%
%TO.N,/DIO*%
X175450000Y-88020000D03*
%TO.P,A1,D2,D2_INT0*%
%TO.N,/D2*%
X223710000Y-93100000D03*
%TO.P,A1,D3,D3_INT1*%
%TO.N,/D3*%
X223710000Y-90560000D03*
%TO.P,A1,D4,D4*%
%TO.N,/D4*%
X223710000Y-88020000D03*
%TO.P,A1,D5,D5*%
%TO.N,/D5*%
X223710000Y-85480000D03*
%TO.P,A1,D6,D6*%
%TO.N,/D6*%
X223710000Y-82940000D03*
%TO.P,A1,D7,D7*%
%TO.N,/D7*%
X223710000Y-80400000D03*
%TO.P,A1,D8,D8*%
%TO.N,/D8*%
X223710000Y-76336000D03*
%TO.P,A1,D9,D9*%
%TO.N,/D9*%
X223710000Y-73796000D03*
D14*
%TO.P,A1,GND2,GND*%
%TO.N,GND*%
X175450000Y-75320000D03*
%TO.P,A1,GND3,GND*%
X175450000Y-77860000D03*
%TD*%
D15*
%TO.N,+5V*%
X192060000Y-67760000D03*
%TD*%
D16*
%TO.N,+5V*%
X175450000Y-72780000D02*
X175450000Y-71558686D01*
X175450000Y-71558686D02*
X179248686Y-67760000D01*
X179248686Y-67760000D02*
X192060000Y-67760000D01*
%TO.N,/DIO*%
X175450000Y-88020000D02*
X180530000Y-88020000D01*
X180530000Y-88020000D02*
X205920000Y-62630000D01*
X205920000Y-62630000D02*
X220350000Y-62630000D01*
%TO.N,/CLK*%
X175450000Y-85480000D02*
X180410000Y-85480000D01*
X205800000Y-60090000D02*
X220350000Y-60090000D01*
X180410000Y-85480000D02*
X205800000Y-60090000D01*
D17*
%TO.N,/D2*%
X208480000Y-85490000D02*
X216100000Y-85490000D01*
X216100000Y-85490000D02*
X223710000Y-93100000D01*
%TO.N,/D3*%
X205940000Y-85490000D02*
X207270000Y-84160000D01*
X207270000Y-84160000D02*
X217310000Y-84160000D01*
X217310000Y-84160000D02*
X223710000Y-90560000D01*
%TO.N,/D4*%
X203400000Y-85490000D02*
X205220000Y-83670000D01*
X205220000Y-83670000D02*
X219360000Y-83670000D01*
X219360000Y-83670000D02*
X223710000Y-88020000D01*
%TO.N,/D5*%
X221440000Y-83210000D02*
X223710000Y-85480000D01*
X200860000Y-85490000D02*
X203140000Y-83210000D01*
X203140000Y-83210000D02*
X221440000Y-83210000D01*
%TO.N,/D6*%
X223480000Y-82710000D02*
X223710000Y-82940000D01*
X201100000Y-82710000D02*
X223480000Y-82710000D01*
X198320000Y-85490000D02*
X201100000Y-82710000D01*
%TO.N,/D7*%
X195780000Y-85490000D02*
X200870000Y-80400000D01*
X200870000Y-80400000D02*
X223710000Y-80400000D01*
%TO.N,/D8*%
X193240000Y-85490000D02*
X202394000Y-76336000D01*
X202394000Y-76336000D02*
X223710000Y-76336000D01*
%TO.N,/D9*%
X200303501Y-75886499D02*
X221619501Y-75886499D01*
X221619501Y-75886499D02*
X223710000Y-73796000D01*
X190700000Y-85490000D02*
X200303501Y-75886499D01*
%TD*%
%TA.AperFunction,Conductor*%
%TO.N,GND*%
G36*
X201800068Y-35199335D02*
G01*
X225605646Y-35208263D01*
X225673759Y-35228291D01*
X225720232Y-35281964D01*
X225731599Y-35334241D01*
X225733643Y-48521583D01*
X225733677Y-48739544D01*
X225713686Y-48807668D01*
X225660037Y-48854170D01*
X225589765Y-48864284D01*
X225525179Y-48834801D01*
X225499561Y-48804270D01*
X225447643Y-48717521D01*
X225447640Y-48717517D01*
X225445439Y-48713839D01*
X225265687Y-48489472D01*
X225057149Y-48291577D01*
X224823683Y-48123814D01*
X224801843Y-48112250D01*
X224778654Y-48099972D01*
X224569608Y-47989288D01*
X224299627Y-47890489D01*
X224018736Y-47829245D01*
X223987685Y-47826801D01*
X223795718Y-47811693D01*
X223795709Y-47811693D01*
X223793261Y-47811500D01*
X223637729Y-47811500D01*
X223635593Y-47811646D01*
X223635582Y-47811646D01*
X223427452Y-47825835D01*
X223427446Y-47825836D01*
X223423175Y-47826127D01*
X223418980Y-47826996D01*
X223418978Y-47826996D01*
X223282416Y-47855277D01*
X223141658Y-47884426D01*
X222870657Y-47980393D01*
X222615188Y-48112250D01*
X222611687Y-48114711D01*
X222611683Y-48114713D01*
X222601594Y-48121804D01*
X222379977Y-48277559D01*
X222169378Y-48473260D01*
X221987287Y-48695732D01*
X221837073Y-48940858D01*
X221721517Y-49204102D01*
X221642756Y-49480594D01*
X221612577Y-49692646D01*
X221608380Y-49722140D01*
X221602249Y-49765216D01*
X221602227Y-49769505D01*
X221602226Y-49769512D01*
X221601660Y-49877586D01*
X221600743Y-50052703D01*
X221601302Y-50056947D01*
X221601302Y-50056951D01*
X221606925Y-50099661D01*
X221638268Y-50337734D01*
X221714129Y-50615036D01*
X221715813Y-50618984D01*
X221769208Y-50744165D01*
X221826923Y-50879476D01*
X221829130Y-50883163D01*
X221935698Y-51061225D01*
X221974561Y-51126161D01*
X222154313Y-51350528D01*
X222362851Y-51548423D01*
X222596317Y-51716186D01*
X222600112Y-51718195D01*
X222600113Y-51718196D01*
X222621869Y-51729715D01*
X222850392Y-51850712D01*
X223120373Y-51949511D01*
X223401264Y-52010755D01*
X223429841Y-52013004D01*
X223624282Y-52028307D01*
X223624291Y-52028307D01*
X223626739Y-52028500D01*
X223782271Y-52028500D01*
X223784407Y-52028354D01*
X223784418Y-52028354D01*
X223992548Y-52014165D01*
X223992554Y-52014164D01*
X223996825Y-52013873D01*
X224001020Y-52013004D01*
X224001022Y-52013004D01*
X224137583Y-51984724D01*
X224278342Y-51955574D01*
X224549343Y-51859607D01*
X224804812Y-51727750D01*
X224808313Y-51725289D01*
X224808317Y-51725287D01*
X224922418Y-51645095D01*
X225040023Y-51562441D01*
X225250622Y-51366740D01*
X225432713Y-51144268D01*
X225500611Y-51033469D01*
X225553258Y-50985839D01*
X225623299Y-50974232D01*
X225688497Y-51002335D01*
X225728151Y-51061225D01*
X225734043Y-51099285D01*
X225737806Y-75371645D01*
X225741459Y-98926321D01*
X225741460Y-98935982D01*
X225721469Y-99004106D01*
X225704264Y-99025388D01*
X224547202Y-100174887D01*
X224484778Y-100208708D01*
X224458399Y-100211500D01*
X213621702Y-100211500D01*
X213609953Y-100210175D01*
X213609906Y-100210744D01*
X213600956Y-100210006D01*
X213592206Y-100208008D01*
X213583247Y-100208546D01*
X213583245Y-100208546D01*
X213537854Y-100211273D01*
X213530299Y-100211500D01*
X213513487Y-100211500D01*
X213509048Y-100212136D01*
X213509043Y-100212136D01*
X213503735Y-100212896D01*
X213493433Y-100213941D01*
X213484016Y-100214507D01*
X213446811Y-100216742D01*
X213438361Y-100219774D01*
X213437054Y-100220042D01*
X213415933Y-100225286D01*
X213414694Y-100225648D01*
X213405813Y-100226920D01*
X213397646Y-100230633D01*
X213397644Y-100230634D01*
X213363275Y-100246261D01*
X213353676Y-100250157D01*
X213318162Y-100262899D01*
X213318157Y-100262902D01*
X213309711Y-100265932D01*
X213302453Y-100271212D01*
X213301299Y-100271823D01*
X213282486Y-100282791D01*
X213281388Y-100283493D01*
X213273218Y-100287208D01*
X213266419Y-100293066D01*
X213266418Y-100293067D01*
X213237823Y-100317706D01*
X213229708Y-100324137D01*
X213219209Y-100331775D01*
X213212127Y-100338829D01*
X213207776Y-100343163D01*
X213201108Y-100349341D01*
X213162873Y-100382287D01*
X213157990Y-100389821D01*
X213152091Y-100396582D01*
X213152051Y-100396547D01*
X213143113Y-100407571D01*
X212131682Y-101415036D01*
X210836257Y-102705382D01*
X210826908Y-102714694D01*
X210764529Y-102748597D01*
X210737953Y-102751424D01*
X210217576Y-102751272D01*
X209645382Y-102751105D01*
X209577267Y-102731083D01*
X209530790Y-102677414D01*
X209520707Y-102607137D01*
X209550219Y-102542565D01*
X209572968Y-102522018D01*
X209633217Y-102479674D01*
X209800023Y-102362441D01*
X210010622Y-102166740D01*
X210192713Y-101944268D01*
X210342927Y-101699142D01*
X210458483Y-101435898D01*
X210537244Y-101159406D01*
X210577751Y-100874784D01*
X210577845Y-100856951D01*
X210579235Y-100591583D01*
X210579235Y-100591576D01*
X210579257Y-100587297D01*
X210541732Y-100302266D01*
X210539216Y-100293067D01*
X210516539Y-100210175D01*
X210465871Y-100024964D01*
X210353077Y-99760524D01*
X210278527Y-99635960D01*
X210207643Y-99517521D01*
X210207640Y-99517517D01*
X210205439Y-99513839D01*
X210025687Y-99289472D01*
X209817149Y-99091577D01*
X209627064Y-98954987D01*
X209587172Y-98926321D01*
X209587171Y-98926320D01*
X209583683Y-98923814D01*
X209561843Y-98912250D01*
X209538654Y-98899972D01*
X209329608Y-98789288D01*
X209059627Y-98690489D01*
X208778736Y-98629245D01*
X208747685Y-98626801D01*
X208555718Y-98611693D01*
X208555709Y-98611693D01*
X208553261Y-98611500D01*
X208397729Y-98611500D01*
X208395593Y-98611646D01*
X208395582Y-98611646D01*
X208187452Y-98625835D01*
X208187446Y-98625836D01*
X208183175Y-98626127D01*
X208178980Y-98626996D01*
X208178978Y-98626996D01*
X208042416Y-98655277D01*
X207901658Y-98684426D01*
X207630657Y-98780393D01*
X207375188Y-98912250D01*
X207371687Y-98914711D01*
X207371683Y-98914713D01*
X207266799Y-98988427D01*
X207139977Y-99077559D01*
X206929378Y-99273260D01*
X206747287Y-99495732D01*
X206597073Y-99740858D01*
X206481517Y-100004102D01*
X206402756Y-100280594D01*
X206362249Y-100565216D01*
X206362227Y-100569505D01*
X206362226Y-100569512D01*
X206361533Y-100701820D01*
X206360743Y-100852703D01*
X206398268Y-101137734D01*
X206399401Y-101141874D01*
X206399401Y-101141876D01*
X206405326Y-101163534D01*
X206474129Y-101415036D01*
X206586923Y-101679476D01*
X206734561Y-101926161D01*
X206914313Y-102150528D01*
X207122851Y-102348423D01*
X207356317Y-102516186D01*
X207358937Y-102517573D01*
X207406077Y-102570231D01*
X207417315Y-102640333D01*
X207388870Y-102705382D01*
X207329772Y-102744726D01*
X207292287Y-102750419D01*
X200632744Y-102748477D01*
X181716971Y-102742960D01*
X181648856Y-102722938D01*
X181602379Y-102669269D01*
X181592296Y-102598992D01*
X181621808Y-102534420D01*
X181644557Y-102513873D01*
X181652295Y-102508435D01*
X181860023Y-102362441D01*
X182070622Y-102166740D01*
X182252713Y-101944268D01*
X182402927Y-101699142D01*
X182518483Y-101435898D01*
X182597244Y-101159406D01*
X182637751Y-100874784D01*
X182637845Y-100856951D01*
X182639235Y-100591583D01*
X182639235Y-100591576D01*
X182639257Y-100587297D01*
X182601732Y-100302266D01*
X182599216Y-100293067D01*
X182576539Y-100210175D01*
X182525871Y-100024964D01*
X182413077Y-99760524D01*
X182338527Y-99635960D01*
X182267643Y-99517521D01*
X182267640Y-99517517D01*
X182265439Y-99513839D01*
X182085687Y-99289472D01*
X181877149Y-99091577D01*
X181687064Y-98954987D01*
X181647172Y-98926321D01*
X181647171Y-98926320D01*
X181643683Y-98923814D01*
X181621843Y-98912250D01*
X181598654Y-98899972D01*
X181389608Y-98789288D01*
X181119627Y-98690489D01*
X180838736Y-98629245D01*
X180807685Y-98626801D01*
X180615718Y-98611693D01*
X180615709Y-98611693D01*
X180613261Y-98611500D01*
X180457729Y-98611500D01*
X180455593Y-98611646D01*
X180455582Y-98611646D01*
X180247452Y-98625835D01*
X180247446Y-98625836D01*
X180243175Y-98626127D01*
X180238980Y-98626996D01*
X180238978Y-98626996D01*
X180102416Y-98655277D01*
X179961658Y-98684426D01*
X179690657Y-98780393D01*
X179435188Y-98912250D01*
X179431687Y-98914711D01*
X179431683Y-98914713D01*
X179326799Y-98988427D01*
X179199977Y-99077559D01*
X178989378Y-99273260D01*
X178807287Y-99495732D01*
X178657073Y-99740858D01*
X178541517Y-100004102D01*
X178462756Y-100280594D01*
X178422249Y-100565216D01*
X178422227Y-100569505D01*
X178422226Y-100569512D01*
X178421533Y-100701820D01*
X178420743Y-100852703D01*
X178458268Y-101137734D01*
X178459401Y-101141874D01*
X178459401Y-101141876D01*
X178465326Y-101163534D01*
X178534129Y-101415036D01*
X178646923Y-101679476D01*
X178794561Y-101926161D01*
X178974313Y-102150528D01*
X179182851Y-102348423D01*
X179413201Y-102513947D01*
X179456846Y-102569938D01*
X179463292Y-102640641D01*
X179430489Y-102703606D01*
X179368853Y-102738840D01*
X179339635Y-102742266D01*
X176972857Y-102741576D01*
X176904742Y-102721554D01*
X176883799Y-102704671D01*
X174579823Y-100400696D01*
X174572200Y-100391156D01*
X174571832Y-100391470D01*
X174566014Y-100384634D01*
X174561224Y-100377042D01*
X174520875Y-100341407D01*
X174515188Y-100336061D01*
X174503745Y-100324618D01*
X174495370Y-100318341D01*
X174487541Y-100311967D01*
X174452049Y-100280622D01*
X174443926Y-100276808D01*
X174441438Y-100275174D01*
X174426477Y-100266186D01*
X174423892Y-100264771D01*
X174416705Y-100259384D01*
X174372357Y-100242759D01*
X174363040Y-100238832D01*
X174328326Y-100222534D01*
X174320200Y-100218719D01*
X174311331Y-100217338D01*
X174308498Y-100216472D01*
X174291611Y-100212042D01*
X174288726Y-100211408D01*
X174280316Y-100208255D01*
X174251158Y-100206088D01*
X174233094Y-100204746D01*
X174223048Y-100203592D01*
X174214425Y-100202249D01*
X174214422Y-100202249D01*
X174209614Y-100201500D01*
X174194094Y-100201500D01*
X174184757Y-100201154D01*
X174167854Y-100199898D01*
X174135059Y-100197461D01*
X174126280Y-100199335D01*
X174118022Y-100199898D01*
X174102839Y-100201500D01*
X173544500Y-100201500D01*
X173476379Y-100181498D01*
X173429886Y-100127842D01*
X173418500Y-100075500D01*
X173418500Y-87986362D01*
X174073609Y-87986362D01*
X174073906Y-87991514D01*
X174073906Y-87991518D01*
X174079618Y-88090578D01*
X174086597Y-88211614D01*
X174087734Y-88216660D01*
X174087735Y-88216666D01*
X174112512Y-88326608D01*
X174136200Y-88431720D01*
X174138142Y-88436502D01*
X174138143Y-88436506D01*
X174218465Y-88634315D01*
X174221086Y-88640769D01*
X174338975Y-88833147D01*
X174486702Y-89003687D01*
X174660299Y-89147810D01*
X174664751Y-89150412D01*
X174664756Y-89150415D01*
X174754091Y-89202618D01*
X174855103Y-89261645D01*
X175065884Y-89342134D01*
X175070952Y-89343165D01*
X175070955Y-89343166D01*
X175156676Y-89360606D01*
X175286981Y-89387117D01*
X175292156Y-89387307D01*
X175292158Y-89387307D01*
X175507292Y-89395196D01*
X175507296Y-89395196D01*
X175512456Y-89395385D01*
X175517576Y-89394729D01*
X175517578Y-89394729D01*
X175586985Y-89385838D01*
X175736253Y-89366716D01*
X175741202Y-89365231D01*
X175741208Y-89365230D01*
X175947413Y-89303365D01*
X175947412Y-89303365D01*
X175952363Y-89301880D01*
X176131653Y-89214047D01*
X176150331Y-89204897D01*
X176150336Y-89204894D01*
X176154982Y-89202618D01*
X176159192Y-89199615D01*
X176159197Y-89199612D01*
X176334455Y-89074601D01*
X176334459Y-89074597D01*
X176338667Y-89071596D01*
X176498487Y-88912333D01*
X176592880Y-88780972D01*
X176648872Y-88737326D01*
X176695200Y-88728500D01*
X180501088Y-88728500D01*
X180509658Y-88728792D01*
X180559776Y-88732209D01*
X180559780Y-88732209D01*
X180567352Y-88732725D01*
X180574829Y-88731420D01*
X180574830Y-88731420D01*
X180614657Y-88724469D01*
X180630303Y-88721738D01*
X180636821Y-88720777D01*
X180700242Y-88713102D01*
X180707343Y-88710419D01*
X180709952Y-88709778D01*
X180726262Y-88705315D01*
X180728798Y-88704550D01*
X180736284Y-88703243D01*
X180794800Y-88677556D01*
X180800904Y-88675065D01*
X180853548Y-88655173D01*
X180853549Y-88655172D01*
X180860656Y-88652487D01*
X180866919Y-88648183D01*
X180869285Y-88646946D01*
X180884097Y-88638701D01*
X180886351Y-88637368D01*
X180893305Y-88634315D01*
X180944002Y-88595413D01*
X180949332Y-88591541D01*
X180995720Y-88559661D01*
X180995725Y-88559656D01*
X181001981Y-88555357D01*
X181027539Y-88526672D01*
X181043435Y-88508830D01*
X181048416Y-88503554D01*
X181254004Y-88297966D01*
X189368257Y-88297966D01*
X189398565Y-88432446D01*
X189401645Y-88442275D01*
X189481770Y-88639603D01*
X189486413Y-88648794D01*
X189597694Y-88830388D01*
X189603777Y-88838699D01*
X189743213Y-88999667D01*
X189750580Y-89006883D01*
X189914434Y-89142916D01*
X189922881Y-89148831D01*
X190106756Y-89256279D01*
X190116042Y-89260729D01*
X190315001Y-89336703D01*
X190324899Y-89339579D01*
X190428250Y-89360606D01*
X190442299Y-89359410D01*
X190446000Y-89349065D01*
X190446000Y-89348517D01*
X190954000Y-89348517D01*
X190958064Y-89362359D01*
X190971478Y-89364393D01*
X190978184Y-89363534D01*
X190988262Y-89361392D01*
X191192255Y-89300191D01*
X191201842Y-89296433D01*
X191393095Y-89202739D01*
X191401945Y-89197464D01*
X191575328Y-89073792D01*
X191583200Y-89067139D01*
X191734052Y-88916812D01*
X191740730Y-88908965D01*
X191868022Y-88731819D01*
X191869147Y-88732627D01*
X191916669Y-88688876D01*
X191986607Y-88676661D01*
X192052046Y-88704197D01*
X192079870Y-88736028D01*
X192137690Y-88830383D01*
X192143777Y-88838699D01*
X192283213Y-88999667D01*
X192290580Y-89006883D01*
X192454434Y-89142916D01*
X192462881Y-89148831D01*
X192646756Y-89256279D01*
X192656042Y-89260729D01*
X192855001Y-89336703D01*
X192864899Y-89339579D01*
X192968250Y-89360606D01*
X192982299Y-89359410D01*
X192986000Y-89349065D01*
X192986000Y-89348517D01*
X193494000Y-89348517D01*
X193498064Y-89362359D01*
X193511478Y-89364393D01*
X193518184Y-89363534D01*
X193528262Y-89361392D01*
X193732255Y-89300191D01*
X193741842Y-89296433D01*
X193933095Y-89202739D01*
X193941945Y-89197464D01*
X194115328Y-89073792D01*
X194123200Y-89067139D01*
X194274052Y-88916812D01*
X194280730Y-88908965D01*
X194408022Y-88731819D01*
X194409147Y-88732627D01*
X194456669Y-88688876D01*
X194526607Y-88676661D01*
X194592046Y-88704197D01*
X194619870Y-88736028D01*
X194677690Y-88830383D01*
X194683777Y-88838699D01*
X194823213Y-88999667D01*
X194830580Y-89006883D01*
X194994434Y-89142916D01*
X195002881Y-89148831D01*
X195186756Y-89256279D01*
X195196042Y-89260729D01*
X195395001Y-89336703D01*
X195404899Y-89339579D01*
X195508250Y-89360606D01*
X195522299Y-89359410D01*
X195526000Y-89349065D01*
X195526000Y-89348517D01*
X196034000Y-89348517D01*
X196038064Y-89362359D01*
X196051478Y-89364393D01*
X196058184Y-89363534D01*
X196068262Y-89361392D01*
X196272255Y-89300191D01*
X196281842Y-89296433D01*
X196473095Y-89202739D01*
X196481945Y-89197464D01*
X196655328Y-89073792D01*
X196663200Y-89067139D01*
X196814052Y-88916812D01*
X196820730Y-88908965D01*
X196948022Y-88731819D01*
X196949147Y-88732627D01*
X196996669Y-88688876D01*
X197066607Y-88676661D01*
X197132046Y-88704197D01*
X197159870Y-88736028D01*
X197217690Y-88830383D01*
X197223777Y-88838699D01*
X197363213Y-88999667D01*
X197370580Y-89006883D01*
X197534434Y-89142916D01*
X197542881Y-89148831D01*
X197726756Y-89256279D01*
X197736042Y-89260729D01*
X197935001Y-89336703D01*
X197944899Y-89339579D01*
X198048250Y-89360606D01*
X198062299Y-89359410D01*
X198066000Y-89349065D01*
X198066000Y-89348517D01*
X198574000Y-89348517D01*
X198578064Y-89362359D01*
X198591478Y-89364393D01*
X198598184Y-89363534D01*
X198608262Y-89361392D01*
X198812255Y-89300191D01*
X198821842Y-89296433D01*
X199013095Y-89202739D01*
X199021945Y-89197464D01*
X199195328Y-89073792D01*
X199203200Y-89067139D01*
X199354052Y-88916812D01*
X199360730Y-88908965D01*
X199488022Y-88731819D01*
X199489147Y-88732627D01*
X199536669Y-88688876D01*
X199606607Y-88676661D01*
X199672046Y-88704197D01*
X199699870Y-88736028D01*
X199757690Y-88830383D01*
X199763777Y-88838699D01*
X199903213Y-88999667D01*
X199910580Y-89006883D01*
X200074434Y-89142916D01*
X200082881Y-89148831D01*
X200266756Y-89256279D01*
X200276042Y-89260729D01*
X200475001Y-89336703D01*
X200484899Y-89339579D01*
X200588250Y-89360606D01*
X200602299Y-89359410D01*
X200606000Y-89349065D01*
X200606000Y-89348517D01*
X201114000Y-89348517D01*
X201118064Y-89362359D01*
X201131478Y-89364393D01*
X201138184Y-89363534D01*
X201148262Y-89361392D01*
X201352255Y-89300191D01*
X201361842Y-89296433D01*
X201553095Y-89202739D01*
X201561945Y-89197464D01*
X201735328Y-89073792D01*
X201743200Y-89067139D01*
X201894052Y-88916812D01*
X201900730Y-88908965D01*
X202028022Y-88731819D01*
X202029147Y-88732627D01*
X202076669Y-88688876D01*
X202146607Y-88676661D01*
X202212046Y-88704197D01*
X202239870Y-88736028D01*
X202297690Y-88830383D01*
X202303777Y-88838699D01*
X202443213Y-88999667D01*
X202450580Y-89006883D01*
X202614434Y-89142916D01*
X202622881Y-89148831D01*
X202806756Y-89256279D01*
X202816042Y-89260729D01*
X203015001Y-89336703D01*
X203024899Y-89339579D01*
X203128250Y-89360606D01*
X203142299Y-89359410D01*
X203146000Y-89349065D01*
X203146000Y-89348517D01*
X203654000Y-89348517D01*
X203658064Y-89362359D01*
X203671478Y-89364393D01*
X203678184Y-89363534D01*
X203688262Y-89361392D01*
X203892255Y-89300191D01*
X203901842Y-89296433D01*
X204093095Y-89202739D01*
X204101945Y-89197464D01*
X204275328Y-89073792D01*
X204283200Y-89067139D01*
X204434052Y-88916812D01*
X204440730Y-88908965D01*
X204568022Y-88731819D01*
X204569147Y-88732627D01*
X204616669Y-88688876D01*
X204686607Y-88676661D01*
X204752046Y-88704197D01*
X204779870Y-88736028D01*
X204837690Y-88830383D01*
X204843777Y-88838699D01*
X204983213Y-88999667D01*
X204990580Y-89006883D01*
X205154434Y-89142916D01*
X205162881Y-89148831D01*
X205346756Y-89256279D01*
X205356042Y-89260729D01*
X205555001Y-89336703D01*
X205564899Y-89339579D01*
X205668250Y-89360606D01*
X205682299Y-89359410D01*
X205686000Y-89349065D01*
X205686000Y-89348517D01*
X206194000Y-89348517D01*
X206198064Y-89362359D01*
X206211478Y-89364393D01*
X206218184Y-89363534D01*
X206228262Y-89361392D01*
X206432255Y-89300191D01*
X206441842Y-89296433D01*
X206633095Y-89202739D01*
X206641945Y-89197464D01*
X206815328Y-89073792D01*
X206823200Y-89067139D01*
X206974052Y-88916812D01*
X206980730Y-88908965D01*
X207108022Y-88731819D01*
X207109147Y-88732627D01*
X207156669Y-88688876D01*
X207226607Y-88676661D01*
X207292046Y-88704197D01*
X207319870Y-88736028D01*
X207377690Y-88830383D01*
X207383777Y-88838699D01*
X207523213Y-88999667D01*
X207530580Y-89006883D01*
X207694434Y-89142916D01*
X207702881Y-89148831D01*
X207886756Y-89256279D01*
X207896042Y-89260729D01*
X208095001Y-89336703D01*
X208104899Y-89339579D01*
X208208250Y-89360606D01*
X208222299Y-89359410D01*
X208226000Y-89349065D01*
X208226000Y-89348517D01*
X208734000Y-89348517D01*
X208738064Y-89362359D01*
X208751478Y-89364393D01*
X208758184Y-89363534D01*
X208768262Y-89361392D01*
X208972255Y-89300191D01*
X208981842Y-89296433D01*
X209173095Y-89202739D01*
X209181945Y-89197464D01*
X209355328Y-89073792D01*
X209363200Y-89067139D01*
X209514052Y-88916812D01*
X209520730Y-88908965D01*
X209645003Y-88736020D01*
X209650313Y-88727183D01*
X209744670Y-88536267D01*
X209748469Y-88526672D01*
X209810377Y-88322910D01*
X209812555Y-88312837D01*
X209813986Y-88301962D01*
X209811775Y-88287778D01*
X209798617Y-88284000D01*
X208752115Y-88284000D01*
X208736876Y-88288475D01*
X208735671Y-88289865D01*
X208734000Y-88297548D01*
X208734000Y-89348517D01*
X208226000Y-89348517D01*
X208226000Y-88302115D01*
X208221525Y-88286876D01*
X208220135Y-88285671D01*
X208212452Y-88284000D01*
X206212115Y-88284000D01*
X206196876Y-88288475D01*
X206195671Y-88289865D01*
X206194000Y-88297548D01*
X206194000Y-89348517D01*
X205686000Y-89348517D01*
X205686000Y-88302115D01*
X205681525Y-88286876D01*
X205680135Y-88285671D01*
X205672452Y-88284000D01*
X203672115Y-88284000D01*
X203656876Y-88288475D01*
X203655671Y-88289865D01*
X203654000Y-88297548D01*
X203654000Y-89348517D01*
X203146000Y-89348517D01*
X203146000Y-88302115D01*
X203141525Y-88286876D01*
X203140135Y-88285671D01*
X203132452Y-88284000D01*
X201132115Y-88284000D01*
X201116876Y-88288475D01*
X201115671Y-88289865D01*
X201114000Y-88297548D01*
X201114000Y-89348517D01*
X200606000Y-89348517D01*
X200606000Y-88302115D01*
X200601525Y-88286876D01*
X200600135Y-88285671D01*
X200592452Y-88284000D01*
X198592115Y-88284000D01*
X198576876Y-88288475D01*
X198575671Y-88289865D01*
X198574000Y-88297548D01*
X198574000Y-89348517D01*
X198066000Y-89348517D01*
X198066000Y-88302115D01*
X198061525Y-88286876D01*
X198060135Y-88285671D01*
X198052452Y-88284000D01*
X196052115Y-88284000D01*
X196036876Y-88288475D01*
X196035671Y-88289865D01*
X196034000Y-88297548D01*
X196034000Y-89348517D01*
X195526000Y-89348517D01*
X195526000Y-88302115D01*
X195521525Y-88286876D01*
X195520135Y-88285671D01*
X195512452Y-88284000D01*
X193512115Y-88284000D01*
X193496876Y-88288475D01*
X193495671Y-88289865D01*
X193494000Y-88297548D01*
X193494000Y-89348517D01*
X192986000Y-89348517D01*
X192986000Y-88302115D01*
X192981525Y-88286876D01*
X192980135Y-88285671D01*
X192972452Y-88284000D01*
X190972115Y-88284000D01*
X190956876Y-88288475D01*
X190955671Y-88289865D01*
X190954000Y-88297548D01*
X190954000Y-89348517D01*
X190446000Y-89348517D01*
X190446000Y-88302115D01*
X190441525Y-88286876D01*
X190440135Y-88285671D01*
X190432452Y-88284000D01*
X189383225Y-88284000D01*
X189369694Y-88287973D01*
X189368257Y-88297966D01*
X181254004Y-88297966D01*
X183163836Y-86388134D01*
X189341500Y-86388134D01*
X189348255Y-86450316D01*
X189399385Y-86586705D01*
X189486739Y-86703261D01*
X189603295Y-86790615D01*
X189611704Y-86793767D01*
X189611705Y-86793768D01*
X189720960Y-86834726D01*
X189777725Y-86877367D01*
X189802425Y-86943929D01*
X189787218Y-87013278D01*
X189767825Y-87039759D01*
X189644590Y-87168717D01*
X189638104Y-87176727D01*
X189518098Y-87352649D01*
X189513000Y-87361623D01*
X189423338Y-87554783D01*
X189419775Y-87564470D01*
X189364389Y-87764183D01*
X189365912Y-87772607D01*
X189378292Y-87776000D01*
X209798344Y-87776000D01*
X209811875Y-87772027D01*
X209813180Y-87762947D01*
X209771214Y-87595875D01*
X209767894Y-87586124D01*
X209682972Y-87390814D01*
X209678105Y-87381739D01*
X209562426Y-87202926D01*
X209556136Y-87194757D01*
X209412806Y-87037240D01*
X209405273Y-87030215D01*
X209238139Y-86898222D01*
X209229556Y-86892520D01*
X209192602Y-86872120D01*
X209142631Y-86821687D01*
X209127859Y-86752245D01*
X209152975Y-86685839D01*
X209180327Y-86659232D01*
X209248766Y-86610415D01*
X209359860Y-86531173D01*
X209518096Y-86373489D01*
X209648453Y-86192077D01*
X209650746Y-86187437D01*
X209652446Y-86184608D01*
X209704674Y-86136518D01*
X209760451Y-86123500D01*
X215785406Y-86123500D01*
X215853527Y-86143502D01*
X215874501Y-86160405D01*
X222348727Y-92634631D01*
X222382753Y-92696943D01*
X222381050Y-92757397D01*
X222359978Y-92833384D01*
X222357585Y-92842013D01*
X222333609Y-93066362D01*
X222333906Y-93071514D01*
X222333906Y-93071518D01*
X222339618Y-93170578D01*
X222346597Y-93291614D01*
X222347734Y-93296660D01*
X222347735Y-93296666D01*
X222368984Y-93390952D01*
X222396200Y-93511720D01*
X222398142Y-93516502D01*
X222398143Y-93516506D01*
X222434822Y-93606835D01*
X222481086Y-93720769D01*
X222598975Y-93913147D01*
X222746702Y-94083687D01*
X222920299Y-94227810D01*
X222924751Y-94230412D01*
X222924756Y-94230415D01*
X223014091Y-94282618D01*
X223115103Y-94341645D01*
X223325884Y-94422134D01*
X223330952Y-94423165D01*
X223330955Y-94423166D01*
X223439404Y-94445230D01*
X223546981Y-94467117D01*
X223552156Y-94467307D01*
X223552158Y-94467307D01*
X223767292Y-94475196D01*
X223767296Y-94475196D01*
X223772456Y-94475385D01*
X223777576Y-94474729D01*
X223777578Y-94474729D01*
X223846985Y-94465838D01*
X223996253Y-94446716D01*
X224001202Y-94445231D01*
X224001208Y-94445230D01*
X224207413Y-94383365D01*
X224207412Y-94383365D01*
X224212363Y-94381880D01*
X224307419Y-94335312D01*
X224410331Y-94284897D01*
X224410336Y-94284894D01*
X224414982Y-94282618D01*
X224419192Y-94279615D01*
X224419197Y-94279612D01*
X224594455Y-94154601D01*
X224594459Y-94154597D01*
X224598667Y-94151596D01*
X224758487Y-93992333D01*
X224890150Y-93809105D01*
X224990118Y-93606835D01*
X225055708Y-93390952D01*
X225085158Y-93167256D01*
X225086802Y-93100000D01*
X225068315Y-92875132D01*
X225013349Y-92656304D01*
X224923380Y-92449391D01*
X224800826Y-92259951D01*
X224648977Y-92093071D01*
X224644926Y-92089872D01*
X224644922Y-92089868D01*
X224475966Y-91956434D01*
X224475962Y-91956432D01*
X224471911Y-91953232D01*
X224448535Y-91940328D01*
X224398564Y-91889896D01*
X224383792Y-91820453D01*
X224408908Y-91754047D01*
X224436259Y-91727441D01*
X224594455Y-91614601D01*
X224594459Y-91614597D01*
X224598667Y-91611596D01*
X224758487Y-91452333D01*
X224890150Y-91269105D01*
X224990118Y-91066835D01*
X225055708Y-90850952D01*
X225068786Y-90751614D01*
X225084721Y-90630578D01*
X225084722Y-90630572D01*
X225085158Y-90627256D01*
X225086802Y-90560000D01*
X225068315Y-90335132D01*
X225013349Y-90116304D01*
X224923380Y-89909391D01*
X224800826Y-89719951D01*
X224648977Y-89553071D01*
X224644926Y-89549872D01*
X224644922Y-89549868D01*
X224475966Y-89416434D01*
X224475962Y-89416432D01*
X224471911Y-89413232D01*
X224448535Y-89400328D01*
X224398564Y-89349896D01*
X224383792Y-89280453D01*
X224408908Y-89214047D01*
X224436259Y-89187441D01*
X224594455Y-89074601D01*
X224594459Y-89074597D01*
X224598667Y-89071596D01*
X224758487Y-88912333D01*
X224890150Y-88729105D01*
X224958138Y-88591541D01*
X224987824Y-88531477D01*
X224987825Y-88531475D01*
X224990118Y-88526835D01*
X225055708Y-88310952D01*
X225056383Y-88305826D01*
X225084721Y-88090578D01*
X225084722Y-88090572D01*
X225085158Y-88087256D01*
X225086802Y-88020000D01*
X225068315Y-87795132D01*
X225013349Y-87576304D01*
X224923380Y-87369391D01*
X224815689Y-87202926D01*
X224803634Y-87184291D01*
X224803632Y-87184288D01*
X224800826Y-87179951D01*
X224648977Y-87013071D01*
X224644926Y-87009872D01*
X224644922Y-87009868D01*
X224475966Y-86876434D01*
X224475962Y-86876432D01*
X224471911Y-86873232D01*
X224448535Y-86860328D01*
X224398564Y-86809896D01*
X224383792Y-86740453D01*
X224408908Y-86674047D01*
X224436259Y-86647441D01*
X224594455Y-86534601D01*
X224594459Y-86534597D01*
X224598667Y-86531596D01*
X224758487Y-86372333D01*
X224890150Y-86189105D01*
X224958138Y-86051541D01*
X224987824Y-85991477D01*
X224987825Y-85991475D01*
X224990118Y-85986835D01*
X225055708Y-85770952D01*
X225069467Y-85666445D01*
X225084721Y-85550578D01*
X225084722Y-85550572D01*
X225085158Y-85547256D01*
X225086802Y-85480000D01*
X225068315Y-85255132D01*
X225013349Y-85036304D01*
X224923380Y-84829391D01*
X224800826Y-84639951D01*
X224648977Y-84473071D01*
X224644926Y-84469872D01*
X224644922Y-84469868D01*
X224475966Y-84336434D01*
X224475962Y-84336432D01*
X224471911Y-84333232D01*
X224448535Y-84320328D01*
X224398564Y-84269896D01*
X224383792Y-84200453D01*
X224408908Y-84134047D01*
X224436259Y-84107441D01*
X224437506Y-84106552D01*
X224472354Y-84081695D01*
X224594455Y-83994601D01*
X224594459Y-83994597D01*
X224598667Y-83991596D01*
X224758487Y-83832333D01*
X224890150Y-83649105D01*
X224990118Y-83446835D01*
X225055708Y-83230952D01*
X225085158Y-83007256D01*
X225086802Y-82940000D01*
X225068315Y-82715132D01*
X225013349Y-82496304D01*
X224923380Y-82289391D01*
X224828672Y-82142994D01*
X224803634Y-82104291D01*
X224803632Y-82104288D01*
X224800826Y-82099951D01*
X224648977Y-81933071D01*
X224644926Y-81929872D01*
X224644922Y-81929868D01*
X224475966Y-81796434D01*
X224475962Y-81796432D01*
X224471911Y-81793232D01*
X224448535Y-81780328D01*
X224398564Y-81729896D01*
X224383792Y-81660453D01*
X224408908Y-81594047D01*
X224436259Y-81567441D01*
X224594455Y-81454601D01*
X224594459Y-81454597D01*
X224598667Y-81451596D01*
X224758487Y-81292333D01*
X224890150Y-81109105D01*
X224990118Y-80906835D01*
X225055708Y-80690952D01*
X225085158Y-80467256D01*
X225086802Y-80400000D01*
X225068315Y-80175132D01*
X225013349Y-79956304D01*
X224923380Y-79749391D01*
X224800826Y-79559951D01*
X224648977Y-79393071D01*
X224644926Y-79389872D01*
X224644922Y-79389868D01*
X224475966Y-79256434D01*
X224475962Y-79256432D01*
X224471911Y-79253232D01*
X224274383Y-79144191D01*
X224061698Y-79068876D01*
X224011297Y-79059898D01*
X223844657Y-79030214D01*
X223844653Y-79030214D01*
X223839569Y-79029308D01*
X223767574Y-79028429D01*
X223619129Y-79026615D01*
X223619127Y-79026615D01*
X223613959Y-79026552D01*
X223390929Y-79060680D01*
X223176468Y-79130777D01*
X223171876Y-79133167D01*
X223171877Y-79133167D01*
X222994114Y-79225705D01*
X222976335Y-79234960D01*
X222972202Y-79238063D01*
X222972199Y-79238065D01*
X222947734Y-79256434D01*
X222795905Y-79370430D01*
X222640024Y-79533550D01*
X222637112Y-79537819D01*
X222518633Y-79711504D01*
X222463721Y-79756507D01*
X222414544Y-79766500D01*
X200948767Y-79766500D01*
X200937584Y-79765973D01*
X200930091Y-79764298D01*
X200922165Y-79764547D01*
X200922164Y-79764547D01*
X200862014Y-79766438D01*
X200858055Y-79766500D01*
X200830144Y-79766500D01*
X200826210Y-79766997D01*
X200826209Y-79766997D01*
X200826144Y-79767005D01*
X200814307Y-79767938D01*
X200782049Y-79768952D01*
X200778030Y-79769078D01*
X200770111Y-79769327D01*
X200750657Y-79774979D01*
X200731300Y-79778987D01*
X200719070Y-79780532D01*
X200719069Y-79780532D01*
X200711203Y-79781526D01*
X200703832Y-79784445D01*
X200703830Y-79784445D01*
X200670088Y-79797804D01*
X200658858Y-79801649D01*
X200624017Y-79811771D01*
X200624016Y-79811771D01*
X200616407Y-79813982D01*
X200609588Y-79818015D01*
X200609583Y-79818017D01*
X200598972Y-79824293D01*
X200581224Y-79832988D01*
X200562383Y-79840448D01*
X200555967Y-79845110D01*
X200555966Y-79845110D01*
X200526613Y-79866436D01*
X200516693Y-79872952D01*
X200485465Y-79891420D01*
X200485462Y-79891422D01*
X200478638Y-79895458D01*
X200464317Y-79909779D01*
X200449284Y-79922619D01*
X200432893Y-79934528D01*
X200427842Y-79940634D01*
X200404702Y-79968605D01*
X200396712Y-79977384D01*
X196237345Y-84136750D01*
X196175033Y-84170776D01*
X196126154Y-84171702D01*
X195913373Y-84133800D01*
X195913367Y-84133799D01*
X195908284Y-84132894D01*
X195797009Y-84131535D01*
X195729140Y-84110702D01*
X195683306Y-84056483D01*
X195674061Y-83986091D01*
X195704340Y-83921875D01*
X195709455Y-83916449D01*
X199155327Y-80470578D01*
X202619500Y-77006405D01*
X202681812Y-76972379D01*
X202708595Y-76969500D01*
X222418324Y-76969500D01*
X222486445Y-76989502D01*
X222525757Y-77029665D01*
X222598975Y-77149147D01*
X222746702Y-77319687D01*
X222920299Y-77463810D01*
X222924751Y-77466412D01*
X222924756Y-77466415D01*
X223014091Y-77518618D01*
X223115103Y-77577645D01*
X223325884Y-77658134D01*
X223330952Y-77659165D01*
X223330955Y-77659166D01*
X223439404Y-77681230D01*
X223546981Y-77703117D01*
X223552156Y-77703307D01*
X223552158Y-77703307D01*
X223767292Y-77711196D01*
X223767296Y-77711196D01*
X223772456Y-77711385D01*
X223777576Y-77710729D01*
X223777578Y-77710729D01*
X223846985Y-77701838D01*
X223996253Y-77682716D01*
X224001202Y-77681231D01*
X224001208Y-77681230D01*
X224207413Y-77619365D01*
X224207412Y-77619365D01*
X224212363Y-77617880D01*
X224307419Y-77571312D01*
X224410331Y-77520897D01*
X224410336Y-77520894D01*
X224414982Y-77518618D01*
X224419192Y-77515615D01*
X224419197Y-77515612D01*
X224594455Y-77390601D01*
X224594459Y-77390597D01*
X224598667Y-77387596D01*
X224758487Y-77228333D01*
X224890150Y-77045105D01*
X224943642Y-76936872D01*
X224987824Y-76847477D01*
X224987825Y-76847475D01*
X224990118Y-76842835D01*
X225055708Y-76626952D01*
X225059380Y-76599059D01*
X225084721Y-76406578D01*
X225084722Y-76406572D01*
X225085158Y-76403256D01*
X225086802Y-76336000D01*
X225068315Y-76111132D01*
X225013349Y-75892304D01*
X224923380Y-75685391D01*
X224872344Y-75606501D01*
X224803634Y-75500291D01*
X224803632Y-75500288D01*
X224800826Y-75495951D01*
X224648977Y-75329071D01*
X224644926Y-75325872D01*
X224644922Y-75325868D01*
X224475966Y-75192434D01*
X224475962Y-75192432D01*
X224471911Y-75189232D01*
X224448535Y-75176328D01*
X224398564Y-75125896D01*
X224383792Y-75056453D01*
X224408908Y-74990047D01*
X224436259Y-74963441D01*
X224594455Y-74850601D01*
X224594459Y-74850597D01*
X224598667Y-74847596D01*
X224758487Y-74688333D01*
X224890150Y-74505105D01*
X224958088Y-74367642D01*
X224987824Y-74307477D01*
X224987825Y-74307475D01*
X224990118Y-74302835D01*
X225055708Y-74086952D01*
X225064306Y-74021645D01*
X225084721Y-73866578D01*
X225084722Y-73866572D01*
X225085158Y-73863256D01*
X225085932Y-73831596D01*
X225086720Y-73799364D01*
X225086720Y-73799360D01*
X225086802Y-73796000D01*
X225068315Y-73571132D01*
X225013349Y-73352304D01*
X224923380Y-73145391D01*
X224810959Y-72971614D01*
X224803634Y-72960291D01*
X224803632Y-72960288D01*
X224800826Y-72955951D01*
X224648977Y-72789071D01*
X224644926Y-72785872D01*
X224644922Y-72785868D01*
X224475966Y-72652434D01*
X224475962Y-72652432D01*
X224471911Y-72649232D01*
X224274383Y-72540191D01*
X224061698Y-72464876D01*
X224011297Y-72455898D01*
X223844657Y-72426214D01*
X223844653Y-72426214D01*
X223839569Y-72425308D01*
X223767574Y-72424429D01*
X223619129Y-72422615D01*
X223619127Y-72422615D01*
X223613959Y-72422552D01*
X223390929Y-72456680D01*
X223176468Y-72526777D01*
X222976335Y-72630960D01*
X222972201Y-72634064D01*
X222929121Y-72666409D01*
X222862636Y-72691314D01*
X222793241Y-72676321D01*
X222742967Y-72626190D01*
X222728449Y-72581331D01*
X222723289Y-72540191D01*
X222702880Y-72377503D01*
X222687407Y-72254153D01*
X222687406Y-72254149D01*
X222686948Y-72250496D01*
X222605660Y-71920790D01*
X222585817Y-71867859D01*
X222487754Y-71606273D01*
X222487753Y-71606271D01*
X222486459Y-71602819D01*
X222330975Y-71300928D01*
X222141330Y-71019238D01*
X221920116Y-70761599D01*
X221670353Y-70531528D01*
X221483949Y-70396346D01*
X221398437Y-70334331D01*
X221398433Y-70334329D01*
X221395454Y-70332168D01*
X221156095Y-70198120D01*
X221102400Y-70168049D01*
X221102397Y-70168048D01*
X221099173Y-70166242D01*
X220819963Y-70050304D01*
X220788957Y-70037429D01*
X220788954Y-70037428D01*
X220785556Y-70036017D01*
X220458888Y-69943271D01*
X220455258Y-69942686D01*
X220455252Y-69942685D01*
X220127021Y-69889818D01*
X220127015Y-69889817D01*
X220123629Y-69889272D01*
X220120203Y-69889098D01*
X220120199Y-69889098D01*
X219932320Y-69879580D01*
X219932303Y-69879580D01*
X219930732Y-69879500D01*
X219742820Y-69879500D01*
X219491001Y-69894240D01*
X219487375Y-69894883D01*
X219487372Y-69894883D01*
X219160254Y-69952857D01*
X219160250Y-69952858D01*
X219156633Y-69953499D01*
X218831461Y-70051365D01*
X218698558Y-70109015D01*
X218523317Y-70185030D01*
X218523313Y-70185032D01*
X218519929Y-70186500D01*
X218226290Y-70357059D01*
X218223351Y-70359262D01*
X218223346Y-70359265D01*
X218029486Y-70504555D01*
X217954556Y-70560712D01*
X217708438Y-70794678D01*
X217491298Y-71055760D01*
X217489290Y-71058847D01*
X217489285Y-71058853D01*
X217312739Y-71330193D01*
X217306102Y-71340394D01*
X217252897Y-71447810D01*
X217157015Y-71641384D01*
X217157015Y-71641385D01*
X217155378Y-71644690D01*
X217154138Y-71648162D01*
X217154137Y-71648165D01*
X217106097Y-71782707D01*
X217041187Y-71964494D01*
X217040360Y-71968091D01*
X216965912Y-72291846D01*
X216965911Y-72291855D01*
X216965087Y-72295436D01*
X216964686Y-72299093D01*
X216964686Y-72299096D01*
X216947428Y-72456680D01*
X216928118Y-72632997D01*
X216928147Y-72636690D01*
X216930655Y-72955951D01*
X216930785Y-72972566D01*
X216931244Y-72976225D01*
X216967415Y-73264564D01*
X216973052Y-73309504D01*
X217054340Y-73639210D01*
X217055634Y-73642661D01*
X217055634Y-73642662D01*
X217114379Y-73799364D01*
X217173541Y-73957181D01*
X217175228Y-73960457D01*
X217175230Y-73960461D01*
X217197178Y-74003075D01*
X217329025Y-74259072D01*
X217518670Y-74540762D01*
X217739884Y-74798401D01*
X217742595Y-74800898D01*
X217955207Y-74996747D01*
X217989647Y-75028472D01*
X217991413Y-75029753D01*
X218031283Y-75088120D01*
X218033276Y-75159088D01*
X217996585Y-75219869D01*
X217932858Y-75251164D01*
X217911431Y-75252999D01*
X200382264Y-75252999D01*
X200371080Y-75252472D01*
X200363592Y-75250798D01*
X200355669Y-75251047D01*
X200295534Y-75252937D01*
X200291576Y-75252999D01*
X200263645Y-75252999D01*
X200259730Y-75253494D01*
X200259726Y-75253494D01*
X200259668Y-75253502D01*
X200259639Y-75253505D01*
X200247797Y-75254438D01*
X200203611Y-75255826D01*
X200186245Y-75260871D01*
X200184159Y-75261477D01*
X200164807Y-75265485D01*
X200157736Y-75266379D01*
X200144704Y-75268025D01*
X200137335Y-75270942D01*
X200137333Y-75270943D01*
X200103598Y-75284299D01*
X200092370Y-75288144D01*
X200049908Y-75300481D01*
X200043086Y-75304515D01*
X200043080Y-75304518D01*
X200032469Y-75310793D01*
X200014719Y-75319489D01*
X200003257Y-75324027D01*
X200003252Y-75324030D01*
X199995884Y-75326947D01*
X199989469Y-75331608D01*
X199960126Y-75352926D01*
X199950208Y-75359442D01*
X199931520Y-75370494D01*
X199912138Y-75381957D01*
X199897814Y-75396281D01*
X199882782Y-75409120D01*
X199866394Y-75421027D01*
X199838213Y-75455092D01*
X199830223Y-75463872D01*
X191199500Y-84094595D01*
X191137188Y-84128621D01*
X191110405Y-84131500D01*
X189801866Y-84131500D01*
X189739684Y-84138255D01*
X189603295Y-84189385D01*
X189486739Y-84276739D01*
X189399385Y-84393295D01*
X189348255Y-84529684D01*
X189341500Y-84591866D01*
X189341500Y-86388134D01*
X183163836Y-86388134D01*
X201789154Y-67762817D01*
X218337514Y-67762817D01*
X218338095Y-67767837D01*
X218338095Y-67767841D01*
X218359164Y-67949928D01*
X218365415Y-68003956D01*
X218366791Y-68008820D01*
X218366792Y-68008823D01*
X218412476Y-68170266D01*
X218431510Y-68237532D01*
X218433644Y-68242108D01*
X218433646Y-68242114D01*
X218531962Y-68452954D01*
X218534099Y-68457536D01*
X218670544Y-68658307D01*
X218837332Y-68834681D01*
X218841358Y-68837759D01*
X218841359Y-68837760D01*
X219026154Y-68979047D01*
X219026158Y-68979050D01*
X219030174Y-68982120D01*
X219244109Y-69096831D01*
X219473631Y-69175862D01*
X219572978Y-69193022D01*
X219708926Y-69216504D01*
X219708932Y-69216505D01*
X219712836Y-69217179D01*
X219716797Y-69217359D01*
X219716798Y-69217359D01*
X219740506Y-69218436D01*
X219740525Y-69218436D01*
X219741925Y-69218500D01*
X220911001Y-69218500D01*
X220913509Y-69218298D01*
X220913514Y-69218298D01*
X221086924Y-69204346D01*
X221086929Y-69204345D01*
X221091965Y-69203940D01*
X221096873Y-69202734D01*
X221096876Y-69202734D01*
X221322792Y-69147244D01*
X221327706Y-69146037D01*
X221332358Y-69144062D01*
X221332362Y-69144061D01*
X221546498Y-69053165D01*
X221551156Y-69051188D01*
X221657037Y-68984511D01*
X221752288Y-68924528D01*
X221752291Y-68924526D01*
X221756567Y-68921833D01*
X221855422Y-68834681D01*
X221934858Y-68764650D01*
X221934861Y-68764647D01*
X221938655Y-68761302D01*
X222092734Y-68573722D01*
X222214841Y-68363922D01*
X222301833Y-68137298D01*
X222351474Y-67899680D01*
X222362486Y-67657183D01*
X222361905Y-67652159D01*
X222335167Y-67421071D01*
X222335166Y-67421067D01*
X222334585Y-67416044D01*
X222328554Y-67394729D01*
X222269866Y-67187331D01*
X222268490Y-67182468D01*
X222266356Y-67177892D01*
X222266354Y-67177886D01*
X222168038Y-66967046D01*
X222168036Y-66967042D01*
X222165901Y-66962464D01*
X222029456Y-66761693D01*
X221862668Y-66585319D01*
X221803685Y-66540223D01*
X221761719Y-66482961D01*
X221757374Y-66412097D01*
X221796891Y-66345615D01*
X221934500Y-66224297D01*
X221941504Y-66217044D01*
X222089110Y-66037346D01*
X222094866Y-66029064D01*
X222211841Y-65828081D01*
X222216203Y-65818976D01*
X222299537Y-65601885D01*
X222302388Y-65592196D01*
X222333821Y-65441736D01*
X222332698Y-65427675D01*
X222322590Y-65424000D01*
X218379410Y-65424000D01*
X218365324Y-65428136D01*
X218363275Y-65441114D01*
X218365325Y-65458830D01*
X218367285Y-65468727D01*
X218430604Y-65692494D01*
X218434116Y-65701938D01*
X218532399Y-65912705D01*
X218537378Y-65921471D01*
X218668087Y-66113802D01*
X218674419Y-66121677D01*
X218834186Y-66290626D01*
X218841695Y-66297387D01*
X218896290Y-66339128D01*
X218938258Y-66396393D01*
X218942603Y-66467256D01*
X218903087Y-66533737D01*
X218848062Y-66582247D01*
X218765142Y-66655350D01*
X218765139Y-66655353D01*
X218761345Y-66658698D01*
X218607266Y-66846278D01*
X218485159Y-67056078D01*
X218483346Y-67060801D01*
X218402594Y-67271170D01*
X218398167Y-67282702D01*
X218348526Y-67520320D01*
X218337514Y-67762817D01*
X201789154Y-67762817D01*
X206176566Y-63375405D01*
X206238878Y-63341379D01*
X206265661Y-63338500D01*
X218440857Y-63338500D01*
X218508978Y-63358502D01*
X218545068Y-63393676D01*
X218670544Y-63578307D01*
X218837332Y-63754681D01*
X218896315Y-63799777D01*
X218938281Y-63857039D01*
X218942626Y-63927903D01*
X218903109Y-63994385D01*
X218765500Y-64115703D01*
X218758496Y-64122956D01*
X218610890Y-64302654D01*
X218605134Y-64310936D01*
X218488159Y-64511919D01*
X218483797Y-64521024D01*
X218400463Y-64738115D01*
X218397612Y-64747804D01*
X218366179Y-64898264D01*
X218367302Y-64912325D01*
X218377410Y-64916000D01*
X222320590Y-64916000D01*
X222334676Y-64911864D01*
X222336725Y-64898886D01*
X222334675Y-64881170D01*
X222332715Y-64871273D01*
X222269396Y-64647506D01*
X222265884Y-64638062D01*
X222167601Y-64427295D01*
X222162622Y-64418529D01*
X222031913Y-64226198D01*
X222025581Y-64218323D01*
X221865814Y-64049374D01*
X221858305Y-64042613D01*
X221803710Y-64000872D01*
X221761742Y-63943607D01*
X221757397Y-63872744D01*
X221796913Y-63806263D01*
X221870511Y-63741378D01*
X221934858Y-63684650D01*
X221934861Y-63684647D01*
X221938655Y-63681302D01*
X222092734Y-63493722D01*
X222214841Y-63283922D01*
X222301833Y-63057298D01*
X222351474Y-62819680D01*
X222362486Y-62577183D01*
X222334585Y-62336044D01*
X222268490Y-62102468D01*
X222266356Y-62097892D01*
X222266354Y-62097886D01*
X222168038Y-61887046D01*
X222168036Y-61887042D01*
X222165901Y-61882464D01*
X222029456Y-61681693D01*
X221862668Y-61505319D01*
X221804093Y-61460535D01*
X221762125Y-61403270D01*
X221757780Y-61332407D01*
X221797297Y-61265925D01*
X221934858Y-61144650D01*
X221934861Y-61144647D01*
X221938655Y-61141302D01*
X222092734Y-60953722D01*
X222214841Y-60743922D01*
X222301833Y-60517298D01*
X222351474Y-60279680D01*
X222362486Y-60037183D01*
X222334585Y-59796044D01*
X222268490Y-59562468D01*
X222266356Y-59557892D01*
X222266354Y-59557886D01*
X222168038Y-59347046D01*
X222168036Y-59347042D01*
X222165901Y-59342464D01*
X222029456Y-59141693D01*
X221862668Y-58965319D01*
X221858641Y-58962240D01*
X221673846Y-58820953D01*
X221673842Y-58820950D01*
X221669826Y-58817880D01*
X221455891Y-58703169D01*
X221226369Y-58624138D01*
X221127022Y-58606978D01*
X220991074Y-58583496D01*
X220991068Y-58583495D01*
X220987164Y-58582821D01*
X220983203Y-58582641D01*
X220983202Y-58582641D01*
X220959494Y-58581564D01*
X220959475Y-58581564D01*
X220958075Y-58581500D01*
X219788999Y-58581500D01*
X219786491Y-58581702D01*
X219786486Y-58581702D01*
X219613076Y-58595654D01*
X219613071Y-58595655D01*
X219608035Y-58596060D01*
X219603127Y-58597266D01*
X219603124Y-58597266D01*
X219487007Y-58625787D01*
X219372294Y-58653963D01*
X219367642Y-58655938D01*
X219367638Y-58655939D01*
X219260252Y-58701522D01*
X219148844Y-58748812D01*
X219144560Y-58751510D01*
X218947712Y-58875472D01*
X218947709Y-58875474D01*
X218943433Y-58878167D01*
X218939639Y-58881512D01*
X218765142Y-59035350D01*
X218765139Y-59035353D01*
X218761345Y-59038698D01*
X218607266Y-59226278D01*
X218604726Y-59230643D01*
X218604722Y-59230648D01*
X218553369Y-59318881D01*
X218501816Y-59367694D01*
X218444471Y-59381500D01*
X205828912Y-59381500D01*
X205820342Y-59381208D01*
X205770224Y-59377791D01*
X205770220Y-59377791D01*
X205762648Y-59377275D01*
X205755171Y-59378580D01*
X205755170Y-59378580D01*
X205740113Y-59381208D01*
X205699703Y-59388261D01*
X205693186Y-59389222D01*
X205629758Y-59396898D01*
X205622650Y-59399584D01*
X205620056Y-59400221D01*
X205603750Y-59404682D01*
X205601199Y-59405452D01*
X205593716Y-59406758D01*
X205586764Y-59409810D01*
X205586763Y-59409810D01*
X205535212Y-59432439D01*
X205529105Y-59434931D01*
X205476452Y-59454827D01*
X205469344Y-59457513D01*
X205463083Y-59461816D01*
X205460717Y-59463053D01*
X205445937Y-59471280D01*
X205443652Y-59472631D01*
X205436695Y-59475685D01*
X205430675Y-59480305D01*
X205430669Y-59480308D01*
X205399542Y-59504194D01*
X205385998Y-59514587D01*
X205380668Y-59518459D01*
X205334280Y-59550339D01*
X205334275Y-59550344D01*
X205328019Y-59554643D01*
X205322968Y-59560313D01*
X205322966Y-59560314D01*
X205286565Y-59601170D01*
X205281584Y-59606446D01*
X180153435Y-84734595D01*
X180091123Y-84768621D01*
X180064340Y-84771500D01*
X176694484Y-84771500D01*
X176626363Y-84751498D01*
X176588692Y-84713940D01*
X176543634Y-84644291D01*
X176543632Y-84644288D01*
X176540826Y-84639951D01*
X176388977Y-84473071D01*
X176384926Y-84469872D01*
X176384922Y-84469868D01*
X176215966Y-84336434D01*
X176215962Y-84336432D01*
X176211911Y-84333232D01*
X176188536Y-84320328D01*
X176099826Y-84271358D01*
X176014383Y-84224191D01*
X175801698Y-84148876D01*
X175751297Y-84139898D01*
X175584657Y-84110214D01*
X175584653Y-84110214D01*
X175579569Y-84109308D01*
X175507574Y-84108429D01*
X175359129Y-84106615D01*
X175359127Y-84106615D01*
X175353959Y-84106552D01*
X175130929Y-84140680D01*
X174916468Y-84210777D01*
X174716335Y-84314960D01*
X174712202Y-84318063D01*
X174712199Y-84318065D01*
X174540040Y-84447325D01*
X174535905Y-84450430D01*
X174380024Y-84613550D01*
X174252878Y-84799940D01*
X174250704Y-84804624D01*
X174250702Y-84804627D01*
X174172354Y-84973414D01*
X174157881Y-85004593D01*
X174097585Y-85222013D01*
X174073609Y-85446362D01*
X174073906Y-85451514D01*
X174073906Y-85451518D01*
X174079618Y-85550578D01*
X174086597Y-85671614D01*
X174087734Y-85676660D01*
X174087735Y-85676666D01*
X174108984Y-85770952D01*
X174136200Y-85891720D01*
X174138142Y-85896502D01*
X174138143Y-85896506D01*
X174218465Y-86094315D01*
X174221086Y-86100769D01*
X174338975Y-86293147D01*
X174486702Y-86463687D01*
X174660299Y-86607810D01*
X174664751Y-86610412D01*
X174664756Y-86610415D01*
X174714069Y-86639231D01*
X174762792Y-86690870D01*
X174775863Y-86760653D01*
X174749131Y-86826425D01*
X174718595Y-86853783D01*
X174716335Y-86854960D01*
X174686492Y-86877367D01*
X174559345Y-86972831D01*
X174535905Y-86990430D01*
X174380024Y-87153550D01*
X174252878Y-87339940D01*
X174250704Y-87344624D01*
X174250702Y-87344627D01*
X174232568Y-87383695D01*
X174157881Y-87544593D01*
X174097585Y-87762013D01*
X174073609Y-87986362D01*
X173418500Y-87986362D01*
X173418500Y-78768269D01*
X174078401Y-78768269D01*
X174078771Y-78775090D01*
X174084295Y-78825952D01*
X174087921Y-78841204D01*
X174133076Y-78961654D01*
X174141614Y-78977249D01*
X174218115Y-79079324D01*
X174230676Y-79091885D01*
X174332751Y-79168386D01*
X174348346Y-79176924D01*
X174468794Y-79222078D01*
X174484049Y-79225705D01*
X174534914Y-79231231D01*
X174541728Y-79231600D01*
X175177885Y-79231600D01*
X175193124Y-79227125D01*
X175194329Y-79225735D01*
X175196000Y-79218052D01*
X175196000Y-79213484D01*
X175704000Y-79213484D01*
X175708475Y-79228723D01*
X175709865Y-79229928D01*
X175717548Y-79231599D01*
X176358269Y-79231599D01*
X176365090Y-79231229D01*
X176415952Y-79225705D01*
X176431204Y-79222079D01*
X176551654Y-79176924D01*
X176567249Y-79168386D01*
X176669324Y-79091885D01*
X176681885Y-79079324D01*
X176758386Y-78977249D01*
X176766924Y-78961654D01*
X176812078Y-78841206D01*
X176815705Y-78825951D01*
X176821231Y-78775086D01*
X176821600Y-78768272D01*
X176821600Y-78132115D01*
X176817125Y-78116876D01*
X176815735Y-78115671D01*
X176808052Y-78114000D01*
X175722115Y-78114000D01*
X175706876Y-78118475D01*
X175705671Y-78119865D01*
X175704000Y-78127548D01*
X175704000Y-79213484D01*
X175196000Y-79213484D01*
X175196000Y-78132115D01*
X175191525Y-78116876D01*
X175190135Y-78115671D01*
X175182452Y-78114000D01*
X174096516Y-78114000D01*
X174081277Y-78118475D01*
X174080072Y-78119865D01*
X174078401Y-78127548D01*
X174078401Y-78768269D01*
X173418500Y-78768269D01*
X173418500Y-77587885D01*
X174078400Y-77587885D01*
X174082875Y-77603124D01*
X174084265Y-77604329D01*
X174091948Y-77606000D01*
X175177885Y-77606000D01*
X175193124Y-77601525D01*
X175194329Y-77600135D01*
X175196000Y-77592452D01*
X175196000Y-77587885D01*
X175704000Y-77587885D01*
X175708475Y-77603124D01*
X175709865Y-77604329D01*
X175717548Y-77606000D01*
X176803484Y-77606000D01*
X176818723Y-77601525D01*
X176819928Y-77600135D01*
X176821599Y-77592452D01*
X176821599Y-76951731D01*
X176821229Y-76944910D01*
X176815705Y-76894048D01*
X176812079Y-76878796D01*
X176766924Y-76758346D01*
X176758386Y-76742752D01*
X176700538Y-76665565D01*
X176675690Y-76599059D01*
X176690743Y-76529676D01*
X176700538Y-76514435D01*
X176758386Y-76437248D01*
X176766924Y-76421654D01*
X176812078Y-76301206D01*
X176815705Y-76285951D01*
X176821231Y-76235086D01*
X176821600Y-76228272D01*
X176821600Y-75592115D01*
X176817125Y-75576876D01*
X176815735Y-75575671D01*
X176808052Y-75574000D01*
X175722115Y-75574000D01*
X175706876Y-75578475D01*
X175705671Y-75579865D01*
X175704000Y-75587548D01*
X175704000Y-77587885D01*
X175196000Y-77587885D01*
X175196000Y-75592115D01*
X175191525Y-75576876D01*
X175190135Y-75575671D01*
X175182452Y-75574000D01*
X174096516Y-75574000D01*
X174081277Y-75578475D01*
X174080072Y-75579865D01*
X174078401Y-75587548D01*
X174078401Y-76228269D01*
X174078771Y-76235090D01*
X174084295Y-76285952D01*
X174087921Y-76301204D01*
X174133076Y-76421654D01*
X174141614Y-76437248D01*
X174199462Y-76514435D01*
X174224310Y-76580941D01*
X174209257Y-76650324D01*
X174199462Y-76665565D01*
X174141614Y-76742752D01*
X174133076Y-76758346D01*
X174087922Y-76878794D01*
X174084295Y-76894049D01*
X174078769Y-76944914D01*
X174078400Y-76951728D01*
X174078400Y-77587885D01*
X173418500Y-77587885D01*
X173418500Y-72746362D01*
X174073609Y-72746362D01*
X174073906Y-72751514D01*
X174073906Y-72751518D01*
X174076292Y-72792890D01*
X174086597Y-72971614D01*
X174087734Y-72976660D01*
X174087735Y-72976666D01*
X174119095Y-73115821D01*
X174136200Y-73191720D01*
X174138142Y-73196502D01*
X174138143Y-73196506D01*
X174182542Y-73305847D01*
X174221086Y-73400769D01*
X174223785Y-73405173D01*
X174322409Y-73566113D01*
X174338975Y-73593147D01*
X174342355Y-73597049D01*
X174410734Y-73675987D01*
X174484413Y-73761045D01*
X174484414Y-73761046D01*
X174486702Y-73763687D01*
X174486157Y-73764159D01*
X174518850Y-73822576D01*
X174514525Y-73893440D01*
X174472573Y-73950717D01*
X174440246Y-73968624D01*
X174348346Y-74003076D01*
X174332751Y-74011614D01*
X174230676Y-74088115D01*
X174218115Y-74100676D01*
X174141614Y-74202751D01*
X174133076Y-74218346D01*
X174087922Y-74338794D01*
X174084295Y-74354049D01*
X174078769Y-74404914D01*
X174078400Y-74411728D01*
X174078400Y-75047885D01*
X174082875Y-75063124D01*
X174084265Y-75064329D01*
X174091948Y-75066000D01*
X176803484Y-75066000D01*
X176818723Y-75061525D01*
X176819928Y-75060135D01*
X176821599Y-75052452D01*
X176821599Y-74438009D01*
X176841601Y-74369888D01*
X176895257Y-74323395D01*
X176965531Y-74313291D01*
X177030111Y-74342785D01*
X177052118Y-74367640D01*
X177168670Y-74540762D01*
X177389884Y-74798401D01*
X177639647Y-75028472D01*
X177773986Y-75125896D01*
X177903566Y-75219869D01*
X177914546Y-75227832D01*
X177917765Y-75229635D01*
X177917767Y-75229636D01*
X178177279Y-75374970D01*
X178210827Y-75393758D01*
X178432983Y-75486005D01*
X178521043Y-75522571D01*
X178521046Y-75522572D01*
X178524444Y-75523983D01*
X178851112Y-75616729D01*
X178854742Y-75617314D01*
X178854748Y-75617315D01*
X179182979Y-75670182D01*
X179182985Y-75670183D01*
X179186371Y-75670728D01*
X179189797Y-75670902D01*
X179189801Y-75670902D01*
X179377680Y-75680420D01*
X179377697Y-75680420D01*
X179379268Y-75680500D01*
X179567180Y-75680500D01*
X179818999Y-75665760D01*
X179822625Y-75665117D01*
X179822628Y-75665117D01*
X180149746Y-75607143D01*
X180149750Y-75607142D01*
X180153367Y-75606501D01*
X180478539Y-75508635D01*
X180680505Y-75421027D01*
X180786683Y-75374970D01*
X180786688Y-75374967D01*
X180790071Y-75373500D01*
X181083710Y-75202941D01*
X181086649Y-75200738D01*
X181086654Y-75200735D01*
X181319837Y-75025974D01*
X181355444Y-74999288D01*
X181601562Y-74765322D01*
X181818702Y-74504240D01*
X181820710Y-74501153D01*
X181820715Y-74501147D01*
X182001885Y-74222700D01*
X182001886Y-74222699D01*
X182003898Y-74219606D01*
X182082023Y-74061880D01*
X182152985Y-73918616D01*
X182152988Y-73918609D01*
X182154622Y-73915310D01*
X182184514Y-73831596D01*
X182254484Y-73635635D01*
X182268813Y-73595506D01*
X182313593Y-73400769D01*
X182344088Y-73268154D01*
X182344089Y-73268145D01*
X182344913Y-73264564D01*
X182381882Y-72927003D01*
X182379215Y-72587434D01*
X182358539Y-72422615D01*
X182337407Y-72254153D01*
X182337406Y-72254149D01*
X182336948Y-72250496D01*
X182255660Y-71920790D01*
X182235817Y-71867859D01*
X182137754Y-71606273D01*
X182137753Y-71606271D01*
X182136459Y-71602819D01*
X181980975Y-71300928D01*
X181791330Y-71019238D01*
X181570116Y-70761599D01*
X181320353Y-70531528D01*
X181133949Y-70396346D01*
X181048437Y-70334331D01*
X181048433Y-70334329D01*
X181045454Y-70332168D01*
X180806095Y-70198120D01*
X180752400Y-70168049D01*
X180752397Y-70168048D01*
X180749173Y-70166242D01*
X180469963Y-70050304D01*
X180438957Y-70037429D01*
X180438954Y-70037428D01*
X180435556Y-70036017D01*
X180108888Y-69943271D01*
X180105258Y-69942686D01*
X180105252Y-69942685D01*
X179777021Y-69889818D01*
X179777015Y-69889817D01*
X179773629Y-69889272D01*
X179770203Y-69889098D01*
X179770199Y-69889098D01*
X179582320Y-69879580D01*
X179582303Y-69879580D01*
X179580732Y-69879500D01*
X179392820Y-69879500D01*
X179141001Y-69894240D01*
X179137375Y-69894883D01*
X179137372Y-69894883D01*
X178810254Y-69952857D01*
X178810250Y-69952858D01*
X178806633Y-69953499D01*
X178481461Y-70051365D01*
X178172747Y-70185278D01*
X178172745Y-70185278D01*
X178169929Y-70186500D01*
X178169647Y-70185849D01*
X178103051Y-70198120D01*
X178037358Y-70171195D01*
X177996651Y-70113028D01*
X177993853Y-70042087D01*
X178026959Y-69983698D01*
X179505252Y-68505405D01*
X179567564Y-68471379D01*
X179594347Y-68468500D01*
X191448595Y-68468500D01*
X191516716Y-68488502D01*
X191522656Y-68492564D01*
X191603248Y-68551118D01*
X191609276Y-68553802D01*
X191609278Y-68553803D01*
X191771681Y-68626109D01*
X191777712Y-68628794D01*
X191871112Y-68648647D01*
X191958056Y-68667128D01*
X191958061Y-68667128D01*
X191964513Y-68668500D01*
X192155487Y-68668500D01*
X192161939Y-68667128D01*
X192161944Y-68667128D01*
X192248888Y-68648647D01*
X192342288Y-68628794D01*
X192348319Y-68626109D01*
X192510722Y-68553803D01*
X192510724Y-68553802D01*
X192516752Y-68551118D01*
X192671253Y-68438866D01*
X192738733Y-68363922D01*
X192794621Y-68301852D01*
X192794622Y-68301851D01*
X192799040Y-68296944D01*
X192857314Y-68196010D01*
X192891223Y-68137279D01*
X192891224Y-68137278D01*
X192894527Y-68131556D01*
X192953542Y-67949928D01*
X192973504Y-67760000D01*
X192953542Y-67570072D01*
X192894527Y-67388444D01*
X192799040Y-67223056D01*
X192762495Y-67182468D01*
X192675675Y-67086045D01*
X192675674Y-67086044D01*
X192671253Y-67081134D01*
X192516752Y-66968882D01*
X192510724Y-66966198D01*
X192510722Y-66966197D01*
X192348319Y-66893891D01*
X192348318Y-66893891D01*
X192342288Y-66891206D01*
X192248887Y-66871353D01*
X192161944Y-66852872D01*
X192161939Y-66852872D01*
X192155487Y-66851500D01*
X191964513Y-66851500D01*
X191958061Y-66852872D01*
X191958056Y-66852872D01*
X191871113Y-66871353D01*
X191777712Y-66891206D01*
X191771682Y-66893891D01*
X191771681Y-66893891D01*
X191609278Y-66966197D01*
X191609276Y-66966198D01*
X191603248Y-66968882D01*
X191597907Y-66972762D01*
X191597906Y-66972763D01*
X191522656Y-67027436D01*
X191455789Y-67051294D01*
X191448595Y-67051500D01*
X179277598Y-67051500D01*
X179269028Y-67051208D01*
X179218910Y-67047791D01*
X179218906Y-67047791D01*
X179211334Y-67047275D01*
X179203857Y-67048580D01*
X179203856Y-67048580D01*
X179188799Y-67051208D01*
X179148389Y-67058261D01*
X179141872Y-67059222D01*
X179078444Y-67066898D01*
X179071336Y-67069584D01*
X179068742Y-67070221D01*
X179052436Y-67074682D01*
X179049885Y-67075452D01*
X179042402Y-67076758D01*
X179035450Y-67079810D01*
X179035449Y-67079810D01*
X178983898Y-67102439D01*
X178977791Y-67104931D01*
X178925138Y-67124827D01*
X178918030Y-67127513D01*
X178911769Y-67131816D01*
X178909403Y-67133053D01*
X178894623Y-67141280D01*
X178892338Y-67142631D01*
X178885381Y-67145685D01*
X178879361Y-67150305D01*
X178879355Y-67150308D01*
X178848228Y-67174194D01*
X178834684Y-67184587D01*
X178829354Y-67188459D01*
X178782966Y-67220339D01*
X178782961Y-67220344D01*
X178776705Y-67224643D01*
X178771654Y-67230313D01*
X178771652Y-67230314D01*
X178735251Y-67271170D01*
X178730270Y-67276446D01*
X174969480Y-71037236D01*
X174963215Y-71043090D01*
X174919615Y-71081125D01*
X174915248Y-71087339D01*
X174882872Y-71133405D01*
X174878939Y-71138700D01*
X174839524Y-71188968D01*
X174836401Y-71195884D01*
X174835017Y-71198170D01*
X174826643Y-71212851D01*
X174825378Y-71215211D01*
X174821010Y-71221425D01*
X174818250Y-71228504D01*
X174818249Y-71228506D01*
X174797798Y-71280961D01*
X174795247Y-71287030D01*
X174768955Y-71345259D01*
X174767571Y-71352726D01*
X174766770Y-71355281D01*
X174762141Y-71371534D01*
X174761478Y-71374114D01*
X174758718Y-71381195D01*
X174757727Y-71388726D01*
X174757726Y-71388728D01*
X174750379Y-71444538D01*
X174749348Y-71451045D01*
X174737704Y-71513872D01*
X174738141Y-71521452D01*
X174738141Y-71521454D01*
X174738515Y-71527938D01*
X174722468Y-71597097D01*
X174688377Y-71635951D01*
X174594725Y-71706267D01*
X174535905Y-71750430D01*
X174380024Y-71913550D01*
X174252878Y-72099940D01*
X174250704Y-72104624D01*
X174250702Y-72104627D01*
X174160433Y-72299096D01*
X174157881Y-72304593D01*
X174097585Y-72522013D01*
X174073609Y-72746362D01*
X173418500Y-72746362D01*
X173418500Y-54872997D01*
X176578118Y-54872997D01*
X176580785Y-55212566D01*
X176581244Y-55216225D01*
X176617415Y-55504564D01*
X176623052Y-55549504D01*
X176704340Y-55879210D01*
X176823541Y-56197181D01*
X176979025Y-56499072D01*
X177168670Y-56780762D01*
X177389884Y-57038401D01*
X177639647Y-57268472D01*
X177826051Y-57403654D01*
X177880224Y-57442941D01*
X177914546Y-57467832D01*
X177917765Y-57469635D01*
X177917767Y-57469636D01*
X178177279Y-57614970D01*
X178210827Y-57633758D01*
X178432983Y-57726005D01*
X178521043Y-57762571D01*
X178521046Y-57762572D01*
X178524444Y-57763983D01*
X178851112Y-57856729D01*
X178854742Y-57857314D01*
X178854748Y-57857315D01*
X179182979Y-57910182D01*
X179182985Y-57910183D01*
X179186371Y-57910728D01*
X179189797Y-57910902D01*
X179189801Y-57910902D01*
X179377680Y-57920420D01*
X179377697Y-57920420D01*
X179379268Y-57920500D01*
X179567180Y-57920500D01*
X179818999Y-57905760D01*
X179822625Y-57905117D01*
X179822628Y-57905117D01*
X180149746Y-57847143D01*
X180149750Y-57847142D01*
X180153367Y-57846501D01*
X180478539Y-57748635D01*
X180611442Y-57690985D01*
X180786683Y-57614970D01*
X180786688Y-57614967D01*
X180790071Y-57613500D01*
X181083710Y-57442941D01*
X181086649Y-57440738D01*
X181086654Y-57440735D01*
X181316504Y-57268472D01*
X181355444Y-57239288D01*
X181601562Y-57005322D01*
X181818702Y-56744240D01*
X181820710Y-56741153D01*
X181820715Y-56741147D01*
X182001885Y-56462700D01*
X182001886Y-56462699D01*
X182003898Y-56459606D01*
X182132258Y-56200461D01*
X182152985Y-56158616D01*
X182152988Y-56158609D01*
X182154622Y-56155310D01*
X182268813Y-55835506D01*
X182284447Y-55767516D01*
X182344088Y-55508154D01*
X182344089Y-55508145D01*
X182344913Y-55504564D01*
X182381882Y-55167003D01*
X182379573Y-54872997D01*
X216928118Y-54872997D01*
X216930785Y-55212566D01*
X216931244Y-55216225D01*
X216967415Y-55504564D01*
X216973052Y-55549504D01*
X217054340Y-55879210D01*
X217173541Y-56197181D01*
X217329025Y-56499072D01*
X217518670Y-56780762D01*
X217739884Y-57038401D01*
X217989647Y-57268472D01*
X218176051Y-57403654D01*
X218230224Y-57442941D01*
X218264546Y-57467832D01*
X218267765Y-57469635D01*
X218267767Y-57469636D01*
X218527279Y-57614970D01*
X218560827Y-57633758D01*
X218782983Y-57726005D01*
X218871043Y-57762571D01*
X218871046Y-57762572D01*
X218874444Y-57763983D01*
X219201112Y-57856729D01*
X219204742Y-57857314D01*
X219204748Y-57857315D01*
X219532979Y-57910182D01*
X219532985Y-57910183D01*
X219536371Y-57910728D01*
X219539797Y-57910902D01*
X219539801Y-57910902D01*
X219727680Y-57920420D01*
X219727697Y-57920420D01*
X219729268Y-57920500D01*
X219917180Y-57920500D01*
X220168999Y-57905760D01*
X220172625Y-57905117D01*
X220172628Y-57905117D01*
X220499746Y-57847143D01*
X220499750Y-57847142D01*
X220503367Y-57846501D01*
X220828539Y-57748635D01*
X220961442Y-57690985D01*
X221136683Y-57614970D01*
X221136688Y-57614967D01*
X221140071Y-57613500D01*
X221433710Y-57442941D01*
X221436649Y-57440738D01*
X221436654Y-57440735D01*
X221666504Y-57268472D01*
X221705444Y-57239288D01*
X221951562Y-57005322D01*
X222168702Y-56744240D01*
X222170710Y-56741153D01*
X222170715Y-56741147D01*
X222351885Y-56462700D01*
X222351886Y-56462699D01*
X222353898Y-56459606D01*
X222482258Y-56200461D01*
X222502985Y-56158616D01*
X222502988Y-56158609D01*
X222504622Y-56155310D01*
X222618813Y-55835506D01*
X222634447Y-55767516D01*
X222694088Y-55508154D01*
X222694089Y-55508145D01*
X222694913Y-55504564D01*
X222731882Y-55167003D01*
X222729215Y-54827434D01*
X222693045Y-54539096D01*
X222687407Y-54494153D01*
X222687406Y-54494149D01*
X222686948Y-54490496D01*
X222605660Y-54160790D01*
X222486459Y-53842819D01*
X222330975Y-53540928D01*
X222141330Y-53259238D01*
X221920116Y-53001599D01*
X221670353Y-52771528D01*
X221483949Y-52636346D01*
X221398437Y-52574331D01*
X221398433Y-52574329D01*
X221395454Y-52572168D01*
X221392233Y-52570364D01*
X221102400Y-52408049D01*
X221102397Y-52408048D01*
X221099173Y-52406242D01*
X220819963Y-52290304D01*
X220788957Y-52277429D01*
X220788954Y-52277428D01*
X220785556Y-52276017D01*
X220458888Y-52183271D01*
X220455258Y-52182686D01*
X220455252Y-52182685D01*
X220127021Y-52129818D01*
X220127015Y-52129817D01*
X220123629Y-52129272D01*
X220120203Y-52129098D01*
X220120199Y-52129098D01*
X219932320Y-52119580D01*
X219932303Y-52119580D01*
X219930732Y-52119500D01*
X219742820Y-52119500D01*
X219491001Y-52134240D01*
X219487375Y-52134883D01*
X219487372Y-52134883D01*
X219160254Y-52192857D01*
X219160250Y-52192858D01*
X219156633Y-52193499D01*
X218831461Y-52291365D01*
X218698558Y-52349015D01*
X218523317Y-52425030D01*
X218523312Y-52425033D01*
X218519929Y-52426500D01*
X218226290Y-52597059D01*
X218223351Y-52599262D01*
X218223346Y-52599265D01*
X218029486Y-52744555D01*
X217954556Y-52800712D01*
X217708438Y-53034678D01*
X217491298Y-53295760D01*
X217489290Y-53298847D01*
X217489285Y-53298853D01*
X217333766Y-53537876D01*
X217306102Y-53580394D01*
X217232067Y-53729864D01*
X217157015Y-53881384D01*
X217157012Y-53881391D01*
X217155378Y-53884690D01*
X217041187Y-54204494D01*
X217040360Y-54208091D01*
X216965912Y-54531846D01*
X216965911Y-54531855D01*
X216965087Y-54535436D01*
X216928118Y-54872997D01*
X182379573Y-54872997D01*
X182379215Y-54827434D01*
X182343045Y-54539096D01*
X182337407Y-54494153D01*
X182337406Y-54494149D01*
X182336948Y-54490496D01*
X182255660Y-54160790D01*
X182136459Y-53842819D01*
X181980975Y-53540928D01*
X181791330Y-53259238D01*
X181570116Y-53001599D01*
X181320353Y-52771528D01*
X181133949Y-52636346D01*
X181048437Y-52574331D01*
X181048433Y-52574329D01*
X181045454Y-52572168D01*
X181042233Y-52570364D01*
X180752400Y-52408049D01*
X180752397Y-52408048D01*
X180749173Y-52406242D01*
X180469963Y-52290304D01*
X180438957Y-52277429D01*
X180438954Y-52277428D01*
X180435556Y-52276017D01*
X180108888Y-52183271D01*
X180105258Y-52182686D01*
X180105252Y-52182685D01*
X179777021Y-52129818D01*
X179777015Y-52129817D01*
X179773629Y-52129272D01*
X179770203Y-52129098D01*
X179770199Y-52129098D01*
X179582320Y-52119580D01*
X179582303Y-52119580D01*
X179580732Y-52119500D01*
X179392820Y-52119500D01*
X179141001Y-52134240D01*
X179137375Y-52134883D01*
X179137372Y-52134883D01*
X178810254Y-52192857D01*
X178810250Y-52192858D01*
X178806633Y-52193499D01*
X178481461Y-52291365D01*
X178348558Y-52349015D01*
X178173317Y-52425030D01*
X178173312Y-52425033D01*
X178169929Y-52426500D01*
X177876290Y-52597059D01*
X177873351Y-52599262D01*
X177873346Y-52599265D01*
X177679486Y-52744555D01*
X177604556Y-52800712D01*
X177358438Y-53034678D01*
X177141298Y-53295760D01*
X177139290Y-53298847D01*
X177139285Y-53298853D01*
X176983766Y-53537876D01*
X176956102Y-53580394D01*
X176882067Y-53729864D01*
X176807015Y-53881384D01*
X176807012Y-53881391D01*
X176805378Y-53884690D01*
X176691187Y-54204494D01*
X176690360Y-54208091D01*
X176615912Y-54531846D01*
X176615911Y-54531855D01*
X176615087Y-54535436D01*
X176578118Y-54872997D01*
X173418500Y-54872997D01*
X173418500Y-49817364D01*
X173438502Y-49749243D01*
X173492158Y-49702750D01*
X173562432Y-49692646D01*
X173627012Y-49722140D01*
X173652615Y-49752657D01*
X173714561Y-49856161D01*
X173894313Y-50080528D01*
X174102851Y-50278423D01*
X174336317Y-50446186D01*
X174340112Y-50448195D01*
X174340113Y-50448196D01*
X174361869Y-50459715D01*
X174590392Y-50580712D01*
X174860373Y-50679511D01*
X175141264Y-50740755D01*
X175169841Y-50743004D01*
X175364282Y-50758307D01*
X175364291Y-50758307D01*
X175366739Y-50758500D01*
X175522271Y-50758500D01*
X175524407Y-50758354D01*
X175524418Y-50758354D01*
X175732548Y-50744165D01*
X175732554Y-50744164D01*
X175736825Y-50743873D01*
X175741020Y-50743004D01*
X175741022Y-50743004D01*
X175877583Y-50714724D01*
X176018342Y-50685574D01*
X176289343Y-50589607D01*
X176544812Y-50457750D01*
X176548313Y-50455289D01*
X176548317Y-50455287D01*
X176709684Y-50341876D01*
X176780023Y-50292441D01*
X176990622Y-50096740D01*
X177172713Y-49874268D01*
X177322927Y-49629142D01*
X177438483Y-49365898D01*
X177517244Y-49089406D01*
X177549283Y-48864284D01*
X177557146Y-48809036D01*
X177557146Y-48809034D01*
X177557751Y-48804784D01*
X177558209Y-48717521D01*
X177559235Y-48521583D01*
X177559235Y-48521576D01*
X177559257Y-48517297D01*
X177553897Y-48476579D01*
X177527695Y-48277559D01*
X177521732Y-48232266D01*
X177445871Y-47954964D01*
X177390917Y-47826127D01*
X177334763Y-47694476D01*
X177334761Y-47694472D01*
X177333077Y-47690524D01*
X177231584Y-47520942D01*
X177187643Y-47447521D01*
X177187640Y-47447517D01*
X177185439Y-47443839D01*
X177005687Y-47219472D01*
X176797149Y-47021577D01*
X176563683Y-46853814D01*
X176541843Y-46842250D01*
X176518654Y-46829972D01*
X176309608Y-46719288D01*
X176039627Y-46620489D01*
X175758736Y-46559245D01*
X175727685Y-46556801D01*
X175535718Y-46541693D01*
X175535709Y-46541693D01*
X175533261Y-46541500D01*
X175377729Y-46541500D01*
X175375593Y-46541646D01*
X175375582Y-46541646D01*
X175167452Y-46555835D01*
X175167446Y-46555836D01*
X175163175Y-46556127D01*
X175158980Y-46556996D01*
X175158978Y-46556996D01*
X175022417Y-46585276D01*
X174881658Y-46614426D01*
X174610657Y-46710393D01*
X174355188Y-46842250D01*
X174351687Y-46844711D01*
X174351683Y-46844713D01*
X174341594Y-46851804D01*
X174119977Y-47007559D01*
X173909378Y-47203260D01*
X173727287Y-47425732D01*
X173725048Y-47429386D01*
X173651933Y-47548698D01*
X173599285Y-47596329D01*
X173529243Y-47607936D01*
X173464046Y-47579833D01*
X173424392Y-47520942D01*
X173418500Y-47482863D01*
X173418500Y-35314738D01*
X173438502Y-35246617D01*
X173492158Y-35200124D01*
X173544546Y-35188738D01*
X201800068Y-35199335D01*
G37*
%TD.AperFunction*%
%TD*%
M02*
